solid OpenSCAD_Model
  facet normal -1 0 0
    outer loop
      vertex -0.4 -1 0.715
      vertex -0.4 1 0.745
      vertex -0.4 1 0.715
    endloop
  endfacet
  facet normal -1 -0 0
    outer loop
      vertex -0.4 1 0.745
      vertex -0.4 -1 0.715
      vertex -0.4 -1 0.745
    endloop
  endfacet
  facet normal -0 0 1
    outer loop
      vertex -0.4 1 0.745
      vertex 0.4 -1 0.745
      vertex 0.4 1 0.745
    endloop
  endfacet
  facet normal 0 0 1
    outer loop
      vertex 0.4 -1 0.745
      vertex -0.4 1 0.745
      vertex -0.4 -1 0.745
    endloop
  endfacet
  facet normal 1 -0 0
    outer loop
      vertex 0.4 -1 0.745
      vertex 0.4 1 0.715
      vertex 0.4 1 0.745
    endloop
  endfacet
  facet normal 1 0 0
    outer loop
      vertex 0.4 1 0.715
      vertex 0.4 -1 0.745
      vertex 0.4 -1 0.715
    endloop
  endfacet
  facet normal 0 1 -0
    outer loop
      vertex 0.4 1 0.715
      vertex -0.4 1 0.745
      vertex 0.4 1 0.745
    endloop
  endfacet
  facet normal 0 1 0
    outer loop
      vertex -0.4 1 0.745
      vertex 0.4 1 0.715
      vertex -0.4 1 0.715
    endloop
  endfacet
  facet normal 0 0 -1
    outer loop
      vertex -0.386 -0.968 0.715
      vertex 0.294 0.968 0.715
      vertex 0.294 -0.968 0.715
    endloop
  endfacet
  facet normal -0 0 -1
    outer loop
      vertex 0.294 0.968 0.715
      vertex -0.386 -0.968 0.715
      vertex -0.386 0.968 0.715
    endloop
  endfacet
  facet normal 0 0 -1
    outer loop
      vertex 0.294 -0.968 0.715
      vertex 0.4 -1 0.715
      vertex 0.294 -0.998 0.715
    endloop
  endfacet
  facet normal 0 0 -1
    outer loop
      vertex -0.4 -1 0.715
      vertex 0.294 -0.998 0.715
      vertex 0.4 -1 0.715
    endloop
  endfacet
  facet normal 0 0 -1
    outer loop
      vertex -0.4 -1 0.715
      vertex -0.386 -0.968 0.715
      vertex -0.386 -0.998 0.715
    endloop
  endfacet
  facet normal -0 0 -1
    outer loop
      vertex -0.386 -0.968 0.715
      vertex -0.4 -1 0.715
      vertex -0.386 0.968 0.715
    endloop
  endfacet
  facet normal 0 0 -1
    outer loop
      vertex -0.4 1 0.715
      vertex -0.386 0.968 0.715
      vertex -0.4 -1 0.715
    endloop
  endfacet
  facet normal -0 0 -1
    outer loop
      vertex 0.294 -0.998 0.715
      vertex -0.4 -1 0.715
      vertex -0.386 -0.998 0.715
    endloop
  endfacet
  facet normal 0 0 -1
    outer loop
      vertex 0.4 -1 0.715
      vertex 0.294 -0.968 0.715
      vertex 0.4 1 0.715
    endloop
  endfacet
  facet normal 0 0 -1
    outer loop
      vertex 0.294 0.968 0.715
      vertex 0.4 1 0.715
      vertex 0.294 -0.968 0.715
    endloop
  endfacet
  facet normal 0 0 -1
    outer loop
      vertex 0.294 0.998 0.715
      vertex 0.4 1 0.715
      vertex 0.294 0.968 0.715
    endloop
  endfacet
  facet normal 0 0 -1
    outer loop
      vertex -0.4 1 0.715
      vertex 0.294 0.998 0.715
      vertex -0.386 0.998 0.715
    endloop
  endfacet
  facet normal 0 0 -1
    outer loop
      vertex 0.294 0.998 0.715
      vertex -0.4 1 0.715
      vertex 0.4 1 0.715
    endloop
  endfacet
  facet normal 0 0 -1
    outer loop
      vertex -0.386 0.968 0.715
      vertex -0.4 1 0.715
      vertex -0.386 0.998 0.715
    endloop
  endfacet
  facet normal 0 -1 0
    outer loop
      vertex -0.4 -1 0.715
      vertex 0.4 -1 0.745
      vertex -0.4 -1 0.745
    endloop
  endfacet
  facet normal 0 -1 -0
    outer loop
      vertex 0.4 -1 0.745
      vertex -0.4 -1 0.715
      vertex 0.4 -1 0.715
    endloop
  endfacet
  facet normal -1 0 0
    outer loop
      vertex -0.386 0.968 0
      vertex -0.386 0.998 0.715
      vertex -0.386 0.998 0
    endloop
  endfacet
  facet normal -1 -0 0
    outer loop
      vertex -0.386 0.998 0.715
      vertex -0.386 0.968 0
      vertex -0.386 0.968 0.715
    endloop
  endfacet
  facet normal 1 -0 0
    outer loop
      vertex 0.294 0.968 0.715
      vertex 0.294 0.998 0
      vertex 0.294 0.998 0.715
    endloop
  endfacet
  facet normal 1 0 0
    outer loop
      vertex 0.294 0.998 0
      vertex 0.294 0.968 0.715
      vertex 0.294 0.968 0
    endloop
  endfacet
  facet normal 0 0 -1
    outer loop
      vertex -0.386 0.968 0
      vertex 0.294 0.998 0
      vertex 0.294 0.968 0
    endloop
  endfacet
  facet normal -0 0 -1
    outer loop
      vertex 0.294 0.998 0
      vertex -0.386 0.968 0
      vertex -0.386 0.998 0
    endloop
  endfacet
  facet normal 0 -1 0
    outer loop
      vertex -0.386 0.968 0
      vertex 0.294 0.968 0.715
      vertex -0.386 0.968 0.715
    endloop
  endfacet
  facet normal 0 -1 -0
    outer loop
      vertex 0.294 0.968 0.715
      vertex -0.386 0.968 0
      vertex 0.294 0.968 0
    endloop
  endfacet
  facet normal 0 1 -0
    outer loop
      vertex 0.294 0.998 0
      vertex -0.386 0.998 0.715
      vertex 0.294 0.998 0.715
    endloop
  endfacet
  facet normal 0 1 0
    outer loop
      vertex -0.386 0.998 0.715
      vertex 0.294 0.998 0
      vertex -0.386 0.998 0
    endloop
  endfacet
  facet normal -1 0 0
    outer loop
      vertex -0.386 -0.998 0
      vertex -0.386 -0.968 0.715
      vertex -0.386 -0.968 0
    endloop
  endfacet
  facet normal -1 -0 0
    outer loop
      vertex -0.386 -0.968 0.715
      vertex -0.386 -0.998 0
      vertex -0.386 -0.998 0.715
    endloop
  endfacet
  facet normal 1 -0 0
    outer loop
      vertex 0.294 -0.998 0.715
      vertex 0.294 -0.968 0
      vertex 0.294 -0.968 0.715
    endloop
  endfacet
  facet normal 1 0 0
    outer loop
      vertex 0.294 -0.968 0
      vertex 0.294 -0.998 0.715
      vertex 0.294 -0.998 0
    endloop
  endfacet
  facet normal 0 0 -1
    outer loop
      vertex -0.386 -0.998 0
      vertex 0.294 -0.968 0
      vertex 0.294 -0.998 0
    endloop
  endfacet
  facet normal -0 0 -1
    outer loop
      vertex 0.294 -0.968 0
      vertex -0.386 -0.998 0
      vertex -0.386 -0.968 0
    endloop
  endfacet
  facet normal 0 -1 0
    outer loop
      vertex -0.386 -0.998 0
      vertex 0.294 -0.998 0.715
      vertex -0.386 -0.998 0.715
    endloop
  endfacet
  facet normal 0 -1 -0
    outer loop
      vertex 0.294 -0.998 0.715
      vertex -0.386 -0.998 0
      vertex 0.294 -0.998 0
    endloop
  endfacet
  facet normal 0 1 -0
    outer loop
      vertex 0.294 -0.968 0
      vertex -0.386 -0.968 0.715
      vertex 0.294 -0.968 0.715
    endloop
  endfacet
  facet normal 0 1 0
    outer loop
      vertex -0.386 -0.968 0.715
      vertex 0.294 -0.968 0
      vertex -0.386 -0.968 0
    endloop
  endfacet
endsolid OpenSCAD_Model
