solid OpenSCAD_Model
  facet normal -1 0 0
    outer loop
      vertex -400 -1500 0
      vertex -400 -1500 0.05
      vertex -400 1500 0
    endloop
  endfacet
  facet normal -1 0 0
    outer loop
      vertex -400 1500 0
      vertex -400 -1500 0.05
      vertex -400 -1500 50
    endloop
  endfacet
  facet normal -1 0 0
    outer loop
      vertex -400 1500 0.05
      vertex -400 -1500 50
      vertex -400 1500 50
    endloop
  endfacet
  facet normal -1 0 0
    outer loop
      vertex -400 1500 0
      vertex -400 -1500 50
      vertex -400 1500 0.05
    endloop
  endfacet
  facet normal 0 -1 0
    outer loop
      vertex -400 -1500 0.05
      vertex -400 -1500 0
      vertex 400 -1500 0
    endloop
  endfacet
  facet normal 0 -1 0
    outer loop
      vertex 400 -1500 0.05
      vertex -400 -1500 0.05
      vertex 400 -1500 0
    endloop
  endfacet
  facet normal 0 0 -1
    outer loop
      vertex -400 -1500 0
      vertex -400 1500 0
      vertex 400 -1500 0
    endloop
  endfacet
  facet normal 0 0 -1
    outer loop
      vertex 400 -1500 0
      vertex -400 1500 0
      vertex 400 1500 0
    endloop
  endfacet
  facet normal 0 1 0
    outer loop
      vertex -400 1500 0
      vertex -400 1500 0.05
      vertex 400 1500 0
    endloop
  endfacet
  facet normal 0 1 0
    outer loop
      vertex 400 1500 0
      vertex -400 1500 0.05
      vertex 400 1500 0.05
    endloop
  endfacet
  facet normal 0 0 -1
    outer loop
      vertex -400 1500 0.05
      vertex -396.846 1550.13 0.05
      vertex 400 1500 0.05
    endloop
  endfacet
  facet normal 0 0 -1
    outer loop
      vertex 400 1500 0.05
      vertex -396.846 1550.13 0.05
      vertex -387.433 1599.48 0.05
    endloop
  endfacet
  facet normal 0 0 -1
    outer loop
      vertex 400 1500 0.05
      vertex -387.433 1599.48 0.05
      vertex -371.911 1647.25 0.05
    endloop
  endfacet
  facet normal 0 0 -1
    outer loop
      vertex 400 1500 0.05
      vertex -371.911 1647.25 0.05
      vertex -350.523 1692.7 0.05
    endloop
  endfacet
  facet normal 0 0 -1
    outer loop
      vertex 400 1500 0.05
      vertex -350.523 1692.7 0.05
      vertex -323.607 1735.11 0.05
    endloop
  endfacet
  facet normal 0 0 -1
    outer loop
      vertex 400 1500 0.05
      vertex -323.607 1735.11 0.05
      vertex -291.587 1773.82 0.05
    endloop
  endfacet
  facet normal 0 0 -1
    outer loop
      vertex 400 1500 0.05
      vertex -291.587 1773.82 0.05
      vertex -254.97 1808.21 0.05
    endloop
  endfacet
  facet normal 0 0 -1
    outer loop
      vertex 400 1500 0.05
      vertex -254.97 1808.21 0.05
      vertex -214.331 1837.73 0.05
    endloop
  endfacet
  facet normal 0 0 -1
    outer loop
      vertex 400 1500 0.05
      vertex -214.331 1837.73 0.05
      vertex -170.312 1861.93 0.05
    endloop
  endfacet
  facet normal 0 0 -1
    outer loop
      vertex 400 1500 0.05
      vertex -170.312 1861.93 0.05
      vertex -123.607 1880.42 0.05
    endloop
  endfacet
  facet normal 0 0 -1
    outer loop
      vertex 400 1500 0.05
      vertex -123.607 1880.42 0.05
      vertex -74.9525 1892.91 0.05
    endloop
  endfacet
  facet normal 0 0 -1
    outer loop
      vertex 400 1500 0.05
      vertex -74.9525 1892.91 0.05
      vertex -25.1162 1899.21 0.05
    endloop
  endfacet
  facet normal 0 0 -1
    outer loop
      vertex 400 1500 0.05
      vertex -25.1162 1899.21 0.05
      vertex 25.1162 1899.21 0.05
    endloop
  endfacet
  facet normal 0 0 -1
    outer loop
      vertex 400 1500 0.05
      vertex 25.1162 1899.21 0.05
      vertex 74.9525 1892.91 0.05
    endloop
  endfacet
  facet normal 0 0 -1
    outer loop
      vertex 400 1500 0.05
      vertex 74.9525 1892.91 0.05
      vertex 123.607 1880.42 0.05
    endloop
  endfacet
  facet normal 0 0 -1
    outer loop
      vertex 400 1500 0.05
      vertex 123.607 1880.42 0.05
      vertex 170.312 1861.93 0.05
    endloop
  endfacet
  facet normal 0 0 -1
    outer loop
      vertex 400 1500 0.05
      vertex 170.312 1861.93 0.05
      vertex 214.331 1837.73 0.05
    endloop
  endfacet
  facet normal 0 0 -1
    outer loop
      vertex 400 1500 0.05
      vertex 214.331 1837.73 0.05
      vertex 254.97 1808.21 0.05
    endloop
  endfacet
  facet normal 0 0 -1
    outer loop
      vertex 400 1500 0.05
      vertex 254.97 1808.21 0.05
      vertex 291.587 1773.82 0.05
    endloop
  endfacet
  facet normal 0 0 -1
    outer loop
      vertex 400 1500 0.05
      vertex 291.587 1773.82 0.05
      vertex 323.607 1735.11 0.05
    endloop
  endfacet
  facet normal 0 0 -1
    outer loop
      vertex 400 1500 0.05
      vertex 323.607 1735.11 0.05
      vertex 350.523 1692.7 0.05
    endloop
  endfacet
  facet normal 0 0 -1
    outer loop
      vertex 400 1500 0.05
      vertex 350.523 1692.7 0.05
      vertex 371.911 1647.25 0.05
    endloop
  endfacet
  facet normal 0 0 -1
    outer loop
      vertex 400 1500 0.05
      vertex 371.911 1647.25 0.05
      vertex 387.433 1599.48 0.05
    endloop
  endfacet
  facet normal 0 0 -1
    outer loop
      vertex 400 1500 0.05
      vertex 387.433 1599.48 0.05
      vertex 396.846 1550.13 0.05
    endloop
  endfacet
  facet normal -0.998027 0.0627905 0
    outer loop
      vertex -400 1500 0.05
      vertex -400 1500 50
      vertex -396.846 1550.13 0.05
    endloop
  endfacet
  facet normal -0.998027 0.0627905 0
    outer loop
      vertex -396.846 1550.13 0.05
      vertex -400 1500 50
      vertex -396.846 1550.13 50
    endloop
  endfacet
  facet normal 0 0 1
    outer loop
      vertex -396.846 -1550.13 50
      vertex -387.433 -1599.48 50
      vertex -371.911 -1647.25 50
    endloop
  endfacet
  facet normal 0 0 1
    outer loop
      vertex -323.607 -1735.11 50
      vertex -396.846 -1550.13 50
      vertex -350.523 -1692.7 50
    endloop
  endfacet
  facet normal 0 0 1
    outer loop
      vertex -350.523 -1692.7 50
      vertex -396.846 -1550.13 50
      vertex -371.911 -1647.25 50
    endloop
  endfacet
  facet normal 0 0 1
    outer loop
      vertex -291.587 -1773.82 50
      vertex -396.846 -1550.13 50
      vertex -323.607 -1735.11 50
    endloop
  endfacet
  facet normal 0 0 1
    outer loop
      vertex -254.97 -1808.21 50
      vertex -396.846 -1550.13 50
      vertex -291.587 -1773.82 50
    endloop
  endfacet
  facet normal 0 0 1
    outer loop
      vertex -214.331 -1837.73 50
      vertex -396.846 -1550.13 50
      vertex -254.97 -1808.21 50
    endloop
  endfacet
  facet normal 0 0 1
    outer loop
      vertex -170.312 -1861.93 50
      vertex -396.846 -1550.13 50
      vertex -214.331 -1837.73 50
    endloop
  endfacet
  facet normal 0 0 1
    outer loop
      vertex -123.607 -1880.42 50
      vertex -396.846 -1550.13 50
      vertex -170.312 -1861.93 50
    endloop
  endfacet
  facet normal 0 0 1
    outer loop
      vertex -100.1 -1886.46 50
      vertex -396.846 -1550.13 50
      vertex -123.607 -1880.42 50
    endloop
  endfacet
  facet normal 0 0 1
    outer loop
      vertex -100.1 1886.46 50
      vertex -396.846 -1550.13 50
      vertex -100.1 -1886.46 50
    endloop
  endfacet
  facet normal 0 0 1
    outer loop
      vertex -123.607 1880.42 50
      vertex -396.846 -1550.13 50
      vertex -100.1 1886.46 50
    endloop
  endfacet
  facet normal 0 0 1
    outer loop
      vertex -170.312 1861.93 50
      vertex -396.846 -1550.13 50
      vertex -123.607 1880.42 50
    endloop
  endfacet
  facet normal 0 0 1
    outer loop
      vertex -214.331 1837.73 50
      vertex -396.846 -1550.13 50
      vertex -170.312 1861.93 50
    endloop
  endfacet
  facet normal 0 0 1
    outer loop
      vertex -254.97 1808.21 50
      vertex -396.846 -1550.13 50
      vertex -214.331 1837.73 50
    endloop
  endfacet
  facet normal 0 0 1
    outer loop
      vertex -291.587 1773.82 50
      vertex -396.846 -1550.13 50
      vertex -254.97 1808.21 50
    endloop
  endfacet
  facet normal 0 0 1
    outer loop
      vertex -323.607 1735.11 50
      vertex -396.846 -1550.13 50
      vertex -291.587 1773.82 50
    endloop
  endfacet
  facet normal 0 0 1
    outer loop
      vertex -350.523 1692.7 50
      vertex -396.846 -1550.13 50
      vertex -323.607 1735.11 50
    endloop
  endfacet
  facet normal 0 0 1
    outer loop
      vertex -371.911 1647.25 50
      vertex -396.846 -1550.13 50
      vertex -350.523 1692.7 50
    endloop
  endfacet
  facet normal 0 0 1
    outer loop
      vertex -387.433 1599.48 50
      vertex -396.846 -1550.13 50
      vertex -371.911 1647.25 50
    endloop
  endfacet
  facet normal 0 0 1
    outer loop
      vertex -396.846 1550.13 50
      vertex -396.846 -1550.13 50
      vertex -387.433 1599.48 50
    endloop
  endfacet
  facet normal 0 0 1
    outer loop
      vertex -400 1500 50
      vertex -396.846 -1550.13 50
      vertex -396.846 1550.13 50
    endloop
  endfacet
  facet normal 0 0 1
    outer loop
      vertex -400 -1500 50
      vertex -396.846 -1550.13 50
      vertex -400 1500 50
    endloop
  endfacet
  facet normal -0.998027 -0.0627905 0
    outer loop
      vertex -400 -1500 0.05
      vertex -396.846 -1550.13 0.05
      vertex -400 -1500 50
    endloop
  endfacet
  facet normal -0.998027 -0.0627905 0
    outer loop
      vertex -400 -1500 50
      vertex -396.846 -1550.13 0.05
      vertex -396.846 -1550.13 50
    endloop
  endfacet
  facet normal 0 0 -1
    outer loop
      vertex -400 -1500 0.05
      vertex 400 -1500 0.05
      vertex -396.846 -1550.13 0.05
    endloop
  endfacet
  facet normal 0 0 -1
    outer loop
      vertex -396.846 -1550.13 0.05
      vertex 400 -1500 0.05
      vertex 396.846 -1550.13 0.05
    endloop
  endfacet
  facet normal 0 0 -1
    outer loop
      vertex -396.846 -1550.13 0.05
      vertex 396.846 -1550.13 0.05
      vertex 387.433 -1599.48 0.05
    endloop
  endfacet
  facet normal 0 0 -1
    outer loop
      vertex -396.846 -1550.13 0.05
      vertex 387.433 -1599.48 0.05
      vertex 371.911 -1647.25 0.05
    endloop
  endfacet
  facet normal 0 0 -1
    outer loop
      vertex -396.846 -1550.13 0.05
      vertex 371.911 -1647.25 0.05
      vertex 350.523 -1692.7 0.05
    endloop
  endfacet
  facet normal 0 0 -1
    outer loop
      vertex -396.846 -1550.13 0.05
      vertex 350.523 -1692.7 0.05
      vertex 323.607 -1735.11 0.05
    endloop
  endfacet
  facet normal 0 0 -1
    outer loop
      vertex -396.846 -1550.13 0.05
      vertex 323.607 -1735.11 0.05
      vertex 291.587 -1773.82 0.05
    endloop
  endfacet
  facet normal 0 0 -1
    outer loop
      vertex -396.846 -1550.13 0.05
      vertex 291.587 -1773.82 0.05
      vertex 254.97 -1808.21 0.05
    endloop
  endfacet
  facet normal 0 0 -1
    outer loop
      vertex -396.846 -1550.13 0.05
      vertex 254.97 -1808.21 0.05
      vertex 214.331 -1837.73 0.05
    endloop
  endfacet
  facet normal 0 0 -1
    outer loop
      vertex -396.846 -1550.13 0.05
      vertex 214.331 -1837.73 0.05
      vertex 170.312 -1861.93 0.05
    endloop
  endfacet
  facet normal 0 0 -1
    outer loop
      vertex -396.846 -1550.13 0.05
      vertex 170.312 -1861.93 0.05
      vertex 123.607 -1880.42 0.05
    endloop
  endfacet
  facet normal 0 0 -1
    outer loop
      vertex -396.846 -1550.13 0.05
      vertex 123.607 -1880.42 0.05
      vertex 74.9525 -1892.91 0.05
    endloop
  endfacet
  facet normal 0 0 -1
    outer loop
      vertex -396.846 -1550.13 0.05
      vertex 74.9525 -1892.91 0.05
      vertex 25.1162 -1899.21 0.05
    endloop
  endfacet
  facet normal 0 0 -1
    outer loop
      vertex -396.846 -1550.13 0.05
      vertex 25.1162 -1899.21 0.05
      vertex -25.1162 -1899.21 0.05
    endloop
  endfacet
  facet normal 0 0 -1
    outer loop
      vertex -396.846 -1550.13 0.05
      vertex -25.1162 -1899.21 0.05
      vertex -74.9525 -1892.91 0.05
    endloop
  endfacet
  facet normal 0 0 -1
    outer loop
      vertex -396.846 -1550.13 0.05
      vertex -74.9525 -1892.91 0.05
      vertex -123.607 -1880.42 0.05
    endloop
  endfacet
  facet normal 0 0 -1
    outer loop
      vertex -396.846 -1550.13 0.05
      vertex -123.607 -1880.42 0.05
      vertex -170.312 -1861.93 0.05
    endloop
  endfacet
  facet normal 0 0 -1
    outer loop
      vertex -396.846 -1550.13 0.05
      vertex -170.312 -1861.93 0.05
      vertex -214.331 -1837.73 0.05
    endloop
  endfacet
  facet normal 0 0 -1
    outer loop
      vertex -396.846 -1550.13 0.05
      vertex -214.331 -1837.73 0.05
      vertex -254.97 -1808.21 0.05
    endloop
  endfacet
  facet normal 0 0 -1
    outer loop
      vertex -396.846 -1550.13 0.05
      vertex -254.97 -1808.21 0.05
      vertex -291.587 -1773.82 0.05
    endloop
  endfacet
  facet normal 0 0 -1
    outer loop
      vertex -396.846 -1550.13 0.05
      vertex -291.587 -1773.82 0.05
      vertex -323.607 -1735.11 0.05
    endloop
  endfacet
  facet normal 0 0 -1
    outer loop
      vertex -396.846 -1550.13 0.05
      vertex -323.607 -1735.11 0.05
      vertex -350.523 -1692.7 0.05
    endloop
  endfacet
  facet normal 0 0 -1
    outer loop
      vertex -396.846 -1550.13 0.05
      vertex -350.523 -1692.7 0.05
      vertex -371.911 -1647.25 0.05
    endloop
  endfacet
  facet normal 0 0 -1
    outer loop
      vertex -396.846 -1550.13 0.05
      vertex -371.911 -1647.25 0.05
      vertex -387.433 -1599.48 0.05
    endloop
  endfacet
  facet normal 0.998027 -0.0627905 0
    outer loop
      vertex 396.846 -1550.13 50
      vertex 396.846 -1550.13 0.05
      vertex 400 -1500 0.05
    endloop
  endfacet
  facet normal 0.998027 -0.0627905 0
    outer loop
      vertex 400 -1500 50
      vertex 396.846 -1550.13 50
      vertex 400 -1500 0.05
    endloop
  endfacet
  facet normal 1 0 0
    outer loop
      vertex 400 -1500 0.05
      vertex 400 -1500 0
      vertex 400 1500 0
    endloop
  endfacet
  facet normal 1 0 0
    outer loop
      vertex 400 1500 50
      vertex 400 -1500 0.05
      vertex 400 1500 0.05
    endloop
  endfacet
  facet normal 1 0 0
    outer loop
      vertex 400 1500 0.05
      vertex 400 -1500 0.05
      vertex 400 1500 0
    endloop
  endfacet
  facet normal 1 0 0
    outer loop
      vertex 400 -1500 50
      vertex 400 -1500 0.05
      vertex 400 1500 50
    endloop
  endfacet
  facet normal 0.998027 0.0627905 0
    outer loop
      vertex 400 1500 0.05
      vertex 396.846 1550.13 0.05
      vertex 396.846 1550.13 50
    endloop
  endfacet
  facet normal 0.998027 0.0627905 0
    outer loop
      vertex 400 1500 50
      vertex 400 1500 0.05
      vertex 396.846 1550.13 50
    endloop
  endfacet
  facet normal 0.982287 0.187381 0
    outer loop
      vertex 396.846 1550.13 0.05
      vertex 387.433 1599.48 0.05
      vertex 387.433 1599.48 50
    endloop
  endfacet
  facet normal 0.982287 0.187381 0
    outer loop
      vertex 396.846 1550.13 50
      vertex 396.846 1550.13 0.05
      vertex 387.433 1599.48 50
    endloop
  endfacet
  facet normal 0.951057 0.309017 0
    outer loop
      vertex 387.433 1599.48 0.05
      vertex 371.911 1647.25 0.05
      vertex 371.911 1647.25 50
    endloop
  endfacet
  facet normal 0.951057 0.309017 0
    outer loop
      vertex 387.433 1599.48 50
      vertex 387.433 1599.48 0.05
      vertex 371.911 1647.25 50
    endloop
  endfacet
  facet normal 0.904827 0.425779 0
    outer loop
      vertex 371.911 1647.25 0.05
      vertex 350.523 1692.7 0.05
      vertex 350.523 1692.7 50
    endloop
  endfacet
  facet normal 0.904827 0.425779 0
    outer loop
      vertex 371.911 1647.25 50
      vertex 371.911 1647.25 0.05
      vertex 350.523 1692.7 50
    endloop
  endfacet
  facet normal 0.844328 0.535827 0
    outer loop
      vertex 350.523 1692.7 0.05
      vertex 323.607 1735.11 0.05
      vertex 323.607 1735.11 50
    endloop
  endfacet
  facet normal 0.844328 0.535827 0
    outer loop
      vertex 350.523 1692.7 50
      vertex 350.523 1692.7 0.05
      vertex 323.607 1735.11 50
    endloop
  endfacet
  facet normal 0.770513 0.637424 0
    outer loop
      vertex 323.607 1735.11 0.05
      vertex 291.587 1773.82 0.05
      vertex 291.587 1773.82 50
    endloop
  endfacet
  facet normal 0.770513 0.637424 0
    outer loop
      vertex 323.607 1735.11 50
      vertex 323.607 1735.11 0.05
      vertex 291.587 1773.82 50
    endloop
  endfacet
  facet normal 0.684547 0.728969 0
    outer loop
      vertex 254.97 1808.21 0.05
      vertex 254.97 1808.21 50
      vertex 291.587 1773.82 0.05
    endloop
  endfacet
  facet normal 0.684547 0.728969 0
    outer loop
      vertex 291.587 1773.82 0.05
      vertex 254.97 1808.21 50
      vertex 291.587 1773.82 50
    endloop
  endfacet
  facet normal 0.587785 0.809017 0
    outer loop
      vertex 214.331 1837.73 0.05
      vertex 214.331 1837.73 50
      vertex 254.97 1808.21 0.05
    endloop
  endfacet
  facet normal 0.587785 0.809017 0
    outer loop
      vertex 254.97 1808.21 0.05
      vertex 214.331 1837.73 50
      vertex 254.97 1808.21 50
    endloop
  endfacet
  facet normal 0.481754 0.876307 0
    outer loop
      vertex 170.312 1861.93 0.05
      vertex 170.312 1861.93 50
      vertex 214.331 1837.73 0.05
    endloop
  endfacet
  facet normal 0.481754 0.876307 0
    outer loop
      vertex 214.331 1837.73 0.05
      vertex 170.312 1861.93 50
      vertex 214.331 1837.73 50
    endloop
  endfacet
  facet normal 0.368125 0.929776 0
    outer loop
      vertex 123.607 1880.42 0.05
      vertex 123.607 1880.42 50
      vertex 170.312 1861.93 0.05
    endloop
  endfacet
  facet normal 0.368125 0.929776 0
    outer loop
      vertex 170.312 1861.93 0.05
      vertex 123.607 1880.42 50
      vertex 170.312 1861.93 50
    endloop
  endfacet
  facet normal 0.24869 0.968583 0
    outer loop
      vertex 123.607 1880.42 50
      vertex 123.607 1880.42 0.05
      vertex 99.6 1886.59 50
    endloop
  endfacet
  facet normal 0.24869 0.968583 0
    outer loop
      vertex 123.607 1880.42 1100
      vertex 74.9525 1892.91 1199.95
      vertex 123.607 1880.42 1199.95
    endloop
  endfacet
  facet normal 0.24869 0.968583 0
    outer loop
      vertex 99.6 1886.59 1100
      vertex 74.9525 1892.91 1199.95
      vertex 123.607 1880.42 1100
    endloop
  endfacet
  facet normal 0.24869 0.968583 0
    outer loop
      vertex 74.9525 1892.91 0.05
      vertex 74.9525 1892.91 1199.95
      vertex 99.6 1886.59 50
    endloop
  endfacet
  facet normal 0.24869 0.968583 0
    outer loop
      vertex 74.9525 1892.91 0.05
      vertex 99.6 1886.59 50
      vertex 123.607 1880.42 0.05
    endloop
  endfacet
  facet normal 0.24869 0.968583 0
    outer loop
      vertex 99.6 1886.59 50
      vertex 74.9525 1892.91 1199.95
      vertex 99.6 1886.59 1100
    endloop
  endfacet
  facet normal 0.125333 0.992115 0
    outer loop
      vertex 25.1162 1899.21 0.05
      vertex 25.1162 1899.21 1199.95
      vertex 74.9525 1892.91 0.05
    endloop
  endfacet
  facet normal 0.125333 0.992115 0
    outer loop
      vertex 74.9525 1892.91 0.05
      vertex 25.1162 1899.21 1199.95
      vertex 74.9525 1892.91 1199.95
    endloop
  endfacet
  facet normal 0 1 0
    outer loop
      vertex -25.1162 1899.21 0.05
      vertex -25.1162 1899.21 1199.95
      vertex 25.1162 1899.21 0.05
    endloop
  endfacet
  facet normal 0 1 0
    outer loop
      vertex 25.1162 1899.21 0.05
      vertex -25.1162 1899.21 1199.95
      vertex 25.1162 1899.21 1199.95
    endloop
  endfacet
  facet normal -0.125333 0.992115 0
    outer loop
      vertex -74.9525 1892.91 0.05
      vertex -74.9525 1892.91 1199.95
      vertex -25.1162 1899.21 0.05
    endloop
  endfacet
  facet normal -0.125333 0.992115 0
    outer loop
      vertex -25.1162 1899.21 0.05
      vertex -74.9525 1892.91 1199.95
      vertex -25.1162 1899.21 1199.95
    endloop
  endfacet
  facet normal -0.24869 0.968583 0
    outer loop
      vertex -123.607 1880.42 0.05
      vertex -123.607 1880.42 50
      vertex -74.9525 1892.91 0.05
    endloop
  endfacet
  facet normal -0.24869 0.968583 0
    outer loop
      vertex -74.9525 1892.91 0.05
      vertex -123.607 1880.42 50
      vertex -100.1 1886.46 50
    endloop
  endfacet
  facet normal -0.24869 0.968583 0
    outer loop
      vertex -74.9525 1892.91 0.05
      vertex -100.1 1886.46 50
      vertex -100.1 1886.46 550
    endloop
  endfacet
  facet normal -0.24869 0.968583 0
    outer loop
      vertex -100.1 1886.46 550
      vertex -123.607 1880.42 550
      vertex -123.607 1880.42 600
    endloop
  endfacet
  facet normal -0.24869 0.968583 0
    outer loop
      vertex -100.1 1886.46 550
      vertex -123.607 1880.42 600
      vertex -100.1 1886.46 600
    endloop
  endfacet
  facet normal -0.24869 0.968583 0
    outer loop
      vertex -100.1 1886.46 550
      vertex -100.1 1886.46 600
      vertex -74.9525 1892.91 0.05
    endloop
  endfacet
  facet normal -0.24869 0.968583 0
    outer loop
      vertex -100.1 1886.46 600
      vertex -100.1 1886.46 1100
      vertex -74.9525 1892.91 0.05
    endloop
  endfacet
  facet normal -0.24869 0.968583 0
    outer loop
      vertex -100.1 1886.46 1100
      vertex -123.607 1880.42 1100
      vertex -123.607 1880.42 1199.95
    endloop
  endfacet
  facet normal -0.24869 0.968583 0
    outer loop
      vertex -100.1 1886.46 1100
      vertex -123.607 1880.42 1199.95
      vertex -74.9525 1892.91 1199.95
    endloop
  endfacet
  facet normal -0.24869 0.968583 0
    outer loop
      vertex -100.1 1886.46 1100
      vertex -74.9525 1892.91 1199.95
      vertex -74.9525 1892.91 0.05
    endloop
  endfacet
  facet normal -0.368125 0.929776 0
    outer loop
      vertex -170.312 1861.93 0.05
      vertex -170.312 1861.93 50
      vertex -123.607 1880.42 0.05
    endloop
  endfacet
  facet normal -0.368125 0.929776 0
    outer loop
      vertex -123.607 1880.42 0.05
      vertex -170.312 1861.93 50
      vertex -123.607 1880.42 50
    endloop
  endfacet
  facet normal -0.481754 0.876307 0
    outer loop
      vertex -214.331 1837.73 0.05
      vertex -214.331 1837.73 50
      vertex -170.312 1861.93 0.05
    endloop
  endfacet
  facet normal -0.481754 0.876307 0
    outer loop
      vertex -170.312 1861.93 0.05
      vertex -214.331 1837.73 50
      vertex -170.312 1861.93 50
    endloop
  endfacet
  facet normal -0.587785 0.809017 0
    outer loop
      vertex -254.97 1808.21 0.05
      vertex -254.97 1808.21 50
      vertex -214.331 1837.73 0.05
    endloop
  endfacet
  facet normal -0.587785 0.809017 0
    outer loop
      vertex -214.331 1837.73 0.05
      vertex -254.97 1808.21 50
      vertex -214.331 1837.73 50
    endloop
  endfacet
  facet normal -0.684547 0.728969 0
    outer loop
      vertex -291.587 1773.82 0.05
      vertex -291.587 1773.82 50
      vertex -254.97 1808.21 0.05
    endloop
  endfacet
  facet normal -0.684547 0.728969 0
    outer loop
      vertex -254.97 1808.21 0.05
      vertex -291.587 1773.82 50
      vertex -254.97 1808.21 50
    endloop
  endfacet
  facet normal -0.770513 0.637424 0
    outer loop
      vertex -323.607 1735.11 0.05
      vertex -323.607 1735.11 50
      vertex -291.587 1773.82 0.05
    endloop
  endfacet
  facet normal -0.770513 0.637424 0
    outer loop
      vertex -291.587 1773.82 0.05
      vertex -323.607 1735.11 50
      vertex -291.587 1773.82 50
    endloop
  endfacet
  facet normal -0.844328 0.535827 0
    outer loop
      vertex -350.523 1692.7 0.05
      vertex -350.523 1692.7 50
      vertex -323.607 1735.11 0.05
    endloop
  endfacet
  facet normal -0.844328 0.535827 0
    outer loop
      vertex -323.607 1735.11 0.05
      vertex -350.523 1692.7 50
      vertex -323.607 1735.11 50
    endloop
  endfacet
  facet normal -0.904827 0.425779 0
    outer loop
      vertex -371.911 1647.25 0.05
      vertex -371.911 1647.25 50
      vertex -350.523 1692.7 0.05
    endloop
  endfacet
  facet normal -0.904827 0.425779 0
    outer loop
      vertex -350.523 1692.7 0.05
      vertex -371.911 1647.25 50
      vertex -350.523 1692.7 50
    endloop
  endfacet
  facet normal -0.951057 0.309017 0
    outer loop
      vertex -387.433 1599.48 0.05
      vertex -387.433 1599.48 50
      vertex -371.911 1647.25 0.05
    endloop
  endfacet
  facet normal -0.951057 0.309017 0
    outer loop
      vertex -371.911 1647.25 0.05
      vertex -387.433 1599.48 50
      vertex -371.911 1647.25 50
    endloop
  endfacet
  facet normal -0.982287 0.187381 0
    outer loop
      vertex -396.846 1550.13 0.05
      vertex -396.846 1550.13 50
      vertex -387.433 1599.48 0.05
    endloop
  endfacet
  facet normal -0.982287 0.187381 0
    outer loop
      vertex -387.433 1599.48 0.05
      vertex -396.846 1550.13 50
      vertex -387.433 1599.48 50
    endloop
  endfacet
  facet normal -0.982287 -0.187381 0
    outer loop
      vertex -396.846 -1550.13 0.05
      vertex -387.433 -1599.48 0.05
      vertex -396.846 -1550.13 50
    endloop
  endfacet
  facet normal -0.982287 -0.187381 0
    outer loop
      vertex -396.846 -1550.13 50
      vertex -387.433 -1599.48 0.05
      vertex -387.433 -1599.48 50
    endloop
  endfacet
  facet normal -1 0 0
    outer loop
      vertex -100.1 1886.46 550
      vertex -100.1 1886.46 50
      vertex -100.1 -1886.46 550
    endloop
  endfacet
  facet normal -1 0 0
    outer loop
      vertex -100.1 -1886.46 550
      vertex -100.1 1886.46 50
      vertex -100.1 -1886.46 50
    endloop
  endfacet
  facet normal -0.24869 -0.968583 0
    outer loop
      vertex -123.607 -1880.42 50
      vertex -123.607 -1880.42 0.05
      vertex -74.9525 -1892.91 0.05
    endloop
  endfacet
  facet normal -0.24869 -0.968583 0
    outer loop
      vertex -100.1 -1886.46 50
      vertex -123.607 -1880.42 50
      vertex -74.9525 -1892.91 0.05
    endloop
  endfacet
  facet normal -0.24869 -0.968583 0
    outer loop
      vertex -123.607 -1880.42 1199.95
      vertex -123.607 -1880.42 1100
      vertex -74.9525 -1892.91 1199.95
    endloop
  endfacet
  facet normal -0.24869 -0.968583 0
    outer loop
      vertex -123.607 -1880.42 1100
      vertex -100.1 -1886.46 1100
      vertex -74.9525 -1892.91 1199.95
    endloop
  endfacet
  facet normal -0.24869 -0.968583 0
    outer loop
      vertex -123.607 -1880.42 550
      vertex -100.1 -1886.46 550
      vertex -100.1 -1886.46 600
    endloop
  endfacet
  facet normal -0.24869 -0.968583 0
    outer loop
      vertex -74.9525 -1892.91 1199.95
      vertex -100.1 -1886.46 600
      vertex -74.9525 -1892.91 0.05
    endloop
  endfacet
  facet normal -0.24869 -0.968583 0
    outer loop
      vertex -100.1 -1886.46 600
      vertex -100.1 -1886.46 550
      vertex -74.9525 -1892.91 0.05
    endloop
  endfacet
  facet normal -0.24869 -0.968583 0
    outer loop
      vertex -100.1 -1886.46 550
      vertex -100.1 -1886.46 50
      vertex -74.9525 -1892.91 0.05
    endloop
  endfacet
  facet normal -0.24869 -0.968583 0
    outer loop
      vertex -100.1 -1886.46 1100
      vertex -100.1 -1886.46 600
      vertex -74.9525 -1892.91 1199.95
    endloop
  endfacet
  facet normal -0.24869 -0.968583 0
    outer loop
      vertex -100.1 -1886.46 600
      vertex -123.607 -1880.42 600
      vertex -123.607 -1880.42 550
    endloop
  endfacet
  facet normal -0.368125 -0.929776 0
    outer loop
      vertex -170.312 -1861.93 50
      vertex -170.312 -1861.93 0.05
      vertex -123.607 -1880.42 0.05
    endloop
  endfacet
  facet normal -0.368125 -0.929776 0
    outer loop
      vertex -123.607 -1880.42 50
      vertex -170.312 -1861.93 50
      vertex -123.607 -1880.42 0.05
    endloop
  endfacet
  facet normal -0.481754 -0.876307 0
    outer loop
      vertex -214.331 -1837.73 50
      vertex -214.331 -1837.73 0.05
      vertex -170.312 -1861.93 0.05
    endloop
  endfacet
  facet normal -0.481754 -0.876307 0
    outer loop
      vertex -170.312 -1861.93 50
      vertex -214.331 -1837.73 50
      vertex -170.312 -1861.93 0.05
    endloop
  endfacet
  facet normal -0.587785 -0.809017 0
    outer loop
      vertex -254.97 -1808.21 50
      vertex -254.97 -1808.21 0.05
      vertex -214.331 -1837.73 0.05
    endloop
  endfacet
  facet normal -0.587785 -0.809017 0
    outer loop
      vertex -214.331 -1837.73 50
      vertex -254.97 -1808.21 50
      vertex -214.331 -1837.73 0.05
    endloop
  endfacet
  facet normal -0.684547 -0.728969 0
    outer loop
      vertex -291.587 -1773.82 50
      vertex -291.587 -1773.82 0.05
      vertex -254.97 -1808.21 0.05
    endloop
  endfacet
  facet normal -0.684547 -0.728969 0
    outer loop
      vertex -254.97 -1808.21 50
      vertex -291.587 -1773.82 50
      vertex -254.97 -1808.21 0.05
    endloop
  endfacet
  facet normal -0.770513 -0.637424 0
    outer loop
      vertex -323.607 -1735.11 0.05
      vertex -291.587 -1773.82 0.05
      vertex -323.607 -1735.11 50
    endloop
  endfacet
  facet normal -0.770513 -0.637424 0
    outer loop
      vertex -323.607 -1735.11 50
      vertex -291.587 -1773.82 0.05
      vertex -291.587 -1773.82 50
    endloop
  endfacet
  facet normal -0.844328 -0.535827 0
    outer loop
      vertex -350.523 -1692.7 0.05
      vertex -323.607 -1735.11 0.05
      vertex -350.523 -1692.7 50
    endloop
  endfacet
  facet normal -0.844328 -0.535827 0
    outer loop
      vertex -350.523 -1692.7 50
      vertex -323.607 -1735.11 0.05
      vertex -323.607 -1735.11 50
    endloop
  endfacet
  facet normal -0.904827 -0.425779 0
    outer loop
      vertex -371.911 -1647.25 0.05
      vertex -350.523 -1692.7 0.05
      vertex -371.911 -1647.25 50
    endloop
  endfacet
  facet normal -0.904827 -0.425779 0
    outer loop
      vertex -371.911 -1647.25 50
      vertex -350.523 -1692.7 0.05
      vertex -350.523 -1692.7 50
    endloop
  endfacet
  facet normal -0.951057 -0.309017 0
    outer loop
      vertex -387.433 -1599.48 0.05
      vertex -371.911 -1647.25 0.05
      vertex -387.433 -1599.48 50
    endloop
  endfacet
  facet normal -0.951057 -0.309017 0
    outer loop
      vertex -387.433 -1599.48 50
      vertex -371.911 -1647.25 0.05
      vertex -371.911 -1647.25 50
    endloop
  endfacet
  facet normal -0.125333 -0.992115 0
    outer loop
      vertex -74.9525 -1892.91 1199.95
      vertex -74.9525 -1892.91 0.05
      vertex -25.1162 -1899.21 0.05
    endloop
  endfacet
  facet normal -0.125333 -0.992115 0
    outer loop
      vertex -25.1162 -1899.21 1199.95
      vertex -74.9525 -1892.91 1199.95
      vertex -25.1162 -1899.21 0.05
    endloop
  endfacet
  facet normal 0 -1 0
    outer loop
      vertex -25.1162 -1899.21 1199.95
      vertex -25.1162 -1899.21 0.05
      vertex 25.1162 -1899.21 0.05
    endloop
  endfacet
  facet normal 0 -1 0
    outer loop
      vertex 25.1162 -1899.21 1199.95
      vertex -25.1162 -1899.21 1199.95
      vertex 25.1162 -1899.21 0.05
    endloop
  endfacet
  facet normal 0.125333 -0.992115 0
    outer loop
      vertex 25.1162 -1899.21 1199.95
      vertex 25.1162 -1899.21 0.05
      vertex 74.9525 -1892.91 0.05
    endloop
  endfacet
  facet normal 0.125333 -0.992115 0
    outer loop
      vertex 74.9525 -1892.91 1199.95
      vertex 25.1162 -1899.21 1199.95
      vertex 74.9525 -1892.91 0.05
    endloop
  endfacet
  facet normal 0.24869 -0.968583 0
    outer loop
      vertex 99.6 -1886.59 50
      vertex 74.9525 -1892.91 0.05
      vertex 123.607 -1880.42 0.05
    endloop
  endfacet
  facet normal 0.24869 -0.968583 0
    outer loop
      vertex 99.6 -1886.59 50
      vertex 99.6 -1886.59 1100
      vertex 74.9525 -1892.91 1199.95
    endloop
  endfacet
  facet normal 0.24869 -0.968583 0
    outer loop
      vertex 74.9525 -1892.91 1199.95
      vertex 74.9525 -1892.91 0.05
      vertex 99.6 -1886.59 50
    endloop
  endfacet
  facet normal 0.24869 -0.968583 0
    outer loop
      vertex 123.607 -1880.42 1100
      vertex 74.9525 -1892.91 1199.95
      vertex 99.6 -1886.59 1100
    endloop
  endfacet
  facet normal 0.24869 -0.968583 0
    outer loop
      vertex 123.607 -1880.42 1199.95
      vertex 74.9525 -1892.91 1199.95
      vertex 123.607 -1880.42 1100
    endloop
  endfacet
  facet normal 0.24869 -0.968583 0
    outer loop
      vertex 123.607 -1880.42 50
      vertex 99.6 -1886.59 50
      vertex 123.607 -1880.42 0.05
    endloop
  endfacet
  facet normal 0.368125 -0.929776 0
    outer loop
      vertex 123.607 -1880.42 50
      vertex 123.607 -1880.42 0.05
      vertex 170.312 -1861.93 0.05
    endloop
  endfacet
  facet normal 0.368125 -0.929776 0
    outer loop
      vertex 170.312 -1861.93 50
      vertex 123.607 -1880.42 50
      vertex 170.312 -1861.93 0.05
    endloop
  endfacet
  facet normal 0.481754 -0.876307 0
    outer loop
      vertex 170.312 -1861.93 50
      vertex 170.312 -1861.93 0.05
      vertex 214.331 -1837.73 0.05
    endloop
  endfacet
  facet normal 0.481754 -0.876307 0
    outer loop
      vertex 214.331 -1837.73 50
      vertex 170.312 -1861.93 50
      vertex 214.331 -1837.73 0.05
    endloop
  endfacet
  facet normal 0.587785 -0.809017 0
    outer loop
      vertex 214.331 -1837.73 50
      vertex 214.331 -1837.73 0.05
      vertex 254.97 -1808.21 0.05
    endloop
  endfacet
  facet normal 0.587785 -0.809017 0
    outer loop
      vertex 254.97 -1808.21 50
      vertex 214.331 -1837.73 50
      vertex 254.97 -1808.21 0.05
    endloop
  endfacet
  facet normal 0.684547 -0.728969 0
    outer loop
      vertex 254.97 -1808.21 50
      vertex 254.97 -1808.21 0.05
      vertex 291.587 -1773.82 0.05
    endloop
  endfacet
  facet normal 0.684547 -0.728969 0
    outer loop
      vertex 291.587 -1773.82 50
      vertex 254.97 -1808.21 50
      vertex 291.587 -1773.82 0.05
    endloop
  endfacet
  facet normal 0.770513 -0.637424 0
    outer loop
      vertex 291.587 -1773.82 50
      vertex 291.587 -1773.82 0.05
      vertex 323.607 -1735.11 0.05
    endloop
  endfacet
  facet normal 0.770513 -0.637424 0
    outer loop
      vertex 323.607 -1735.11 50
      vertex 291.587 -1773.82 50
      vertex 323.607 -1735.11 0.05
    endloop
  endfacet
  facet normal 0.844328 -0.535827 0
    outer loop
      vertex 323.607 -1735.11 50
      vertex 323.607 -1735.11 0.05
      vertex 350.523 -1692.7 0.05
    endloop
  endfacet
  facet normal 0.844328 -0.535827 0
    outer loop
      vertex 350.523 -1692.7 50
      vertex 323.607 -1735.11 50
      vertex 350.523 -1692.7 0.05
    endloop
  endfacet
  facet normal 0.904827 -0.425779 0
    outer loop
      vertex 350.523 -1692.7 50
      vertex 350.523 -1692.7 0.05
      vertex 371.911 -1647.25 0.05
    endloop
  endfacet
  facet normal 0.904827 -0.425779 0
    outer loop
      vertex 371.911 -1647.25 50
      vertex 350.523 -1692.7 50
      vertex 371.911 -1647.25 0.05
    endloop
  endfacet
  facet normal 0.951057 -0.309017 0
    outer loop
      vertex 371.911 -1647.25 50
      vertex 371.911 -1647.25 0.05
      vertex 387.433 -1599.48 0.05
    endloop
  endfacet
  facet normal 0.951057 -0.309017 0
    outer loop
      vertex 387.433 -1599.48 50
      vertex 371.911 -1647.25 50
      vertex 387.433 -1599.48 0.05
    endloop
  endfacet
  facet normal 0.982287 -0.187381 0
    outer loop
      vertex 387.433 -1599.48 50
      vertex 387.433 -1599.48 0.05
      vertex 396.846 -1550.13 0.05
    endloop
  endfacet
  facet normal 0.982287 -0.187381 0
    outer loop
      vertex 396.846 -1550.13 50
      vertex 387.433 -1599.48 50
      vertex 396.846 -1550.13 0.05
    endloop
  endfacet
  facet normal 0 0 1
    outer loop
      vertex 123.607 -1880.42 50
      vertex 170.312 -1861.93 50
      vertex 214.331 -1837.73 50
    endloop
  endfacet
  facet normal 0 0 1
    outer loop
      vertex 291.587 -1773.82 50
      vertex 123.607 -1880.42 50
      vertex 254.97 -1808.21 50
    endloop
  endfacet
  facet normal 0 0 1
    outer loop
      vertex 254.97 -1808.21 50
      vertex 123.607 -1880.42 50
      vertex 214.331 -1837.73 50
    endloop
  endfacet
  facet normal 0 0 1
    outer loop
      vertex 323.607 -1735.11 50
      vertex 123.607 -1880.42 50
      vertex 291.587 -1773.82 50
    endloop
  endfacet
  facet normal 0 0 1
    outer loop
      vertex 350.523 -1692.7 50
      vertex 123.607 -1880.42 50
      vertex 323.607 -1735.11 50
    endloop
  endfacet
  facet normal 0 0 1
    outer loop
      vertex 371.911 -1647.25 50
      vertex 123.607 -1880.42 50
      vertex 350.523 -1692.7 50
    endloop
  endfacet
  facet normal 0 0 1
    outer loop
      vertex 387.433 -1599.48 50
      vertex 123.607 -1880.42 50
      vertex 371.911 -1647.25 50
    endloop
  endfacet
  facet normal 0 0 1
    outer loop
      vertex 396.846 -1550.13 50
      vertex 123.607 -1880.42 50
      vertex 387.433 -1599.48 50
    endloop
  endfacet
  facet normal 0 0 1
    outer loop
      vertex 400 -1500 50
      vertex 123.607 -1880.42 50
      vertex 396.846 -1550.13 50
    endloop
  endfacet
  facet normal 0 0 1
    outer loop
      vertex 400 1500 50
      vertex 123.607 -1880.42 50
      vertex 400 -1500 50
    endloop
  endfacet
  facet normal 0 0 1
    outer loop
      vertex 396.846 1550.13 50
      vertex 123.607 -1880.42 50
      vertex 400 1500 50
    endloop
  endfacet
  facet normal 0 0 1
    outer loop
      vertex 387.433 1599.48 50
      vertex 123.607 -1880.42 50
      vertex 396.846 1550.13 50
    endloop
  endfacet
  facet normal 0 0 1
    outer loop
      vertex 371.911 1647.25 50
      vertex 123.607 -1880.42 50
      vertex 387.433 1599.48 50
    endloop
  endfacet
  facet normal 0 0 1
    outer loop
      vertex 350.523 1692.7 50
      vertex 123.607 -1880.42 50
      vertex 371.911 1647.25 50
    endloop
  endfacet
  facet normal 0 0 1
    outer loop
      vertex 323.607 1735.11 50
      vertex 123.607 -1880.42 50
      vertex 350.523 1692.7 50
    endloop
  endfacet
  facet normal 0 0 1
    outer loop
      vertex 291.587 1773.82 50
      vertex 123.607 -1880.42 50
      vertex 323.607 1735.11 50
    endloop
  endfacet
  facet normal 0 0 1
    outer loop
      vertex 254.97 1808.21 50
      vertex 123.607 -1880.42 50
      vertex 291.587 1773.82 50
    endloop
  endfacet
  facet normal 0 0 1
    outer loop
      vertex 214.331 1837.73 50
      vertex 123.607 -1880.42 50
      vertex 254.97 1808.21 50
    endloop
  endfacet
  facet normal 0 0 1
    outer loop
      vertex 170.312 1861.93 50
      vertex 123.607 -1880.42 50
      vertex 214.331 1837.73 50
    endloop
  endfacet
  facet normal 0 0 1
    outer loop
      vertex 123.607 1880.42 50
      vertex 123.607 -1880.42 50
      vertex 170.312 1861.93 50
    endloop
  endfacet
  facet normal 0 0 1
    outer loop
      vertex 99.6 1886.59 50
      vertex 123.607 -1880.42 50
      vertex 123.607 1880.42 50
    endloop
  endfacet
  facet normal 0 0 1
    outer loop
      vertex 99.6 -1886.59 50
      vertex 123.607 -1880.42 50
      vertex 99.6 1886.59 50
    endloop
  endfacet
  facet normal 1 0 0
    outer loop
      vertex 99.6 1886.59 50
      vertex 99.6 1886.59 1100
      vertex 99.6 -1886.59 1100
    endloop
  endfacet
  facet normal 1 0 0
    outer loop
      vertex 99.6 -1886.59 50
      vertex 99.6 1886.59 50
      vertex 99.6 -1886.59 1100
    endloop
  endfacet
  facet normal 0 0 -1
    outer loop
      vertex 123.607 1880.42 1100
      vertex 170.312 1861.93 1100
      vertex 99.6 1886.59 1100
    endloop
  endfacet
  facet normal 0 0 -1
    outer loop
      vertex 99.6 1886.59 1100
      vertex 170.312 1861.93 1100
      vertex 214.331 1837.73 1100
    endloop
  endfacet
  facet normal 0 0 -1
    outer loop
      vertex 99.6 1886.59 1100
      vertex 214.331 1837.73 1100
      vertex 254.97 1808.21 1100
    endloop
  endfacet
  facet normal 0 0 -1
    outer loop
      vertex 99.6 1886.59 1100
      vertex 254.97 1808.21 1100
      vertex 291.587 1773.82 1100
    endloop
  endfacet
  facet normal 0 0 -1
    outer loop
      vertex 99.6 1886.59 1100
      vertex 291.587 1773.82 1100
      vertex 323.607 1735.11 1100
    endloop
  endfacet
  facet normal 0 0 -1
    outer loop
      vertex 99.6 1886.59 1100
      vertex 323.607 1735.11 1100
      vertex 350.523 1692.7 1100
    endloop
  endfacet
  facet normal 0 0 -1
    outer loop
      vertex 99.6 1886.59 1100
      vertex 350.523 1692.7 1100
      vertex 371.911 1647.25 1100
    endloop
  endfacet
  facet normal 0 0 -1
    outer loop
      vertex 99.6 1886.59 1100
      vertex 371.911 1647.25 1100
      vertex 387.433 1599.48 1100
    endloop
  endfacet
  facet normal 0 0 -1
    outer loop
      vertex 99.6 1886.59 1100
      vertex 387.433 1599.48 1100
      vertex 396.846 1550.13 1100
    endloop
  endfacet
  facet normal 0 0 -1
    outer loop
      vertex 99.6 1886.59 1100
      vertex 396.846 1550.13 1100
      vertex 400 1500 1100
    endloop
  endfacet
  facet normal 0 0 -1
    outer loop
      vertex 99.6 1886.59 1100
      vertex 400 1500 1100
      vertex 400 -1500 1100
    endloop
  endfacet
  facet normal 0 0 -1
    outer loop
      vertex 99.6 1886.59 1100
      vertex 400 -1500 1100
      vertex 396.846 -1550.13 1100
    endloop
  endfacet
  facet normal 0 0 -1
    outer loop
      vertex 99.6 1886.59 1100
      vertex 396.846 -1550.13 1100
      vertex 387.433 -1599.48 1100
    endloop
  endfacet
  facet normal 0 0 -1
    outer loop
      vertex 99.6 1886.59 1100
      vertex 387.433 -1599.48 1100
      vertex 371.911 -1647.25 1100
    endloop
  endfacet
  facet normal 0 0 -1
    outer loop
      vertex 99.6 1886.59 1100
      vertex 371.911 -1647.25 1100
      vertex 350.523 -1692.7 1100
    endloop
  endfacet
  facet normal 0 0 -1
    outer loop
      vertex 99.6 1886.59 1100
      vertex 350.523 -1692.7 1100
      vertex 323.607 -1735.11 1100
    endloop
  endfacet
  facet normal 0 0 -1
    outer loop
      vertex 99.6 1886.59 1100
      vertex 323.607 -1735.11 1100
      vertex 291.587 -1773.82 1100
    endloop
  endfacet
  facet normal 0 0 -1
    outer loop
      vertex 99.6 1886.59 1100
      vertex 291.587 -1773.82 1100
      vertex 254.97 -1808.21 1100
    endloop
  endfacet
  facet normal 0 0 -1
    outer loop
      vertex 99.6 1886.59 1100
      vertex 254.97 -1808.21 1100
      vertex 214.331 -1837.73 1100
    endloop
  endfacet
  facet normal 0 0 -1
    outer loop
      vertex 99.6 1886.59 1100
      vertex 214.331 -1837.73 1100
      vertex 170.312 -1861.93 1100
    endloop
  endfacet
  facet normal 0 0 -1
    outer loop
      vertex 99.6 1886.59 1100
      vertex 170.312 -1861.93 1100
      vertex 123.607 -1880.42 1100
    endloop
  endfacet
  facet normal 0 0 -1
    outer loop
      vertex 99.6 1886.59 1100
      vertex 123.607 -1880.42 1100
      vertex 99.6 -1886.59 1100
    endloop
  endfacet
  facet normal 0.368125 0.929776 0
    outer loop
      vertex 123.607 1880.42 1100
      vertex 123.607 1880.42 1199.95
      vertex 170.312 1861.93 1100
    endloop
  endfacet
  facet normal 0.368125 0.929776 0
    outer loop
      vertex 170.312 1861.93 1100
      vertex 123.607 1880.42 1199.95
      vertex 170.312 1861.93 1199.95
    endloop
  endfacet
  facet normal 0 0 1
    outer loop
      vertex -396.846 1550.13 1199.95
      vertex -400 1500 1199.95
      vertex 400 1500 1199.95
    endloop
  endfacet
  facet normal 0 0 1
    outer loop
      vertex 387.433 1599.48 1199.95
      vertex -396.846 1550.13 1199.95
      vertex 396.846 1550.13 1199.95
    endloop
  endfacet
  facet normal 0 0 1
    outer loop
      vertex 396.846 1550.13 1199.95
      vertex -396.846 1550.13 1199.95
      vertex 400 1500 1199.95
    endloop
  endfacet
  facet normal 0 0 1
    outer loop
      vertex 371.911 1647.25 1199.95
      vertex -396.846 1550.13 1199.95
      vertex 387.433 1599.48 1199.95
    endloop
  endfacet
  facet normal 0 0 1
    outer loop
      vertex 350.523 1692.7 1199.95
      vertex -396.846 1550.13 1199.95
      vertex 371.911 1647.25 1199.95
    endloop
  endfacet
  facet normal 0 0 1
    outer loop
      vertex 323.607 1735.11 1199.95
      vertex -396.846 1550.13 1199.95
      vertex 350.523 1692.7 1199.95
    endloop
  endfacet
  facet normal 0 0 1
    outer loop
      vertex 291.587 1773.82 1199.95
      vertex -396.846 1550.13 1199.95
      vertex 323.607 1735.11 1199.95
    endloop
  endfacet
  facet normal 0 0 1
    outer loop
      vertex 254.97 1808.21 1199.95
      vertex -396.846 1550.13 1199.95
      vertex 291.587 1773.82 1199.95
    endloop
  endfacet
  facet normal 0 0 1
    outer loop
      vertex 214.331 1837.73 1199.95
      vertex -396.846 1550.13 1199.95
      vertex 254.97 1808.21 1199.95
    endloop
  endfacet
  facet normal 0 0 1
    outer loop
      vertex 170.312 1861.93 1199.95
      vertex -396.846 1550.13 1199.95
      vertex 214.331 1837.73 1199.95
    endloop
  endfacet
  facet normal 0 0 1
    outer loop
      vertex 123.607 1880.42 1199.95
      vertex -396.846 1550.13 1199.95
      vertex 170.312 1861.93 1199.95
    endloop
  endfacet
  facet normal 0 0 1
    outer loop
      vertex 74.9525 1892.91 1199.95
      vertex -396.846 1550.13 1199.95
      vertex 123.607 1880.42 1199.95
    endloop
  endfacet
  facet normal 0 0 1
    outer loop
      vertex 25.1162 1899.21 1199.95
      vertex -396.846 1550.13 1199.95
      vertex 74.9525 1892.91 1199.95
    endloop
  endfacet
  facet normal 0 0 1
    outer loop
      vertex -25.1162 1899.21 1199.95
      vertex -396.846 1550.13 1199.95
      vertex 25.1162 1899.21 1199.95
    endloop
  endfacet
  facet normal 0 0 1
    outer loop
      vertex -74.9525 1892.91 1199.95
      vertex -396.846 1550.13 1199.95
      vertex -25.1162 1899.21 1199.95
    endloop
  endfacet
  facet normal 0 0 1
    outer loop
      vertex -123.607 1880.42 1199.95
      vertex -396.846 1550.13 1199.95
      vertex -74.9525 1892.91 1199.95
    endloop
  endfacet
  facet normal 0 0 1
    outer loop
      vertex -170.312 1861.93 1199.95
      vertex -396.846 1550.13 1199.95
      vertex -123.607 1880.42 1199.95
    endloop
  endfacet
  facet normal 0 0 1
    outer loop
      vertex -214.331 1837.73 1199.95
      vertex -396.846 1550.13 1199.95
      vertex -170.312 1861.93 1199.95
    endloop
  endfacet
  facet normal 0 0 1
    outer loop
      vertex -254.97 1808.21 1199.95
      vertex -396.846 1550.13 1199.95
      vertex -214.331 1837.73 1199.95
    endloop
  endfacet
  facet normal 0 0 1
    outer loop
      vertex -291.587 1773.82 1199.95
      vertex -396.846 1550.13 1199.95
      vertex -254.97 1808.21 1199.95
    endloop
  endfacet
  facet normal 0 0 1
    outer loop
      vertex -323.607 1735.11 1199.95
      vertex -396.846 1550.13 1199.95
      vertex -291.587 1773.82 1199.95
    endloop
  endfacet
  facet normal 0 0 1
    outer loop
      vertex -350.523 1692.7 1199.95
      vertex -396.846 1550.13 1199.95
      vertex -323.607 1735.11 1199.95
    endloop
  endfacet
  facet normal 0 0 1
    outer loop
      vertex -371.911 1647.25 1199.95
      vertex -396.846 1550.13 1199.95
      vertex -350.523 1692.7 1199.95
    endloop
  endfacet
  facet normal 0 0 1
    outer loop
      vertex -387.433 1599.48 1199.95
      vertex -396.846 1550.13 1199.95
      vertex -371.911 1647.25 1199.95
    endloop
  endfacet
  facet normal -0.368125 0.929776 0
    outer loop
      vertex -170.312 1861.93 1100
      vertex -170.312 1861.93 1199.95
      vertex -123.607 1880.42 1100
    endloop
  endfacet
  facet normal -0.368125 0.929776 0
    outer loop
      vertex -123.607 1880.42 1100
      vertex -170.312 1861.93 1199.95
      vertex -123.607 1880.42 1199.95
    endloop
  endfacet
  facet normal 0 0 -1
    outer loop
      vertex -396.846 1550.13 1100
      vertex -387.433 1599.48 1100
      vertex -400 1500 1100
    endloop
  endfacet
  facet normal 0 0 -1
    outer loop
      vertex -400 1500 1100
      vertex -387.433 1599.48 1100
      vertex -371.911 1647.25 1100
    endloop
  endfacet
  facet normal 0 0 -1
    outer loop
      vertex -400 1500 1100
      vertex -371.911 1647.25 1100
      vertex -350.523 1692.7 1100
    endloop
  endfacet
  facet normal 0 0 -1
    outer loop
      vertex -400 1500 1100
      vertex -350.523 1692.7 1100
      vertex -323.607 1735.11 1100
    endloop
  endfacet
  facet normal 0 0 -1
    outer loop
      vertex -400 1500 1100
      vertex -323.607 1735.11 1100
      vertex -291.587 1773.82 1100
    endloop
  endfacet
  facet normal 0 0 -1
    outer loop
      vertex -400 1500 1100
      vertex -291.587 1773.82 1100
      vertex -254.97 1808.21 1100
    endloop
  endfacet
  facet normal 0 0 -1
    outer loop
      vertex -400 1500 1100
      vertex -254.97 1808.21 1100
      vertex -214.331 1837.73 1100
    endloop
  endfacet
  facet normal 0 0 -1
    outer loop
      vertex -400 1500 1100
      vertex -214.331 1837.73 1100
      vertex -170.312 1861.93 1100
    endloop
  endfacet
  facet normal 0 0 -1
    outer loop
      vertex -400 1500 1100
      vertex -170.312 1861.93 1100
      vertex -123.607 1880.42 1100
    endloop
  endfacet
  facet normal 0 0 -1
    outer loop
      vertex -400 1500 1100
      vertex -123.607 1880.42 1100
      vertex -100.1 1886.46 1100
    endloop
  endfacet
  facet normal 0 0 -1
    outer loop
      vertex -400 1500 1100
      vertex -100.1 1886.46 1100
      vertex -100.1 -1886.46 1100
    endloop
  endfacet
  facet normal 0 0 -1
    outer loop
      vertex -400 1500 1100
      vertex -100.1 -1886.46 1100
      vertex -123.607 -1880.42 1100
    endloop
  endfacet
  facet normal 0 0 -1
    outer loop
      vertex -400 1500 1100
      vertex -123.607 -1880.42 1100
      vertex -170.312 -1861.93 1100
    endloop
  endfacet
  facet normal 0 0 -1
    outer loop
      vertex -400 1500 1100
      vertex -170.312 -1861.93 1100
      vertex -214.331 -1837.73 1100
    endloop
  endfacet
  facet normal 0 0 -1
    outer loop
      vertex -400 1500 1100
      vertex -214.331 -1837.73 1100
      vertex -254.97 -1808.21 1100
    endloop
  endfacet
  facet normal 0 0 -1
    outer loop
      vertex -400 1500 1100
      vertex -254.97 -1808.21 1100
      vertex -291.587 -1773.82 1100
    endloop
  endfacet
  facet normal 0 0 -1
    outer loop
      vertex -400 1500 1100
      vertex -291.587 -1773.82 1100
      vertex -323.607 -1735.11 1100
    endloop
  endfacet
  facet normal 0 0 -1
    outer loop
      vertex -400 1500 1100
      vertex -323.607 -1735.11 1100
      vertex -350.523 -1692.7 1100
    endloop
  endfacet
  facet normal 0 0 -1
    outer loop
      vertex -400 1500 1100
      vertex -350.523 -1692.7 1100
      vertex -371.911 -1647.25 1100
    endloop
  endfacet
  facet normal 0 0 -1
    outer loop
      vertex -400 1500 1100
      vertex -371.911 -1647.25 1100
      vertex -387.433 -1599.48 1100
    endloop
  endfacet
  facet normal 0 0 -1
    outer loop
      vertex -400 1500 1100
      vertex -387.433 -1599.48 1100
      vertex -396.846 -1550.13 1100
    endloop
  endfacet
  facet normal 0 0 -1
    outer loop
      vertex -400 1500 1100
      vertex -396.846 -1550.13 1100
      vertex -400 -1500 1100
    endloop
  endfacet
  facet normal -1 0 0
    outer loop
      vertex -100.1 1886.46 1100
      vertex -100.1 1886.46 600
      vertex -100.1 -1886.46 1100
    endloop
  endfacet
  facet normal -1 0 0
    outer loop
      vertex -100.1 -1886.46 1100
      vertex -100.1 1886.46 600
      vertex -100.1 -1886.46 600
    endloop
  endfacet
  facet normal 0 0 1
    outer loop
      vertex -396.846 -1550.13 600
      vertex -387.433 -1599.48 600
      vertex -371.911 -1647.25 600
    endloop
  endfacet
  facet normal 0 0 1
    outer loop
      vertex -323.607 -1735.11 600
      vertex -396.846 -1550.13 600
      vertex -350.523 -1692.7 600
    endloop
  endfacet
  facet normal 0 0 1
    outer loop
      vertex -350.523 -1692.7 600
      vertex -396.846 -1550.13 600
      vertex -371.911 -1647.25 600
    endloop
  endfacet
  facet normal 0 0 1
    outer loop
      vertex -291.587 -1773.82 600
      vertex -396.846 -1550.13 600
      vertex -323.607 -1735.11 600
    endloop
  endfacet
  facet normal 0 0 1
    outer loop
      vertex -254.97 -1808.21 600
      vertex -396.846 -1550.13 600
      vertex -291.587 -1773.82 600
    endloop
  endfacet
  facet normal 0 0 1
    outer loop
      vertex -214.331 -1837.73 600
      vertex -396.846 -1550.13 600
      vertex -254.97 -1808.21 600
    endloop
  endfacet
  facet normal 0 0 1
    outer loop
      vertex -170.312 -1861.93 600
      vertex -396.846 -1550.13 600
      vertex -214.331 -1837.73 600
    endloop
  endfacet
  facet normal 0 0 1
    outer loop
      vertex -123.607 -1880.42 600
      vertex -396.846 -1550.13 600
      vertex -170.312 -1861.93 600
    endloop
  endfacet
  facet normal 0 0 1
    outer loop
      vertex -100.1 -1886.46 600
      vertex -396.846 -1550.13 600
      vertex -123.607 -1880.42 600
    endloop
  endfacet
  facet normal 0 0 1
    outer loop
      vertex -100.1 1886.46 600
      vertex -396.846 -1550.13 600
      vertex -100.1 -1886.46 600
    endloop
  endfacet
  facet normal 0 0 1
    outer loop
      vertex -123.607 1880.42 600
      vertex -396.846 -1550.13 600
      vertex -100.1 1886.46 600
    endloop
  endfacet
  facet normal 0 0 1
    outer loop
      vertex -170.312 1861.93 600
      vertex -396.846 -1550.13 600
      vertex -123.607 1880.42 600
    endloop
  endfacet
  facet normal 0 0 1
    outer loop
      vertex -214.331 1837.73 600
      vertex -396.846 -1550.13 600
      vertex -170.312 1861.93 600
    endloop
  endfacet
  facet normal 0 0 1
    outer loop
      vertex -254.97 1808.21 600
      vertex -396.846 -1550.13 600
      vertex -214.331 1837.73 600
    endloop
  endfacet
  facet normal 0 0 1
    outer loop
      vertex -291.587 1773.82 600
      vertex -396.846 -1550.13 600
      vertex -254.97 1808.21 600
    endloop
  endfacet
  facet normal 0 0 1
    outer loop
      vertex -323.607 1735.11 600
      vertex -396.846 -1550.13 600
      vertex -291.587 1773.82 600
    endloop
  endfacet
  facet normal 0 0 1
    outer loop
      vertex -350.523 1692.7 600
      vertex -396.846 -1550.13 600
      vertex -323.607 1735.11 600
    endloop
  endfacet
  facet normal 0 0 1
    outer loop
      vertex -371.911 1647.25 600
      vertex -396.846 -1550.13 600
      vertex -350.523 1692.7 600
    endloop
  endfacet
  facet normal 0 0 1
    outer loop
      vertex -387.433 1599.48 600
      vertex -396.846 -1550.13 600
      vertex -371.911 1647.25 600
    endloop
  endfacet
  facet normal 0 0 1
    outer loop
      vertex -396.846 1550.13 600
      vertex -396.846 -1550.13 600
      vertex -387.433 1599.48 600
    endloop
  endfacet
  facet normal 0 0 1
    outer loop
      vertex -400 1500 600
      vertex -396.846 -1550.13 600
      vertex -396.846 1550.13 600
    endloop
  endfacet
  facet normal 0 0 1
    outer loop
      vertex -400 -1500 600
      vertex -396.846 -1550.13 600
      vertex -400 1500 600
    endloop
  endfacet
  facet normal -0.368125 0.929776 0
    outer loop
      vertex -170.312 1861.93 550
      vertex -170.312 1861.93 600
      vertex -123.607 1880.42 550
    endloop
  endfacet
  facet normal -0.368125 0.929776 0
    outer loop
      vertex -123.607 1880.42 550
      vertex -170.312 1861.93 600
      vertex -123.607 1880.42 600
    endloop
  endfacet
  facet normal 0 0 -1
    outer loop
      vertex -396.846 1550.13 550
      vertex -387.433 1599.48 550
      vertex -400 1500 550
    endloop
  endfacet
  facet normal 0 0 -1
    outer loop
      vertex -400 1500 550
      vertex -387.433 1599.48 550
      vertex -371.911 1647.25 550
    endloop
  endfacet
  facet normal 0 0 -1
    outer loop
      vertex -400 1500 550
      vertex -371.911 1647.25 550
      vertex -350.523 1692.7 550
    endloop
  endfacet
  facet normal 0 0 -1
    outer loop
      vertex -400 1500 550
      vertex -350.523 1692.7 550
      vertex -323.607 1735.11 550
    endloop
  endfacet
  facet normal 0 0 -1
    outer loop
      vertex -400 1500 550
      vertex -323.607 1735.11 550
      vertex -291.587 1773.82 550
    endloop
  endfacet
  facet normal 0 0 -1
    outer loop
      vertex -400 1500 550
      vertex -291.587 1773.82 550
      vertex -254.97 1808.21 550
    endloop
  endfacet
  facet normal 0 0 -1
    outer loop
      vertex -400 1500 550
      vertex -254.97 1808.21 550
      vertex -214.331 1837.73 550
    endloop
  endfacet
  facet normal 0 0 -1
    outer loop
      vertex -400 1500 550
      vertex -214.331 1837.73 550
      vertex -170.312 1861.93 550
    endloop
  endfacet
  facet normal 0 0 -1
    outer loop
      vertex -400 1500 550
      vertex -170.312 1861.93 550
      vertex -123.607 1880.42 550
    endloop
  endfacet
  facet normal 0 0 -1
    outer loop
      vertex -400 1500 550
      vertex -123.607 1880.42 550
      vertex -100.1 1886.46 550
    endloop
  endfacet
  facet normal 0 0 -1
    outer loop
      vertex -400 1500 550
      vertex -100.1 1886.46 550
      vertex -100.1 -1886.46 550
    endloop
  endfacet
  facet normal 0 0 -1
    outer loop
      vertex -400 1500 550
      vertex -100.1 -1886.46 550
      vertex -123.607 -1880.42 550
    endloop
  endfacet
  facet normal 0 0 -1
    outer loop
      vertex -400 1500 550
      vertex -123.607 -1880.42 550
      vertex -170.312 -1861.93 550
    endloop
  endfacet
  facet normal 0 0 -1
    outer loop
      vertex -400 1500 550
      vertex -170.312 -1861.93 550
      vertex -214.331 -1837.73 550
    endloop
  endfacet
  facet normal 0 0 -1
    outer loop
      vertex -400 1500 550
      vertex -214.331 -1837.73 550
      vertex -254.97 -1808.21 550
    endloop
  endfacet
  facet normal 0 0 -1
    outer loop
      vertex -400 1500 550
      vertex -254.97 -1808.21 550
      vertex -291.587 -1773.82 550
    endloop
  endfacet
  facet normal 0 0 -1
    outer loop
      vertex -400 1500 550
      vertex -291.587 -1773.82 550
      vertex -323.607 -1735.11 550
    endloop
  endfacet
  facet normal 0 0 -1
    outer loop
      vertex -400 1500 550
      vertex -323.607 -1735.11 550
      vertex -350.523 -1692.7 550
    endloop
  endfacet
  facet normal 0 0 -1
    outer loop
      vertex -400 1500 550
      vertex -350.523 -1692.7 550
      vertex -371.911 -1647.25 550
    endloop
  endfacet
  facet normal 0 0 -1
    outer loop
      vertex -400 1500 550
      vertex -371.911 -1647.25 550
      vertex -387.433 -1599.48 550
    endloop
  endfacet
  facet normal 0 0 -1
    outer loop
      vertex -400 1500 550
      vertex -387.433 -1599.48 550
      vertex -396.846 -1550.13 550
    endloop
  endfacet
  facet normal 0 0 -1
    outer loop
      vertex -400 1500 550
      vertex -396.846 -1550.13 550
      vertex -400 -1500 550
    endloop
  endfacet
  facet normal -0.368125 -0.929776 0
    outer loop
      vertex -170.312 -1861.93 600
      vertex -170.312 -1861.93 550
      vertex -123.607 -1880.42 550
    endloop
  endfacet
  facet normal -0.368125 -0.929776 0
    outer loop
      vertex -123.607 -1880.42 600
      vertex -170.312 -1861.93 600
      vertex -123.607 -1880.42 550
    endloop
  endfacet
  facet normal -0.368125 -0.929776 0
    outer loop
      vertex -170.312 -1861.93 1199.95
      vertex -170.312 -1861.93 1100
      vertex -123.607 -1880.42 1100
    endloop
  endfacet
  facet normal -0.368125 -0.929776 0
    outer loop
      vertex -123.607 -1880.42 1199.95
      vertex -170.312 -1861.93 1199.95
      vertex -123.607 -1880.42 1100
    endloop
  endfacet
  facet normal 0 0 1
    outer loop
      vertex 400 -1500 1199.95
      vertex -400 -1500 1199.95
      vertex -396.846 -1550.13 1199.95
    endloop
  endfacet
  facet normal 0 0 1
    outer loop
      vertex -371.911 -1647.25 1199.95
      vertex 400 -1500 1199.95
      vertex -387.433 -1599.48 1199.95
    endloop
  endfacet
  facet normal 0 0 1
    outer loop
      vertex -387.433 -1599.48 1199.95
      vertex 400 -1500 1199.95
      vertex -396.846 -1550.13 1199.95
    endloop
  endfacet
  facet normal 0 0 1
    outer loop
      vertex -350.523 -1692.7 1199.95
      vertex 400 -1500 1199.95
      vertex -371.911 -1647.25 1199.95
    endloop
  endfacet
  facet normal 0 0 1
    outer loop
      vertex -323.607 -1735.11 1199.95
      vertex 400 -1500 1199.95
      vertex -350.523 -1692.7 1199.95
    endloop
  endfacet
  facet normal 0 0 1
    outer loop
      vertex -291.587 -1773.82 1199.95
      vertex 400 -1500 1199.95
      vertex -323.607 -1735.11 1199.95
    endloop
  endfacet
  facet normal 0 0 1
    outer loop
      vertex -254.97 -1808.21 1199.95
      vertex 400 -1500 1199.95
      vertex -291.587 -1773.82 1199.95
    endloop
  endfacet
  facet normal 0 0 1
    outer loop
      vertex -214.331 -1837.73 1199.95
      vertex 400 -1500 1199.95
      vertex -254.97 -1808.21 1199.95
    endloop
  endfacet
  facet normal 0 0 1
    outer loop
      vertex -170.312 -1861.93 1199.95
      vertex 400 -1500 1199.95
      vertex -214.331 -1837.73 1199.95
    endloop
  endfacet
  facet normal 0 0 1
    outer loop
      vertex -123.607 -1880.42 1199.95
      vertex 400 -1500 1199.95
      vertex -170.312 -1861.93 1199.95
    endloop
  endfacet
  facet normal 0 0 1
    outer loop
      vertex -74.9525 -1892.91 1199.95
      vertex 400 -1500 1199.95
      vertex -123.607 -1880.42 1199.95
    endloop
  endfacet
  facet normal 0 0 1
    outer loop
      vertex -25.1162 -1899.21 1199.95
      vertex 400 -1500 1199.95
      vertex -74.9525 -1892.91 1199.95
    endloop
  endfacet
  facet normal 0 0 1
    outer loop
      vertex 25.1162 -1899.21 1199.95
      vertex 400 -1500 1199.95
      vertex -25.1162 -1899.21 1199.95
    endloop
  endfacet
  facet normal 0 0 1
    outer loop
      vertex 74.9525 -1892.91 1199.95
      vertex 400 -1500 1199.95
      vertex 25.1162 -1899.21 1199.95
    endloop
  endfacet
  facet normal 0 0 1
    outer loop
      vertex 123.607 -1880.42 1199.95
      vertex 400 -1500 1199.95
      vertex 74.9525 -1892.91 1199.95
    endloop
  endfacet
  facet normal 0 0 1
    outer loop
      vertex 170.312 -1861.93 1199.95
      vertex 400 -1500 1199.95
      vertex 123.607 -1880.42 1199.95
    endloop
  endfacet
  facet normal 0 0 1
    outer loop
      vertex 214.331 -1837.73 1199.95
      vertex 400 -1500 1199.95
      vertex 170.312 -1861.93 1199.95
    endloop
  endfacet
  facet normal 0 0 1
    outer loop
      vertex 254.97 -1808.21 1199.95
      vertex 400 -1500 1199.95
      vertex 214.331 -1837.73 1199.95
    endloop
  endfacet
  facet normal 0 0 1
    outer loop
      vertex 291.587 -1773.82 1199.95
      vertex 400 -1500 1199.95
      vertex 254.97 -1808.21 1199.95
    endloop
  endfacet
  facet normal 0 0 1
    outer loop
      vertex 323.607 -1735.11 1199.95
      vertex 400 -1500 1199.95
      vertex 291.587 -1773.82 1199.95
    endloop
  endfacet
  facet normal 0 0 1
    outer loop
      vertex 350.523 -1692.7 1199.95
      vertex 400 -1500 1199.95
      vertex 323.607 -1735.11 1199.95
    endloop
  endfacet
  facet normal 0 0 1
    outer loop
      vertex 371.911 -1647.25 1199.95
      vertex 400 -1500 1199.95
      vertex 350.523 -1692.7 1199.95
    endloop
  endfacet
  facet normal 0 0 1
    outer loop
      vertex 387.433 -1599.48 1199.95
      vertex 400 -1500 1199.95
      vertex 371.911 -1647.25 1199.95
    endloop
  endfacet
  facet normal 0 0 1
    outer loop
      vertex 396.846 -1550.13 1199.95
      vertex 400 -1500 1199.95
      vertex 387.433 -1599.48 1199.95
    endloop
  endfacet
  facet normal 0.368125 -0.929776 0
    outer loop
      vertex 123.607 -1880.42 1199.95
      vertex 123.607 -1880.42 1100
      vertex 170.312 -1861.93 1100
    endloop
  endfacet
  facet normal 0.368125 -0.929776 0
    outer loop
      vertex 170.312 -1861.93 1199.95
      vertex 123.607 -1880.42 1199.95
      vertex 170.312 -1861.93 1100
    endloop
  endfacet
  facet normal 0.481754 -0.876307 0
    outer loop
      vertex 170.312 -1861.93 1199.95
      vertex 170.312 -1861.93 1100
      vertex 214.331 -1837.73 1100
    endloop
  endfacet
  facet normal 0.481754 -0.876307 0
    outer loop
      vertex 214.331 -1837.73 1199.95
      vertex 170.312 -1861.93 1199.95
      vertex 214.331 -1837.73 1100
    endloop
  endfacet
  facet normal 0.587785 -0.809017 0
    outer loop
      vertex 214.331 -1837.73 1199.95
      vertex 214.331 -1837.73 1100
      vertex 254.97 -1808.21 1100
    endloop
  endfacet
  facet normal 0.587785 -0.809017 0
    outer loop
      vertex 254.97 -1808.21 1199.95
      vertex 214.331 -1837.73 1199.95
      vertex 254.97 -1808.21 1100
    endloop
  endfacet
  facet normal 0.684547 -0.728969 0
    outer loop
      vertex 254.97 -1808.21 1199.95
      vertex 254.97 -1808.21 1100
      vertex 291.587 -1773.82 1100
    endloop
  endfacet
  facet normal 0.684547 -0.728969 0
    outer loop
      vertex 291.587 -1773.82 1199.95
      vertex 254.97 -1808.21 1199.95
      vertex 291.587 -1773.82 1100
    endloop
  endfacet
  facet normal 0.770513 -0.637424 0
    outer loop
      vertex 291.587 -1773.82 1199.95
      vertex 291.587 -1773.82 1100
      vertex 323.607 -1735.11 1100
    endloop
  endfacet
  facet normal 0.770513 -0.637424 0
    outer loop
      vertex 323.607 -1735.11 1199.95
      vertex 291.587 -1773.82 1199.95
      vertex 323.607 -1735.11 1100
    endloop
  endfacet
  facet normal 0.844328 -0.535827 0
    outer loop
      vertex 323.607 -1735.11 1199.95
      vertex 323.607 -1735.11 1100
      vertex 350.523 -1692.7 1100
    endloop
  endfacet
  facet normal 0.844328 -0.535827 0
    outer loop
      vertex 350.523 -1692.7 1199.95
      vertex 323.607 -1735.11 1199.95
      vertex 350.523 -1692.7 1100
    endloop
  endfacet
  facet normal 0.904827 -0.425779 0
    outer loop
      vertex 350.523 -1692.7 1199.95
      vertex 350.523 -1692.7 1100
      vertex 371.911 -1647.25 1100
    endloop
  endfacet
  facet normal 0.904827 -0.425779 0
    outer loop
      vertex 371.911 -1647.25 1199.95
      vertex 350.523 -1692.7 1199.95
      vertex 371.911 -1647.25 1100
    endloop
  endfacet
  facet normal 0.951057 -0.309017 0
    outer loop
      vertex 371.911 -1647.25 1199.95
      vertex 371.911 -1647.25 1100
      vertex 387.433 -1599.48 1100
    endloop
  endfacet
  facet normal 0.951057 -0.309017 0
    outer loop
      vertex 387.433 -1599.48 1199.95
      vertex 371.911 -1647.25 1199.95
      vertex 387.433 -1599.48 1100
    endloop
  endfacet
  facet normal 0.982287 -0.187381 0
    outer loop
      vertex 387.433 -1599.48 1199.95
      vertex 387.433 -1599.48 1100
      vertex 396.846 -1550.13 1100
    endloop
  endfacet
  facet normal 0.982287 -0.187381 0
    outer loop
      vertex 396.846 -1550.13 1199.95
      vertex 387.433 -1599.48 1199.95
      vertex 396.846 -1550.13 1100
    endloop
  endfacet
  facet normal 0.998027 -0.0627905 0
    outer loop
      vertex 396.846 -1550.13 1199.95
      vertex 396.846 -1550.13 1100
      vertex 400 -1500 1100
    endloop
  endfacet
  facet normal 0.998027 -0.0627905 0
    outer loop
      vertex 400 -1500 1199.95
      vertex 396.846 -1550.13 1199.95
      vertex 400 -1500 1100
    endloop
  endfacet
  facet normal 1 0 0
    outer loop
      vertex 400 -1500 1199.95
      vertex 400 -1500 1100
      vertex 400 1500 1100
    endloop
  endfacet
  facet normal 1 0 0
    outer loop
      vertex 400 1500 1200
      vertex 400 -1500 1199.95
      vertex 400 1500 1199.95
    endloop
  endfacet
  facet normal 1 0 0
    outer loop
      vertex 400 1500 1199.95
      vertex 400 -1500 1199.95
      vertex 400 1500 1100
    endloop
  endfacet
  facet normal 1 0 0
    outer loop
      vertex 400 -1500 1200
      vertex 400 -1500 1199.95
      vertex 400 1500 1200
    endloop
  endfacet
  facet normal 0.998027 0.0627905 0
    outer loop
      vertex 400 1500 1100
      vertex 396.846 1550.13 1100
      vertex 396.846 1550.13 1199.95
    endloop
  endfacet
  facet normal 0.998027 0.0627905 0
    outer loop
      vertex 400 1500 1199.95
      vertex 400 1500 1100
      vertex 396.846 1550.13 1199.95
    endloop
  endfacet
  facet normal 0.982287 0.187381 0
    outer loop
      vertex 396.846 1550.13 1100
      vertex 387.433 1599.48 1100
      vertex 387.433 1599.48 1199.95
    endloop
  endfacet
  facet normal 0.982287 0.187381 0
    outer loop
      vertex 396.846 1550.13 1199.95
      vertex 396.846 1550.13 1100
      vertex 387.433 1599.48 1199.95
    endloop
  endfacet
  facet normal 0.951057 0.309017 0
    outer loop
      vertex 387.433 1599.48 1100
      vertex 371.911 1647.25 1100
      vertex 371.911 1647.25 1199.95
    endloop
  endfacet
  facet normal 0.951057 0.309017 0
    outer loop
      vertex 387.433 1599.48 1199.95
      vertex 387.433 1599.48 1100
      vertex 371.911 1647.25 1199.95
    endloop
  endfacet
  facet normal 0.904827 0.425779 0
    outer loop
      vertex 371.911 1647.25 1100
      vertex 350.523 1692.7 1100
      vertex 350.523 1692.7 1199.95
    endloop
  endfacet
  facet normal 0.904827 0.425779 0
    outer loop
      vertex 371.911 1647.25 1199.95
      vertex 371.911 1647.25 1100
      vertex 350.523 1692.7 1199.95
    endloop
  endfacet
  facet normal 0.844328 0.535827 0
    outer loop
      vertex 350.523 1692.7 1100
      vertex 323.607 1735.11 1100
      vertex 323.607 1735.11 1199.95
    endloop
  endfacet
  facet normal 0.844328 0.535827 0
    outer loop
      vertex 350.523 1692.7 1199.95
      vertex 350.523 1692.7 1100
      vertex 323.607 1735.11 1199.95
    endloop
  endfacet
  facet normal 0.770513 0.637424 0
    outer loop
      vertex 323.607 1735.11 1100
      vertex 291.587 1773.82 1100
      vertex 291.587 1773.82 1199.95
    endloop
  endfacet
  facet normal 0.770513 0.637424 0
    outer loop
      vertex 323.607 1735.11 1199.95
      vertex 323.607 1735.11 1100
      vertex 291.587 1773.82 1199.95
    endloop
  endfacet
  facet normal 0.684547 0.728969 0
    outer loop
      vertex 254.97 1808.21 1100
      vertex 254.97 1808.21 1199.95
      vertex 291.587 1773.82 1100
    endloop
  endfacet
  facet normal 0.684547 0.728969 0
    outer loop
      vertex 291.587 1773.82 1100
      vertex 254.97 1808.21 1199.95
      vertex 291.587 1773.82 1199.95
    endloop
  endfacet
  facet normal 0.587785 0.809017 0
    outer loop
      vertex 214.331 1837.73 1100
      vertex 214.331 1837.73 1199.95
      vertex 254.97 1808.21 1100
    endloop
  endfacet
  facet normal 0.587785 0.809017 0
    outer loop
      vertex 254.97 1808.21 1100
      vertex 214.331 1837.73 1199.95
      vertex 254.97 1808.21 1199.95
    endloop
  endfacet
  facet normal 0.481754 0.876307 0
    outer loop
      vertex 170.312 1861.93 1100
      vertex 170.312 1861.93 1199.95
      vertex 214.331 1837.73 1100
    endloop
  endfacet
  facet normal 0.481754 0.876307 0
    outer loop
      vertex 214.331 1837.73 1100
      vertex 170.312 1861.93 1199.95
      vertex 214.331 1837.73 1199.95
    endloop
  endfacet
  facet normal -0.998027 0.0627905 0
    outer loop
      vertex -400 1500 1100
      vertex -400 1500 1199.95
      vertex -396.846 1550.13 1100
    endloop
  endfacet
  facet normal -0.998027 0.0627905 0
    outer loop
      vertex -396.846 1550.13 1100
      vertex -400 1500 1199.95
      vertex -396.846 1550.13 1199.95
    endloop
  endfacet
  facet normal -0.982287 0.187381 0
    outer loop
      vertex -396.846 1550.13 1100
      vertex -396.846 1550.13 1199.95
      vertex -387.433 1599.48 1100
    endloop
  endfacet
  facet normal -0.982287 0.187381 0
    outer loop
      vertex -387.433 1599.48 1100
      vertex -396.846 1550.13 1199.95
      vertex -387.433 1599.48 1199.95
    endloop
  endfacet
  facet normal -0.951057 0.309017 0
    outer loop
      vertex -387.433 1599.48 1100
      vertex -387.433 1599.48 1199.95
      vertex -371.911 1647.25 1100
    endloop
  endfacet
  facet normal -0.951057 0.309017 0
    outer loop
      vertex -371.911 1647.25 1100
      vertex -387.433 1599.48 1199.95
      vertex -371.911 1647.25 1199.95
    endloop
  endfacet
  facet normal -0.904827 0.425779 0
    outer loop
      vertex -371.911 1647.25 1100
      vertex -371.911 1647.25 1199.95
      vertex -350.523 1692.7 1100
    endloop
  endfacet
  facet normal -0.904827 0.425779 0
    outer loop
      vertex -350.523 1692.7 1100
      vertex -371.911 1647.25 1199.95
      vertex -350.523 1692.7 1199.95
    endloop
  endfacet
  facet normal -0.844328 0.535827 0
    outer loop
      vertex -350.523 1692.7 1100
      vertex -350.523 1692.7 1199.95
      vertex -323.607 1735.11 1100
    endloop
  endfacet
  facet normal -0.844328 0.535827 0
    outer loop
      vertex -323.607 1735.11 1100
      vertex -350.523 1692.7 1199.95
      vertex -323.607 1735.11 1199.95
    endloop
  endfacet
  facet normal -0.770513 0.637424 0
    outer loop
      vertex -323.607 1735.11 1100
      vertex -323.607 1735.11 1199.95
      vertex -291.587 1773.82 1100
    endloop
  endfacet
  facet normal -0.770513 0.637424 0
    outer loop
      vertex -291.587 1773.82 1100
      vertex -323.607 1735.11 1199.95
      vertex -291.587 1773.82 1199.95
    endloop
  endfacet
  facet normal -0.684547 0.728969 0
    outer loop
      vertex -291.587 1773.82 1100
      vertex -291.587 1773.82 1199.95
      vertex -254.97 1808.21 1100
    endloop
  endfacet
  facet normal -0.684547 0.728969 0
    outer loop
      vertex -254.97 1808.21 1100
      vertex -291.587 1773.82 1199.95
      vertex -254.97 1808.21 1199.95
    endloop
  endfacet
  facet normal -0.587785 0.809017 0
    outer loop
      vertex -254.97 1808.21 1100
      vertex -254.97 1808.21 1199.95
      vertex -214.331 1837.73 1100
    endloop
  endfacet
  facet normal -0.587785 0.809017 0
    outer loop
      vertex -214.331 1837.73 1100
      vertex -254.97 1808.21 1199.95
      vertex -214.331 1837.73 1199.95
    endloop
  endfacet
  facet normal -0.481754 0.876307 0
    outer loop
      vertex -214.331 1837.73 1100
      vertex -214.331 1837.73 1199.95
      vertex -170.312 1861.93 1100
    endloop
  endfacet
  facet normal -0.481754 0.876307 0
    outer loop
      vertex -170.312 1861.93 1100
      vertex -214.331 1837.73 1199.95
      vertex -170.312 1861.93 1199.95
    endloop
  endfacet
  facet normal 0 1 0
    outer loop
      vertex -400 1500 1199.95
      vertex -400 1500 1200
      vertex 400 1500 1199.95
    endloop
  endfacet
  facet normal 0 1 0
    outer loop
      vertex 400 1500 1199.95
      vertex -400 1500 1200
      vertex 400 1500 1200
    endloop
  endfacet
  facet normal -1 0 0
    outer loop
      vertex -400 -1500 1100
      vertex -400 -1500 1199.95
      vertex -400 1500 1100
    endloop
  endfacet
  facet normal -1 0 0
    outer loop
      vertex -400 1500 1100
      vertex -400 -1500 1199.95
      vertex -400 -1500 1200
    endloop
  endfacet
  facet normal -1 0 0
    outer loop
      vertex -400 1500 1199.95
      vertex -400 -1500 1200
      vertex -400 1500 1200
    endloop
  endfacet
  facet normal -1 0 0
    outer loop
      vertex -400 1500 1100
      vertex -400 -1500 1200
      vertex -400 1500 1199.95
    endloop
  endfacet
  facet normal -0.998027 -0.0627905 0
    outer loop
      vertex -400 -1500 1100
      vertex -396.846 -1550.13 1100
      vertex -400 -1500 1199.95
    endloop
  endfacet
  facet normal -0.998027 -0.0627905 0
    outer loop
      vertex -400 -1500 1199.95
      vertex -396.846 -1550.13 1100
      vertex -396.846 -1550.13 1199.95
    endloop
  endfacet
  facet normal -0.982287 -0.187381 0
    outer loop
      vertex -396.846 -1550.13 1100
      vertex -387.433 -1599.48 1100
      vertex -396.846 -1550.13 1199.95
    endloop
  endfacet
  facet normal -0.982287 -0.187381 0
    outer loop
      vertex -396.846 -1550.13 1199.95
      vertex -387.433 -1599.48 1100
      vertex -387.433 -1599.48 1199.95
    endloop
  endfacet
  facet normal -0.951057 -0.309017 0
    outer loop
      vertex -387.433 -1599.48 1100
      vertex -371.911 -1647.25 1100
      vertex -387.433 -1599.48 1199.95
    endloop
  endfacet
  facet normal -0.951057 -0.309017 0
    outer loop
      vertex -387.433 -1599.48 1199.95
      vertex -371.911 -1647.25 1100
      vertex -371.911 -1647.25 1199.95
    endloop
  endfacet
  facet normal -0.904827 -0.425779 0
    outer loop
      vertex -371.911 -1647.25 1100
      vertex -350.523 -1692.7 1100
      vertex -371.911 -1647.25 1199.95
    endloop
  endfacet
  facet normal -0.904827 -0.425779 0
    outer loop
      vertex -371.911 -1647.25 1199.95
      vertex -350.523 -1692.7 1100
      vertex -350.523 -1692.7 1199.95
    endloop
  endfacet
  facet normal -0.844328 -0.535827 0
    outer loop
      vertex -350.523 -1692.7 1100
      vertex -323.607 -1735.11 1100
      vertex -350.523 -1692.7 1199.95
    endloop
  endfacet
  facet normal -0.844328 -0.535827 0
    outer loop
      vertex -350.523 -1692.7 1199.95
      vertex -323.607 -1735.11 1100
      vertex -323.607 -1735.11 1199.95
    endloop
  endfacet
  facet normal -0.770513 -0.637424 0
    outer loop
      vertex -323.607 -1735.11 1100
      vertex -291.587 -1773.82 1100
      vertex -323.607 -1735.11 1199.95
    endloop
  endfacet
  facet normal -0.770513 -0.637424 0
    outer loop
      vertex -323.607 -1735.11 1199.95
      vertex -291.587 -1773.82 1100
      vertex -291.587 -1773.82 1199.95
    endloop
  endfacet
  facet normal -0.684547 -0.728969 0
    outer loop
      vertex -291.587 -1773.82 1199.95
      vertex -291.587 -1773.82 1100
      vertex -254.97 -1808.21 1100
    endloop
  endfacet
  facet normal -0.684547 -0.728969 0
    outer loop
      vertex -254.97 -1808.21 1199.95
      vertex -291.587 -1773.82 1199.95
      vertex -254.97 -1808.21 1100
    endloop
  endfacet
  facet normal -0.587785 -0.809017 0
    outer loop
      vertex -254.97 -1808.21 1199.95
      vertex -254.97 -1808.21 1100
      vertex -214.331 -1837.73 1100
    endloop
  endfacet
  facet normal -0.587785 -0.809017 0
    outer loop
      vertex -214.331 -1837.73 1199.95
      vertex -254.97 -1808.21 1199.95
      vertex -214.331 -1837.73 1100
    endloop
  endfacet
  facet normal -0.481754 -0.876307 0
    outer loop
      vertex -214.331 -1837.73 1199.95
      vertex -214.331 -1837.73 1100
      vertex -170.312 -1861.93 1100
    endloop
  endfacet
  facet normal -0.481754 -0.876307 0
    outer loop
      vertex -170.312 -1861.93 1199.95
      vertex -214.331 -1837.73 1199.95
      vertex -170.312 -1861.93 1100
    endloop
  endfacet
  facet normal -0.982287 -0.187381 0
    outer loop
      vertex -396.846 -1550.13 550
      vertex -387.433 -1599.48 550
      vertex -396.846 -1550.13 600
    endloop
  endfacet
  facet normal -0.982287 -0.187381 0
    outer loop
      vertex -396.846 -1550.13 600
      vertex -387.433 -1599.48 550
      vertex -387.433 -1599.48 600
    endloop
  endfacet
  facet normal -0.998027 -0.0627905 0
    outer loop
      vertex -400 -1500 550
      vertex -396.846 -1550.13 550
      vertex -400 -1500 600
    endloop
  endfacet
  facet normal -0.998027 -0.0627905 0
    outer loop
      vertex -400 -1500 600
      vertex -396.846 -1550.13 550
      vertex -396.846 -1550.13 600
    endloop
  endfacet
  facet normal -1 0 0
    outer loop
      vertex -400 -1500 550
      vertex -400 -1500 600
      vertex -400 1500 550
    endloop
  endfacet
  facet normal -1 0 0
    outer loop
      vertex -400 1500 550
      vertex -400 -1500 600
      vertex -400 1500 600
    endloop
  endfacet
  facet normal -0.998027 0.0627905 0
    outer loop
      vertex -400 1500 550
      vertex -400 1500 600
      vertex -396.846 1550.13 550
    endloop
  endfacet
  facet normal -0.998027 0.0627905 0
    outer loop
      vertex -396.846 1550.13 550
      vertex -400 1500 600
      vertex -396.846 1550.13 600
    endloop
  endfacet
  facet normal -0.982287 0.187381 0
    outer loop
      vertex -396.846 1550.13 550
      vertex -396.846 1550.13 600
      vertex -387.433 1599.48 550
    endloop
  endfacet
  facet normal -0.982287 0.187381 0
    outer loop
      vertex -387.433 1599.48 550
      vertex -396.846 1550.13 600
      vertex -387.433 1599.48 600
    endloop
  endfacet
  facet normal -0.951057 0.309017 0
    outer loop
      vertex -387.433 1599.48 550
      vertex -387.433 1599.48 600
      vertex -371.911 1647.25 550
    endloop
  endfacet
  facet normal -0.951057 0.309017 0
    outer loop
      vertex -371.911 1647.25 550
      vertex -387.433 1599.48 600
      vertex -371.911 1647.25 600
    endloop
  endfacet
  facet normal -0.904827 0.425779 0
    outer loop
      vertex -371.911 1647.25 550
      vertex -371.911 1647.25 600
      vertex -350.523 1692.7 550
    endloop
  endfacet
  facet normal -0.904827 0.425779 0
    outer loop
      vertex -350.523 1692.7 550
      vertex -371.911 1647.25 600
      vertex -350.523 1692.7 600
    endloop
  endfacet
  facet normal -0.844328 0.535827 0
    outer loop
      vertex -350.523 1692.7 550
      vertex -350.523 1692.7 600
      vertex -323.607 1735.11 550
    endloop
  endfacet
  facet normal -0.844328 0.535827 0
    outer loop
      vertex -323.607 1735.11 550
      vertex -350.523 1692.7 600
      vertex -323.607 1735.11 600
    endloop
  endfacet
  facet normal -0.770513 0.637424 0
    outer loop
      vertex -323.607 1735.11 550
      vertex -323.607 1735.11 600
      vertex -291.587 1773.82 550
    endloop
  endfacet
  facet normal -0.770513 0.637424 0
    outer loop
      vertex -291.587 1773.82 550
      vertex -323.607 1735.11 600
      vertex -291.587 1773.82 600
    endloop
  endfacet
  facet normal -0.684547 0.728969 0
    outer loop
      vertex -291.587 1773.82 550
      vertex -291.587 1773.82 600
      vertex -254.97 1808.21 550
    endloop
  endfacet
  facet normal -0.684547 0.728969 0
    outer loop
      vertex -254.97 1808.21 550
      vertex -291.587 1773.82 600
      vertex -254.97 1808.21 600
    endloop
  endfacet
  facet normal -0.587785 0.809017 0
    outer loop
      vertex -254.97 1808.21 550
      vertex -254.97 1808.21 600
      vertex -214.331 1837.73 550
    endloop
  endfacet
  facet normal -0.587785 0.809017 0
    outer loop
      vertex -214.331 1837.73 550
      vertex -254.97 1808.21 600
      vertex -214.331 1837.73 600
    endloop
  endfacet
  facet normal -0.481754 0.876307 0
    outer loop
      vertex -214.331 1837.73 550
      vertex -214.331 1837.73 600
      vertex -170.312 1861.93 550
    endloop
  endfacet
  facet normal -0.481754 0.876307 0
    outer loop
      vertex -170.312 1861.93 550
      vertex -214.331 1837.73 600
      vertex -170.312 1861.93 600
    endloop
  endfacet
  facet normal -0.481754 -0.876307 0
    outer loop
      vertex -214.331 -1837.73 600
      vertex -214.331 -1837.73 550
      vertex -170.312 -1861.93 550
    endloop
  endfacet
  facet normal -0.481754 -0.876307 0
    outer loop
      vertex -170.312 -1861.93 600
      vertex -214.331 -1837.73 600
      vertex -170.312 -1861.93 550
    endloop
  endfacet
  facet normal -0.587785 -0.809017 0
    outer loop
      vertex -254.97 -1808.21 600
      vertex -254.97 -1808.21 550
      vertex -214.331 -1837.73 550
    endloop
  endfacet
  facet normal -0.587785 -0.809017 0
    outer loop
      vertex -214.331 -1837.73 600
      vertex -254.97 -1808.21 600
      vertex -214.331 -1837.73 550
    endloop
  endfacet
  facet normal -0.684547 -0.728969 0
    outer loop
      vertex -291.587 -1773.82 600
      vertex -291.587 -1773.82 550
      vertex -254.97 -1808.21 550
    endloop
  endfacet
  facet normal -0.684547 -0.728969 0
    outer loop
      vertex -254.97 -1808.21 600
      vertex -291.587 -1773.82 600
      vertex -254.97 -1808.21 550
    endloop
  endfacet
  facet normal -0.770513 -0.637424 0
    outer loop
      vertex -323.607 -1735.11 550
      vertex -291.587 -1773.82 550
      vertex -323.607 -1735.11 600
    endloop
  endfacet
  facet normal -0.770513 -0.637424 0
    outer loop
      vertex -323.607 -1735.11 600
      vertex -291.587 -1773.82 550
      vertex -291.587 -1773.82 600
    endloop
  endfacet
  facet normal -0.844328 -0.535827 0
    outer loop
      vertex -350.523 -1692.7 550
      vertex -323.607 -1735.11 550
      vertex -350.523 -1692.7 600
    endloop
  endfacet
  facet normal -0.844328 -0.535827 0
    outer loop
      vertex -350.523 -1692.7 600
      vertex -323.607 -1735.11 550
      vertex -323.607 -1735.11 600
    endloop
  endfacet
  facet normal -0.904827 -0.425779 0
    outer loop
      vertex -371.911 -1647.25 550
      vertex -350.523 -1692.7 550
      vertex -371.911 -1647.25 600
    endloop
  endfacet
  facet normal -0.904827 -0.425779 0
    outer loop
      vertex -371.911 -1647.25 600
      vertex -350.523 -1692.7 550
      vertex -350.523 -1692.7 600
    endloop
  endfacet
  facet normal -0.951057 -0.309017 0
    outer loop
      vertex -387.433 -1599.48 550
      vertex -371.911 -1647.25 550
      vertex -387.433 -1599.48 600
    endloop
  endfacet
  facet normal -0.951057 -0.309017 0
    outer loop
      vertex -387.433 -1599.48 600
      vertex -371.911 -1647.25 550
      vertex -371.911 -1647.25 600
    endloop
  endfacet
  facet normal 0 -1 0
    outer loop
      vertex -400 -1500 1200
      vertex -400 -1500 1199.95
      vertex 400 -1500 1199.95
    endloop
  endfacet
  facet normal 0 -1 0
    outer loop
      vertex 400 -1500 1200
      vertex -400 -1500 1200
      vertex 400 -1500 1199.95
    endloop
  endfacet
  facet normal 0 0 1
    outer loop
      vertex -400 1500 1200
      vertex -400 -1500 1200
      vertex 400 -1500 1200
    endloop
  endfacet
  facet normal 0 0 1
    outer loop
      vertex 400 1500 1200
      vertex -400 1500 1200
      vertex 400 -1500 1200
    endloop
  endfacet
endsolid OpenSCAD_Model
