solid OpenSCAD_Model
  facet normal 0.764586 -0.632521 -0.123794
    outer loop
      vertex 31.3456 -29.4355 120
      vertex 20.4111 -19.1673 0
      vertex 22.6525 -16.458 0
    endloop
  endfacet
  facet normal 0.99035 0.0623078 -0.123794
    outer loop
      vertex 43 0 120
      vertex 28 0 0
      vertex 42.6609 5.38933 120
    endloop
  endfacet
  facet normal 0.99035 0.0623077 -0.123794
    outer loop
      vertex 28 0 0
      vertex 27.7792 3.50933 0
      vertex 42.6609 5.38933 120
    endloop
  endfacet
  facet normal 0.99035 -0.0623077 -0.123794
    outer loop
      vertex 42.6609 -5.38933 120
      vertex 27.7792 -3.50933 0
      vertex 28 0 0
    endloop
  endfacet
  facet normal -0.974731 -0.18594 -0.123794
    outer loop
      vertex -41.6491 -10.6937 120
      vertex -42.6609 -5.38933 120
      vertex -27.7792 -3.50933 0
    endloop
  endfacet
  facet normal 0.124369 -0.984483 -0.123794
    outer loop
      vertex 2.69999 -42.9151 120
      vertex 1.75813 -27.9447 0
      vertex 5.24668 -27.504 0
    endloop
  endfacet
  facet normal -0.12437 0.984483 -0.123794
    outer loop
      vertex -5.24668 27.504 0
      vertex -8.0574 42.2383 120
      vertex -2.69999 42.9151 120
    endloop
  endfacet
  facet normal 0.583264 0.802794 -0.123794
    outer loop
      vertex 27.4092 33.1321 120
      vertex 17.8479 21.5744 0
      vertex 23.0406 36.3061 120
    endloop
  endfacet
  facet normal 0.974731 -0.18594 -0.123794
    outer loop
      vertex 41.6491 -10.6937 120
      vertex 27.7792 -3.50933 0
      vertex 42.6609 -5.38933 120
    endloop
  endfacet
  facet normal 0.897867 -0.422504 -0.123794
    outer loop
      vertex 37.6812 -20.7154 120
      vertex 24.5366 -13.4891 0
      vertex 39.9804 -15.8294 120
    endloop
  endfacet
  facet normal 0.837833 -0.531705 -0.123794
    outer loop
      vertex 37.6812 -20.7154 120
      vertex 22.6525 -16.458 0
      vertex 24.5366 -13.4891 0
    endloop
  endfacet
  facet normal -0.837833 -0.531705 -0.123794
    outer loop
      vertex -34.7877 -25.2748 120
      vertex -37.6812 -20.7154 120
      vertex -22.6525 -16.458 0
    endloop
  endfacet
  facet normal -0.837833 0.531705 -0.123794
    outer loop
      vertex -22.6525 16.458 0
      vertex -37.6812 20.7154 120
      vertex -34.7877 25.2748 120
    endloop
  endfacet
  facet normal 0.943741 -0.30664 -0.123794
    outer loop
      vertex 39.9804 -15.8294 120
      vertex 27.1203 -6.96332 0
      vertex 41.6491 -10.6937 120
    endloop
  endfacet
  facet normal 0.99035 -0.0623078 -0.123794
    outer loop
      vertex 42.6609 -5.38933 120
      vertex 28 0 0
      vertex 43 0 120
    endloop
  endfacet
  facet normal 0.943741 -0.30664 -0.123794
    outer loop
      vertex 39.9804 -15.8294 120
      vertex 26.0337 -10.3075 0
      vertex 27.1203 -6.96332 0
    endloop
  endfacet
  facet normal 0.478048 -0.869566 -0.123794
    outer loop
      vertex 23.0406 -36.3061 120
      vertex 11.9218 -25.3352 0
      vertex 15.0031 -23.6412 0
    endloop
  endfacet
  facet normal 0.478048 -0.869566 -0.123794
    outer loop
      vertex 18.3085 -38.9076 120
      vertex 11.9218 -25.3352 0
      vertex 23.0406 -36.3061 120
    endloop
  endfacet
  facet normal -0.365293 -0.922624 -0.123794
    outer loop
      vertex -13.2877 -40.8954 120
      vertex -18.3085 -38.9076 120
      vertex -8.65248 -26.6296 0
    endloop
  endfacet
  facet normal -0.837833 -0.531705 -0.123794
    outer loop
      vertex -22.6525 -16.458 0
      vertex -37.6812 -20.7154 120
      vertex -24.5366 -13.4891 0
    endloop
  endfacet
  facet normal -0.99035 -0.0623078 -0.123794
    outer loop
      vertex -42.6609 -5.38933 120
      vertex -43 0 120
      vertex -28 0 0
    endloop
  endfacet
  facet normal 0.837833 0.531705 -0.123794
    outer loop
      vertex 37.6812 20.7154 120
      vertex 22.6525 16.458 0
      vertex 34.7877 25.2748 120
    endloop
  endfacet
  facet normal 0.974731 -0.18594 -0.123794
    outer loop
      vertex 41.6491 -10.6937 120
      vertex 27.1203 -6.96332 0
      vertex 27.7792 -3.50933 0
    endloop
  endfacet
  facet normal 0.837833 -0.531705 -0.123794
    outer loop
      vertex 34.7877 -25.2748 120
      vertex 22.6525 -16.458 0
      vertex 37.6812 -20.7154 120
    endloop
  endfacet
  facet normal 0.764586 -0.632521 -0.123794
    outer loop
      vertex 31.3456 -29.4355 120
      vertex 22.6525 -16.458 0
      vertex 34.7877 -25.2748 120
    endloop
  endfacet
  facet normal 0.679281 -0.723361 -0.123794
    outer loop
      vertex 27.4092 -33.1321 120
      vertex 17.8479 -21.5744 0
      vertex 20.4111 -19.1673 0
    endloop
  endfacet
  facet normal 0.246777 -0.961133 -0.123794
    outer loop
      vertex 8.0574 -42.2383 120
      vertex 5.24668 -27.504 0
      vertex 8.65248 -26.6296 0
    endloop
  endfacet
  facet normal 0.365293 -0.922624 -0.123794
    outer loop
      vertex 13.2877 -40.8954 120
      vertex 8.65248 -26.6296 0
      vertex 18.3085 -38.9076 120
    endloop
  endfacet
  facet normal -0.897867 -0.422504 -0.123794
    outer loop
      vertex -37.6812 -20.7154 120
      vertex -39.9804 -15.8294 120
      vertex -24.5366 -13.4891 0
    endloop
  endfacet
  facet normal -0.246776 -0.961133 -0.123794
    outer loop
      vertex -8.0574 -42.2383 120
      vertex -13.2877 -40.8954 120
      vertex -8.65248 -26.6296 0
    endloop
  endfacet
  facet normal -0.679281 -0.723361 -0.123794
    outer loop
      vertex -17.8479 -21.5744 0
      vertex -27.4092 -33.1321 120
      vertex -20.4111 -19.1673 0
    endloop
  endfacet
  facet normal -0.764586 -0.632521 -0.123794
    outer loop
      vertex -31.3456 -29.4355 120
      vertex -34.7877 -25.2748 120
      vertex -22.6525 -16.458 0
    endloop
  endfacet
  facet normal -0.943741 -0.30664 -0.123794
    outer loop
      vertex -26.0337 -10.3075 0
      vertex -39.9804 -15.8294 120
      vertex -27.1203 -6.96332 0
    endloop
  endfacet
  facet normal -0.478048 0.869566 -0.123794
    outer loop
      vertex -11.9218 25.3352 0
      vertex -23.0406 36.3061 120
      vertex -18.3085 38.9076 120
    endloop
  endfacet
  facet normal -0.764586 0.632521 -0.123794
    outer loop
      vertex -22.6525 16.458 0
      vertex -31.3456 29.4355 120
      vertex -20.4111 19.1673 0
    endloop
  endfacet
  facet normal -0.365293 0.922625 -0.123794
    outer loop
      vertex -11.9218 25.3352 0
      vertex -18.3085 38.9076 120
      vertex -8.65248 26.6296 0
    endloop
  endfacet
  facet normal -0.943741 0.30664 -0.123794
    outer loop
      vertex -27.1203 6.96332 0
      vertex -41.6491 10.6937 120
      vertex -39.9804 15.8294 120
    endloop
  endfacet
  facet normal -0.974731 0.18594 -0.123794
    outer loop
      vertex -27.7792 3.50933 0
      vertex -42.6609 5.38933 120
      vertex -41.6491 10.6937 120
    endloop
  endfacet
  facet normal -0.99035 0.0623077 -0.123794
    outer loop
      vertex -28 0 0
      vertex -42.6609 5.38933 120
      vertex -27.7792 3.50933 0
    endloop
  endfacet
  facet normal 0.246777 0.961133 -0.123794
    outer loop
      vertex 8.65248 26.6296 0
      vertex 5.24668 27.504 0
      vertex 8.0574 42.2383 120
    endloop
  endfacet
  facet normal 0.365293 0.922624 -0.123794
    outer loop
      vertex 18.3085 38.9076 120
      vertex 8.65248 26.6296 0
      vertex 13.2877 40.8954 120
    endloop
  endfacet
  facet normal 0 0.992308 -0.123794
    outer loop
      vertex 1.75813 27.9447 0
      vertex -2.69999 42.9151 120
      vertex 2.69999 42.9151 120
    endloop
  endfacet
  facet normal 0 0.992308 -0.123794
    outer loop
      vertex -2.69999 42.9151 120
      vertex 1.75813 27.9447 0
      vertex -1.75813 27.9447 0
    endloop
  endfacet
  facet normal 0.897867 0.422504 -0.123794
    outer loop
      vertex 39.9804 15.8294 120
      vertex 24.5366 13.4891 0
      vertex 37.6812 20.7154 120
    endloop
  endfacet
  facet normal 0.897867 -0.422504 -0.123794
    outer loop
      vertex 39.9804 -15.8294 120
      vertex 24.5366 -13.4891 0
      vertex 26.0337 -10.3075 0
    endloop
  endfacet
  facet normal 0.246776 -0.961133 -0.123794
    outer loop
      vertex 13.2877 -40.8954 120
      vertex 8.0574 -42.2383 120
      vertex 8.65248 -26.6296 0
    endloop
  endfacet
  facet normal 0.12437 -0.984483 -0.123794
    outer loop
      vertex 8.0574 -42.2383 120
      vertex 2.69999 -42.9151 120
      vertex 5.24668 -27.504 0
    endloop
  endfacet
  facet normal 0.583264 -0.802794 -0.123794
    outer loop
      vertex 23.0406 -36.3061 120
      vertex 17.8479 -21.5744 0
      vertex 27.4092 -33.1321 120
    endloop
  endfacet
  facet normal 0.679282 -0.723361 -0.123794
    outer loop
      vertex 27.4092 -33.1321 120
      vertex 20.4111 -19.1673 0
      vertex 31.3456 -29.4355 120
    endloop
  endfacet
  facet normal -0.365293 -0.922625 -0.123794
    outer loop
      vertex -8.65248 -26.6296 0
      vertex -18.3085 -38.9076 120
      vertex -11.9218 -25.3352 0
    endloop
  endfacet
  facet normal 0 -0.992308 -0.123794
    outer loop
      vertex -1.75813 -27.9447 0
      vertex 2.69999 -42.9151 120
      vertex -2.69999 -42.9151 120
    endloop
  endfacet
  facet normal 0 -0.992308 -0.123794
    outer loop
      vertex 2.69999 -42.9151 120
      vertex -1.75813 -27.9447 0
      vertex 1.75813 -27.9447 0
    endloop
  endfacet
  facet normal -0.478048 -0.869566 -0.123794
    outer loop
      vertex -18.3085 -38.9076 120
      vertex -23.0406 -36.3061 120
      vertex -11.9218 -25.3352 0
    endloop
  endfacet
  facet normal -0.478048 -0.869566 -0.123794
    outer loop
      vertex -11.9218 -25.3352 0
      vertex -23.0406 -36.3061 120
      vertex -15.0031 -23.6412 0
    endloop
  endfacet
  facet normal -0.583264 -0.802794 -0.123794
    outer loop
      vertex -15.0031 -23.6412 0
      vertex -23.0406 -36.3061 120
      vertex -17.8479 -21.5744 0
    endloop
  endfacet
  facet normal -0.583264 -0.802794 -0.123794
    outer loop
      vertex -23.0406 -36.3061 120
      vertex -27.4092 -33.1321 120
      vertex -17.8479 -21.5744 0
    endloop
  endfacet
  facet normal -0.764586 -0.632521 -0.123794
    outer loop
      vertex -20.4111 -19.1673 0
      vertex -31.3456 -29.4355 120
      vertex -22.6525 -16.458 0
    endloop
  endfacet
  facet normal -0.679282 -0.723361 -0.123794
    outer loop
      vertex -27.4092 -33.1321 120
      vertex -31.3456 -29.4355 120
      vertex -20.4111 -19.1673 0
    endloop
  endfacet
  facet normal -0.943741 -0.30664 -0.123794
    outer loop
      vertex -39.9804 -15.8294 120
      vertex -41.6491 -10.6937 120
      vertex -27.1203 -6.96332 0
    endloop
  endfacet
  facet normal -0.974731 -0.18594 -0.123794
    outer loop
      vertex -27.1203 -6.96332 0
      vertex -41.6491 -10.6937 120
      vertex -27.7792 -3.50933 0
    endloop
  endfacet
  facet normal -0.365293 0.922624 -0.123794
    outer loop
      vertex -8.65248 26.6296 0
      vertex -18.3085 38.9076 120
      vertex -13.2877 40.8954 120
    endloop
  endfacet
  facet normal -0.679282 0.723361 -0.123794
    outer loop
      vertex -20.4111 19.1673 0
      vertex -31.3456 29.4355 120
      vertex -27.4092 33.1321 120
    endloop
  endfacet
  facet normal -0.764586 0.632521 -0.123794
    outer loop
      vertex -22.6525 16.458 0
      vertex -34.7877 25.2748 120
      vertex -31.3456 29.4355 120
    endloop
  endfacet
  facet normal -0.583264 0.802794 -0.123794
    outer loop
      vertex -17.8479 21.5744 0
      vertex -27.4092 33.1321 120
      vertex -23.0406 36.3061 120
    endloop
  endfacet
  facet normal -0.246776 0.961133 -0.123794
    outer loop
      vertex -8.65248 26.6296 0
      vertex -13.2877 40.8954 120
      vertex -8.0574 42.2383 120
    endloop
  endfacet
  facet normal -0.246777 0.961133 -0.123794
    outer loop
      vertex -5.24668 27.504 0
      vertex -8.65248 26.6296 0
      vertex -8.0574 42.2383 120
    endloop
  endfacet
  facet normal -0.943741 0.30664 -0.123794
    outer loop
      vertex -27.1203 6.96332 0
      vertex -39.9804 15.8294 120
      vertex -26.0337 10.3075 0
    endloop
  endfacet
  facet normal -0.897867 0.422504 -0.123794
    outer loop
      vertex -26.0337 10.3075 0
      vertex -39.9804 15.8294 120
      vertex -24.5366 13.4891 0
    endloop
  endfacet
  facet normal -0.99035 0.0623078 -0.123794
    outer loop
      vertex -28 0 0
      vertex -43 0 120
      vertex -42.6609 5.38933 120
    endloop
  endfacet
  facet normal 0 0 1
    outer loop
      vertex 40.489 0 120
      vertex 43 0 120
      vertex 42.6609 5.38933 120
    endloop
  endfacet
  facet normal 0 0 1
    outer loop
      vertex 40.1692 5.07765 120
      vertex 42.6609 5.38933 120
      vertex 41.6491 10.6937 120
    endloop
  endfacet
  facet normal 0 0 1
    outer loop
      vertex 43 0 120
      vertex 40.489 0 120
      vertex 42.6609 -5.38933 120
    endloop
  endfacet
  facet normal -0 0 1
    outer loop
      vertex 40.17 -5.07155 120
      vertex 42.6609 -5.38933 120
      vertex 40.489 0 120
    endloop
  endfacet
  facet normal 0 0 1
    outer loop
      vertex 42.6609 5.38933 120
      vertex 40.17 5.07155 120
      vertex 40.489 0 120
    endloop
  endfacet
  facet normal 0 0 1
    outer loop
      vertex 42.6609 5.38933 120
      vertex 40.1698 5.07462 120
      vertex 40.17 5.07155 120
    endloop
  endfacet
  facet normal 0 0 1
    outer loop
      vertex 42.6609 5.38933 120
      vertex 40.1692 5.07765 120
      vertex 40.1698 5.07462 120
    endloop
  endfacet
  facet normal 0 0 1
    outer loop
      vertex 39.2161 10.0721 120
      vertex 41.6491 10.6937 120
      vertex 39.9804 15.8294 120
    endloop
  endfacet
  facet normal 0 0 1
    outer loop
      vertex 41.6491 10.6937 120
      vertex 39.217 10.0692 120
      vertex 40.1692 5.07765 120
    endloop
  endfacet
  facet normal 0 0 1
    outer loop
      vertex 41.6491 10.6937 120
      vertex 39.2161 10.0721 120
      vertex 39.217 10.0692 120
    endloop
  endfacet
  facet normal 0 0 1
    outer loop
      vertex 37.6444 14.9078 120
      vertex 39.9804 15.8294 120
      vertex 37.6812 20.7154 120
    endloop
  endfacet
  facet normal 0 0 1
    outer loop
      vertex 39.9804 15.8294 120
      vertex 37.6458 14.905 120
      vertex 39.2161 10.0721 120
    endloop
  endfacet
  facet normal 0 0 1
    outer loop
      vertex 39.9804 15.8294 120
      vertex 37.6444 14.9078 120
      vertex 37.6458 14.905 120
    endloop
  endfacet
  facet normal 0 0 1
    outer loop
      vertex 37.6812 20.7154 120
      vertex 35.4808 19.5057 120
      vertex 37.6444 14.9078 120
    endloop
  endfacet
  facet normal 0 0 1
    outer loop
      vertex 34.7877 25.2748 120
      vertex 35.4808 19.5057 120
      vertex 37.6812 20.7154 120
    endloop
  endfacet
  facet normal 0 0 1
    outer loop
      vertex 34.7877 25.2748 120
      vertex 32.758 23.7963 120
      vertex 35.4808 19.5057 120
    endloop
  endfacet
  facet normal 0 0 1
    outer loop
      vertex 34.7877 25.2748 120
      vertex 32.7563 23.7989 120
      vertex 32.758 23.7963 120
    endloop
  endfacet
  facet normal 0 0 1
    outer loop
      vertex 34.7877 25.2748 120
      vertex 32.7544 23.8012 120
      vertex 32.7563 23.7989 120
    endloop
  endfacet
  facet normal 0 0 1
    outer loop
      vertex 31.3456 29.4355 120
      vertex 32.7544 23.8012 120
      vertex 34.7877 25.2748 120
    endloop
  endfacet
  facet normal 0 0 1
    outer loop
      vertex 31.3456 29.4355 120
      vertex 29.5152 27.7167 120
      vertex 32.7544 23.8012 120
    endloop
  endfacet
  facet normal 0 0 1
    outer loop
      vertex 27.4092 33.1321 120
      vertex 29.5152 27.7167 120
      vertex 31.3456 29.4355 120
    endloop
  endfacet
  facet normal 0 0 1
    outer loop
      vertex 27.4092 33.1321 120
      vertex 25.8109 31.1952 120
      vertex 29.5152 27.7167 120
    endloop
  endfacet
  facet normal 0 0 1
    outer loop
      vertex 27.4092 33.1321 120
      vertex 25.8087 31.1973 120
      vertex 25.8109 31.1952 120
    endloop
  endfacet
  facet normal 0 0 1
    outer loop
      vertex 23.0406 36.3061 120
      vertex 25.8087 31.1973 120
      vertex 27.4092 33.1321 120
    endloop
  endfacet
  facet normal 0 0 1
    outer loop
      vertex 23.0406 36.3061 120
      vertex 21.6976 34.1842 120
      vertex 25.8087 31.1973 120
    endloop
  endfacet
  facet normal 0 0 1
    outer loop
      vertex 23.0406 36.3061 120
      vertex 21.6951 34.186 120
      vertex 21.6976 34.1842 120
    endloop
  endfacet
  facet normal 0 0 1
    outer loop
      vertex 23.0406 36.3061 120
      vertex 21.6924 34.1875 120
      vertex 21.6951 34.186 120
    endloop
  endfacet
  facet normal 0 0 1
    outer loop
      vertex 18.3085 38.9076 120
      vertex 21.6924 34.1875 120
      vertex 23.0406 36.3061 120
    endloop
  endfacet
  facet normal 0 0 1
    outer loop
      vertex 18.3085 38.9076 120
      vertex 17.2394 36.6356 120
      vertex 21.6924 34.1875 120
    endloop
  endfacet
  facet normal 0 0 1
    outer loop
      vertex 13.2877 40.8954 120
      vertex 17.2394 36.6356 120
      vertex 18.3085 38.9076 120
    endloop
  endfacet
  facet normal 0 0 1
    outer loop
      vertex 13.2877 40.8954 120
      vertex 12.5147 38.5062 120
      vertex 17.2394 36.6356 120
    endloop
  endfacet
  facet normal 0 0 1
    outer loop
      vertex 13.2877 40.8954 120
      vertex 12.5118 38.5074 120
      vertex 12.5147 38.5062 120
    endloop
  endfacet
  facet normal 0 0 1
    outer loop
      vertex 13.2877 40.8954 120
      vertex 12.5088 38.5081 120
      vertex 12.5118 38.5074 120
    endloop
  endfacet
  facet normal 0 0 1
    outer loop
      vertex 8.0574 42.2383 120
      vertex 12.5088 38.5081 120
      vertex 13.2877 40.8954 120
    endloop
  endfacet
  facet normal 0 0 1
    outer loop
      vertex 8.0574 42.2383 120
      vertex 7.58689 39.7719 120
      vertex 12.5088 38.5081 120
    endloop
  endfacet
  facet normal 0 0 1
    outer loop
      vertex 2.69999 42.9151 120
      vertex 7.58689 39.7719 120
      vertex 8.0574 42.2383 120
    endloop
  endfacet
  facet normal 0 0 1
    outer loop
      vertex 2.69999 42.9151 120
      vertex 2.54539 40.4088 120
      vertex 7.58689 39.7719 120
    endloop
  endfacet
  facet normal 0 0 1
    outer loop
      vertex 2.69999 42.9151 120
      vertex 2.54233 40.4091 120
      vertex 2.54539 40.4088 120
    endloop
  endfacet
  facet normal 0 0 1
    outer loop
      vertex 2.69999 42.9151 120
      vertex -2.54233 40.4091 120
      vertex 2.54233 40.4091 120
    endloop
  endfacet
  facet normal -0 0 1
    outer loop
      vertex -2.69999 42.9151 120
      vertex -2.54233 40.4091 120
      vertex 2.69999 42.9151 120
    endloop
  endfacet
  facet normal 0 0 1
    outer loop
      vertex -2.54233 40.4091 120
      vertex -2.69999 42.9151 120
      vertex -2.54539 40.4088 120
    endloop
  endfacet
  facet normal 0 0 1
    outer loop
      vertex -2.69999 42.9151 120
      vertex -7.58689 39.7719 120
      vertex -2.54539 40.4088 120
    endloop
  endfacet
  facet normal -0 0 1
    outer loop
      vertex -8.0574 42.2383 120
      vertex -7.58689 39.7719 120
      vertex -2.69999 42.9151 120
    endloop
  endfacet
  facet normal 0 0 1
    outer loop
      vertex -8.0574 42.2383 120
      vertex -12.5088 38.5081 120
      vertex -7.58689 39.7719 120
    endloop
  endfacet
  facet normal -0 0 1
    outer loop
      vertex -13.2877 40.8954 120
      vertex -12.5088 38.5081 120
      vertex -8.0574 42.2383 120
    endloop
  endfacet
  facet normal 0 0 1
    outer loop
      vertex -12.5088 38.5081 120
      vertex -13.2877 40.8954 120
      vertex -12.5118 38.5074 120
    endloop
  endfacet
  facet normal 0 0 1
    outer loop
      vertex -12.5118 38.5074 120
      vertex -13.2877 40.8954 120
      vertex -12.5147 38.5062 120
    endloop
  endfacet
  facet normal 0 0 1
    outer loop
      vertex -13.2877 40.8954 120
      vertex -17.2394 36.6356 120
      vertex -12.5147 38.5062 120
    endloop
  endfacet
  facet normal -0 0 1
    outer loop
      vertex -18.3085 38.9076 120
      vertex -17.2394 36.6356 120
      vertex -13.2877 40.8954 120
    endloop
  endfacet
  facet normal 0 0 1
    outer loop
      vertex -18.3085 38.9076 120
      vertex -21.6924 34.1875 120
      vertex -17.2394 36.6356 120
    endloop
  endfacet
  facet normal -0 0 1
    outer loop
      vertex -23.0406 36.3061 120
      vertex -21.6924 34.1875 120
      vertex -18.3085 38.9076 120
    endloop
  endfacet
  facet normal 0 0 1
    outer loop
      vertex -21.6924 34.1875 120
      vertex -23.0406 36.3061 120
      vertex -21.6951 34.186 120
    endloop
  endfacet
  facet normal 0 0 1
    outer loop
      vertex -21.6951 34.186 120
      vertex -23.0406 36.3061 120
      vertex -21.6976 34.1842 120
    endloop
  endfacet
  facet normal 0 0 1
    outer loop
      vertex -23.0406 36.3061 120
      vertex -25.8087 31.1973 120
      vertex -21.6976 34.1842 120
    endloop
  endfacet
  facet normal -0 0 1
    outer loop
      vertex -27.4092 33.1321 120
      vertex -25.8087 31.1973 120
      vertex -23.0406 36.3061 120
    endloop
  endfacet
  facet normal 0 0 1
    outer loop
      vertex -25.8087 31.1973 120
      vertex -27.4092 33.1321 120
      vertex -25.8109 31.1952 120
    endloop
  endfacet
  facet normal 0 0 1
    outer loop
      vertex -27.4092 33.1321 120
      vertex -29.5152 27.7167 120
      vertex -25.8109 31.1952 120
    endloop
  endfacet
  facet normal -0 0 1
    outer loop
      vertex -31.3456 29.4355 120
      vertex -29.5152 27.7167 120
      vertex -27.4092 33.1321 120
    endloop
  endfacet
  facet normal 0 0 1
    outer loop
      vertex -31.3456 29.4355 120
      vertex -32.7544 23.8012 120
      vertex -29.5152 27.7167 120
    endloop
  endfacet
  facet normal -0 0 1
    outer loop
      vertex -34.7877 25.2748 120
      vertex -32.7544 23.8012 120
      vertex -31.3456 29.4355 120
    endloop
  endfacet
  facet normal 0 0 1
    outer loop
      vertex -32.7544 23.8012 120
      vertex -34.7877 25.2748 120
      vertex -32.7563 23.7989 120
    endloop
  endfacet
  facet normal 0 0 1
    outer loop
      vertex -32.7563 23.7989 120
      vertex -34.7877 25.2748 120
      vertex -32.758 23.7963 120
    endloop
  endfacet
  facet normal 0 0 1
    outer loop
      vertex -34.7877 25.2748 120
      vertex -35.4808 19.5057 120
      vertex -32.758 23.7963 120
    endloop
  endfacet
  facet normal -0 0 1
    outer loop
      vertex -37.6812 20.7154 120
      vertex -35.4808 19.5057 120
      vertex -34.7877 25.2748 120
    endloop
  endfacet
  facet normal 0 0 1
    outer loop
      vertex -35.4808 19.5057 120
      vertex -37.6812 20.7154 120
      vertex -37.6444 14.9078 120
    endloop
  endfacet
  facet normal -0 0 1
    outer loop
      vertex -39.9804 15.8294 120
      vertex -37.6444 14.9078 120
      vertex -37.6812 20.7154 120
    endloop
  endfacet
  facet normal 0 0 1
    outer loop
      vertex -37.6444 14.9078 120
      vertex -39.9804 15.8294 120
      vertex -37.6458 14.905 120
    endloop
  endfacet
  facet normal 0 0 1
    outer loop
      vertex -37.6458 14.905 120
      vertex -39.9804 15.8294 120
      vertex -39.2161 10.0721 120
    endloop
  endfacet
  facet normal -0 0 1
    outer loop
      vertex -41.6491 10.6937 120
      vertex -39.2161 10.0721 120
      vertex -39.9804 15.8294 120
    endloop
  endfacet
  facet normal 0 0 1
    outer loop
      vertex -39.2161 10.0721 120
      vertex -41.6491 10.6937 120
      vertex -39.217 10.0692 120
    endloop
  endfacet
  facet normal 0 0 1
    outer loop
      vertex -39.217 10.0692 120
      vertex -41.6491 10.6937 120
      vertex -40.1692 5.07765 120
    endloop
  endfacet
  facet normal -0 0 1
    outer loop
      vertex -42.6609 5.38933 120
      vertex -40.1692 5.07765 120
      vertex -41.6491 10.6937 120
    endloop
  endfacet
  facet normal 0 0 1
    outer loop
      vertex -40.1692 5.07765 120
      vertex -42.6609 5.38933 120
      vertex -40.1698 5.07462 120
    endloop
  endfacet
  facet normal 0 0 1
    outer loop
      vertex -40.1698 5.07462 120
      vertex -42.6609 5.38933 120
      vertex -40.17 5.07155 120
    endloop
  endfacet
  facet normal -0 0 1
    outer loop
      vertex 40.1698 -5.07462 120
      vertex 42.6609 -5.38933 120
      vertex 40.17 -5.07155 120
    endloop
  endfacet
  facet normal -0 0 1
    outer loop
      vertex 40.1692 -5.07765 120
      vertex 42.6609 -5.38933 120
      vertex 40.1698 -5.07462 120
    endloop
  endfacet
  facet normal 0 0 1
    outer loop
      vertex 42.6609 -5.38933 120
      vertex 40.1692 -5.07765 120
      vertex 41.6491 -10.6937 120
    endloop
  endfacet
  facet normal -0 0 1
    outer loop
      vertex 39.217 -10.0692 120
      vertex 41.6491 -10.6937 120
      vertex 40.1692 -5.07765 120
    endloop
  endfacet
  facet normal -0 0 1
    outer loop
      vertex 39.2161 -10.0721 120
      vertex 41.6491 -10.6937 120
      vertex 39.217 -10.0692 120
    endloop
  endfacet
  facet normal 0 0 1
    outer loop
      vertex 41.6491 -10.6937 120
      vertex 39.2161 -10.0721 120
      vertex 39.9804 -15.8294 120
    endloop
  endfacet
  facet normal -0 0 1
    outer loop
      vertex 37.6458 -14.905 120
      vertex 39.9804 -15.8294 120
      vertex 39.2161 -10.0721 120
    endloop
  endfacet
  facet normal -0 0 1
    outer loop
      vertex 37.6444 -14.9078 120
      vertex 39.9804 -15.8294 120
      vertex 37.6458 -14.905 120
    endloop
  endfacet
  facet normal 0 0 1
    outer loop
      vertex 39.9804 -15.8294 120
      vertex 37.6444 -14.9078 120
      vertex 37.6812 -20.7154 120
    endloop
  endfacet
  facet normal -0 0 1
    outer loop
      vertex 35.4808 -19.5057 120
      vertex 37.6812 -20.7154 120
      vertex 37.6444 -14.9078 120
    endloop
  endfacet
  facet normal 0 0 1
    outer loop
      vertex 35.4808 -19.5057 120
      vertex 34.7877 -25.2748 120
      vertex 37.6812 -20.7154 120
    endloop
  endfacet
  facet normal -0 0 1
    outer loop
      vertex 32.758 -23.7963 120
      vertex 34.7877 -25.2748 120
      vertex 35.4808 -19.5057 120
    endloop
  endfacet
  facet normal -0 0 1
    outer loop
      vertex 32.7563 -23.7989 120
      vertex 34.7877 -25.2748 120
      vertex 32.758 -23.7963 120
    endloop
  endfacet
  facet normal -0 0 1
    outer loop
      vertex 32.7544 -23.8012 120
      vertex 34.7877 -25.2748 120
      vertex 32.7563 -23.7989 120
    endloop
  endfacet
  facet normal 0 0 1
    outer loop
      vertex 32.7544 -23.8012 120
      vertex 31.3456 -29.4355 120
      vertex 34.7877 -25.2748 120
    endloop
  endfacet
  facet normal -0 0 1
    outer loop
      vertex 29.5152 -27.7167 120
      vertex 31.3456 -29.4355 120
      vertex 32.7544 -23.8012 120
    endloop
  endfacet
  facet normal 0 0 1
    outer loop
      vertex 29.5152 -27.7167 120
      vertex 27.4092 -33.1321 120
      vertex 31.3456 -29.4355 120
    endloop
  endfacet
  facet normal -0 0 1
    outer loop
      vertex 25.8109 -31.1952 120
      vertex 27.4092 -33.1321 120
      vertex 29.5152 -27.7167 120
    endloop
  endfacet
  facet normal -0 0 1
    outer loop
      vertex 25.8087 -31.1973 120
      vertex 27.4092 -33.1321 120
      vertex 25.8109 -31.1952 120
    endloop
  endfacet
  facet normal 0 0 1
    outer loop
      vertex 25.8087 -31.1973 120
      vertex 23.0406 -36.3061 120
      vertex 27.4092 -33.1321 120
    endloop
  endfacet
  facet normal -0 0 1
    outer loop
      vertex 21.6976 -34.1842 120
      vertex 23.0406 -36.3061 120
      vertex 25.8087 -31.1973 120
    endloop
  endfacet
  facet normal -0 0 1
    outer loop
      vertex 21.6951 -34.186 120
      vertex 23.0406 -36.3061 120
      vertex 21.6976 -34.1842 120
    endloop
  endfacet
  facet normal -0 0 1
    outer loop
      vertex 21.6924 -34.1875 120
      vertex 23.0406 -36.3061 120
      vertex 21.6951 -34.186 120
    endloop
  endfacet
  facet normal 0 0 1
    outer loop
      vertex 21.6924 -34.1875 120
      vertex 18.3085 -38.9076 120
      vertex 23.0406 -36.3061 120
    endloop
  endfacet
  facet normal -0 0 1
    outer loop
      vertex 17.2394 -36.6356 120
      vertex 18.3085 -38.9076 120
      vertex 21.6924 -34.1875 120
    endloop
  endfacet
  facet normal 0 0 1
    outer loop
      vertex 17.2394 -36.6356 120
      vertex 13.2877 -40.8954 120
      vertex 18.3085 -38.9076 120
    endloop
  endfacet
  facet normal -0 0 1
    outer loop
      vertex 12.5147 -38.5062 120
      vertex 13.2877 -40.8954 120
      vertex 17.2394 -36.6356 120
    endloop
  endfacet
  facet normal -0 0 1
    outer loop
      vertex 12.5118 -38.5074 120
      vertex 13.2877 -40.8954 120
      vertex 12.5147 -38.5062 120
    endloop
  endfacet
  facet normal -0 0 1
    outer loop
      vertex 12.5088 -38.5081 120
      vertex 13.2877 -40.8954 120
      vertex 12.5118 -38.5074 120
    endloop
  endfacet
  facet normal 0 0 1
    outer loop
      vertex 12.5088 -38.5081 120
      vertex 8.0574 -42.2383 120
      vertex 13.2877 -40.8954 120
    endloop
  endfacet
  facet normal -0 0 1
    outer loop
      vertex 7.58689 -39.7719 120
      vertex 8.0574 -42.2383 120
      vertex 12.5088 -38.5081 120
    endloop
  endfacet
  facet normal 0 0 1
    outer loop
      vertex 7.58689 -39.7719 120
      vertex 2.69999 -42.9151 120
      vertex 8.0574 -42.2383 120
    endloop
  endfacet
  facet normal -0 0 1
    outer loop
      vertex 2.54539 -40.4088 120
      vertex 2.69999 -42.9151 120
      vertex 7.58689 -39.7719 120
    endloop
  endfacet
  facet normal -0 0 1
    outer loop
      vertex 2.54233 -40.4091 120
      vertex 2.69999 -42.9151 120
      vertex 2.54539 -40.4088 120
    endloop
  endfacet
  facet normal -0 0 1
    outer loop
      vertex -2.54233 -40.4091 120
      vertex 2.69999 -42.9151 120
      vertex 2.54233 -40.4091 120
    endloop
  endfacet
  facet normal 0 0 1
    outer loop
      vertex -2.69999 -42.9151 120
      vertex -2.54233 -40.4091 120
      vertex -2.54539 -40.4088 120
    endloop
  endfacet
  facet normal 0 0 1
    outer loop
      vertex -2.54233 -40.4091 120
      vertex -2.69999 -42.9151 120
      vertex 2.69999 -42.9151 120
    endloop
  endfacet
  facet normal 0 0 1
    outer loop
      vertex -7.58689 -39.7719 120
      vertex -2.69999 -42.9151 120
      vertex -2.54539 -40.4088 120
    endloop
  endfacet
  facet normal 0 0 1
    outer loop
      vertex -7.58689 -39.7719 120
      vertex -8.0574 -42.2383 120
      vertex -2.69999 -42.9151 120
    endloop
  endfacet
  facet normal 0 0 1
    outer loop
      vertex -12.5088 -38.5081 120
      vertex -8.0574 -42.2383 120
      vertex -7.58689 -39.7719 120
    endloop
  endfacet
  facet normal 0 0 1
    outer loop
      vertex -13.2877 -40.8954 120
      vertex -12.5088 -38.5081 120
      vertex -12.5118 -38.5074 120
    endloop
  endfacet
  facet normal 0 0 1
    outer loop
      vertex -13.2877 -40.8954 120
      vertex -12.5118 -38.5074 120
      vertex -12.5147 -38.5062 120
    endloop
  endfacet
  facet normal 0 0 1
    outer loop
      vertex -12.5088 -38.5081 120
      vertex -13.2877 -40.8954 120
      vertex -8.0574 -42.2383 120
    endloop
  endfacet
  facet normal 0 0 1
    outer loop
      vertex -17.2394 -36.6356 120
      vertex -13.2877 -40.8954 120
      vertex -12.5147 -38.5062 120
    endloop
  endfacet
  facet normal 0 0 1
    outer loop
      vertex -17.2394 -36.6356 120
      vertex -18.3085 -38.9076 120
      vertex -13.2877 -40.8954 120
    endloop
  endfacet
  facet normal 0 0 1
    outer loop
      vertex -21.6924 -34.1875 120
      vertex -18.3085 -38.9076 120
      vertex -17.2394 -36.6356 120
    endloop
  endfacet
  facet normal 0 0 1
    outer loop
      vertex -23.0406 -36.3061 120
      vertex -21.6924 -34.1875 120
      vertex -21.6951 -34.186 120
    endloop
  endfacet
  facet normal 0 0 1
    outer loop
      vertex -23.0406 -36.3061 120
      vertex -21.6951 -34.186 120
      vertex -21.6976 -34.1842 120
    endloop
  endfacet
  facet normal 0 0 1
    outer loop
      vertex -21.6924 -34.1875 120
      vertex -23.0406 -36.3061 120
      vertex -18.3085 -38.9076 120
    endloop
  endfacet
  facet normal 0 0 1
    outer loop
      vertex -25.8087 -31.1973 120
      vertex -23.0406 -36.3061 120
      vertex -21.6976 -34.1842 120
    endloop
  endfacet
  facet normal 0 0 1
    outer loop
      vertex -27.4092 -33.1321 120
      vertex -25.8087 -31.1973 120
      vertex -25.8109 -31.1952 120
    endloop
  endfacet
  facet normal 0 0 1
    outer loop
      vertex -25.8087 -31.1973 120
      vertex -27.4092 -33.1321 120
      vertex -23.0406 -36.3061 120
    endloop
  endfacet
  facet normal 0 0 1
    outer loop
      vertex -29.5152 -27.7167 120
      vertex -27.4092 -33.1321 120
      vertex -25.8109 -31.1952 120
    endloop
  endfacet
  facet normal 0 0 1
    outer loop
      vertex -29.5152 -27.7167 120
      vertex -31.3456 -29.4355 120
      vertex -27.4092 -33.1321 120
    endloop
  endfacet
  facet normal 0 0 1
    outer loop
      vertex -32.7544 -23.8012 120
      vertex -31.3456 -29.4355 120
      vertex -29.5152 -27.7167 120
    endloop
  endfacet
  facet normal 0 0 1
    outer loop
      vertex -34.7877 -25.2748 120
      vertex -32.7544 -23.8012 120
      vertex -32.7563 -23.7989 120
    endloop
  endfacet
  facet normal 0 0 1
    outer loop
      vertex -34.7877 -25.2748 120
      vertex -32.7563 -23.7989 120
      vertex -32.758 -23.7963 120
    endloop
  endfacet
  facet normal 0 0 1
    outer loop
      vertex -32.7544 -23.8012 120
      vertex -34.7877 -25.2748 120
      vertex -31.3456 -29.4355 120
    endloop
  endfacet
  facet normal 0 0 1
    outer loop
      vertex -35.4808 -19.5057 120
      vertex -34.7877 -25.2748 120
      vertex -32.758 -23.7963 120
    endloop
  endfacet
  facet normal 0 0 1
    outer loop
      vertex -37.6812 -20.7154 120
      vertex -35.4808 -19.5057 120
      vertex -37.6444 -14.9078 120
    endloop
  endfacet
  facet normal 0 0 1
    outer loop
      vertex -39.9804 -15.8294 120
      vertex -37.6444 -14.9078 120
      vertex -37.6458 -14.905 120
    endloop
  endfacet
  facet normal 0 0 1
    outer loop
      vertex -35.4808 -19.5057 120
      vertex -37.6812 -20.7154 120
      vertex -34.7877 -25.2748 120
    endloop
  endfacet
  facet normal 0 0 1
    outer loop
      vertex -39.9804 -15.8294 120
      vertex -37.6458 -14.905 120
      vertex -39.2161 -10.0721 120
    endloop
  endfacet
  facet normal 0 0 1
    outer loop
      vertex -41.6491 -10.6937 120
      vertex -39.2161 -10.0721 120
      vertex -39.217 -10.0692 120
    endloop
  endfacet
  facet normal 0 0 1
    outer loop
      vertex -37.6444 -14.9078 120
      vertex -39.9804 -15.8294 120
      vertex -37.6812 -20.7154 120
    endloop
  endfacet
  facet normal 0 0 1
    outer loop
      vertex -41.6491 -10.6937 120
      vertex -39.217 -10.0692 120
      vertex -40.1692 -5.07765 120
    endloop
  endfacet
  facet normal 0 0 1
    outer loop
      vertex -42.6609 -5.38933 120
      vertex -40.1692 -5.07765 120
      vertex -40.1698 -5.07462 120
    endloop
  endfacet
  facet normal 0 0 1
    outer loop
      vertex -42.6609 -5.38933 120
      vertex -40.1698 -5.07462 120
      vertex -40.17 -5.07155 120
    endloop
  endfacet
  facet normal 0 0 1
    outer loop
      vertex -42.6609 -5.38933 120
      vertex -40.17 -5.07155 120
      vertex -40.489 0 120
    endloop
  endfacet
  facet normal 0 0 1
    outer loop
      vertex -40.17 5.07155 120
      vertex -42.6609 5.38933 120
      vertex -40.489 0 120
    endloop
  endfacet
  facet normal 0 0 1
    outer loop
      vertex -39.2161 -10.0721 120
      vertex -41.6491 -10.6937 120
      vertex -39.9804 -15.8294 120
    endloop
  endfacet
  facet normal 0 0 1
    outer loop
      vertex -43 0 120
      vertex -40.489 0 120
      vertex -42.6609 5.38933 120
    endloop
  endfacet
  facet normal 0 0 1
    outer loop
      vertex -40.1692 -5.07765 120
      vertex -42.6609 -5.38933 120
      vertex -41.6491 -10.6937 120
    endloop
  endfacet
  facet normal 0 0 1
    outer loop
      vertex -40.489 0 120
      vertex -43 0 120
      vertex -42.6609 -5.38933 120
    endloop
  endfacet
  facet normal 0.478048 0.869566 -0.123794
    outer loop
      vertex 23.0406 36.3061 120
      vertex 11.9218 25.3352 0
      vertex 18.3085 38.9076 120
    endloop
  endfacet
  facet normal 0.365293 0.922625 -0.123794
    outer loop
      vertex 11.9218 25.3352 0
      vertex 8.65248 26.6296 0
      vertex 18.3085 38.9076 120
    endloop
  endfacet
  facet normal -0.124369 0.984483 -0.123794
    outer loop
      vertex -1.75813 27.9447 0
      vertex -5.24668 27.504 0
      vertex -2.69999 42.9151 120
    endloop
  endfacet
  facet normal 0.837833 0.531705 -0.123794
    outer loop
      vertex 24.5366 13.4891 0
      vertex 22.6525 16.458 0
      vertex 37.6812 20.7154 120
    endloop
  endfacet
  facet normal 0.365293 -0.922625 -0.123794
    outer loop
      vertex 18.3085 -38.9076 120
      vertex 8.65248 -26.6296 0
      vertex 11.9218 -25.3352 0
    endloop
  endfacet
  facet normal 0.583264 -0.802794 -0.123794
    outer loop
      vertex 23.0406 -36.3061 120
      vertex 15.0031 -23.6412 0
      vertex 17.8479 -21.5744 0
    endloop
  endfacet
  facet normal -0.124369 -0.984483 -0.123794
    outer loop
      vertex -2.69999 -42.9151 120
      vertex -5.24668 -27.504 0
      vertex -1.75813 -27.9447 0
    endloop
  endfacet
  facet normal -0.897867 -0.422504 -0.123794
    outer loop
      vertex -24.5366 -13.4891 0
      vertex -39.9804 -15.8294 120
      vertex -26.0337 -10.3075 0
    endloop
  endfacet
  facet normal -0.679281 0.723361 -0.123794
    outer loop
      vertex -20.4111 19.1673 0
      vertex -27.4092 33.1321 120
      vertex -17.8479 21.5744 0
    endloop
  endfacet
  facet normal -0.583264 0.802794 -0.123794
    outer loop
      vertex -17.8479 21.5744 0
      vertex -23.0406 36.3061 120
      vertex -15.0031 23.6412 0
    endloop
  endfacet
  facet normal -0.478048 0.869566 -0.123794
    outer loop
      vertex -15.0031 23.6412 0
      vertex -23.0406 36.3061 120
      vertex -11.9218 25.3352 0
    endloop
  endfacet
  facet normal -0.897867 0.422504 -0.123794
    outer loop
      vertex -24.5366 13.4891 0
      vertex -39.9804 15.8294 120
      vertex -37.6812 20.7154 120
    endloop
  endfacet
  facet normal -0.837833 0.531705 -0.123794
    outer loop
      vertex -24.5366 13.4891 0
      vertex -37.6812 20.7154 120
      vertex -22.6525 16.458 0
    endloop
  endfacet
  facet normal -0.974731 0.18594 -0.123794
    outer loop
      vertex -27.7792 3.50933 0
      vertex -41.6491 10.6937 120
      vertex -27.1203 6.96332 0
    endloop
  endfacet
  facet normal 0.478048 0.869566 -0.123794
    outer loop
      vertex 15.0031 23.6412 0
      vertex 11.9218 25.3352 0
      vertex 23.0406 36.3061 120
    endloop
  endfacet
  facet normal 0.583264 0.802794 -0.123794
    outer loop
      vertex 17.8479 21.5744 0
      vertex 15.0031 23.6412 0
      vertex 23.0406 36.3061 120
    endloop
  endfacet
  facet normal 0.246776 0.961133 -0.123794
    outer loop
      vertex 8.65248 26.6296 0
      vertex 8.0574 42.2383 120
      vertex 13.2877 40.8954 120
    endloop
  endfacet
  facet normal 0.679281 0.723361 -0.123794
    outer loop
      vertex 20.4111 19.1673 0
      vertex 17.8479 21.5744 0
      vertex 27.4092 33.1321 120
    endloop
  endfacet
  facet normal 0.679282 0.723361 -0.123794
    outer loop
      vertex 31.3456 29.4355 120
      vertex 20.4111 19.1673 0
      vertex 27.4092 33.1321 120
    endloop
  endfacet
  facet normal 0.943741 0.30664 -0.123794
    outer loop
      vertex 41.6491 10.6937 120
      vertex 27.1203 6.96332 0
      vertex 39.9804 15.8294 120
    endloop
  endfacet
  facet normal -0.12437 -0.984483 -0.123794
    outer loop
      vertex -2.69999 -42.9151 120
      vertex -8.0574 -42.2383 120
      vertex -5.24668 -27.504 0
    endloop
  endfacet
  facet normal -0.246777 -0.961133 -0.123794
    outer loop
      vertex -8.0574 -42.2383 120
      vertex -8.65248 -26.6296 0
      vertex -5.24668 -27.504 0
    endloop
  endfacet
  facet normal 0 0 -1
    outer loop
      vertex 27.7792 -3.50933 0
      vertex 27.7792 3.50933 0
      vertex 28 0 0
    endloop
  endfacet
  facet normal 0 0 -1
    outer loop
      vertex 27.1203 -6.96332 0
      vertex 27.7792 3.50933 0
      vertex 27.7792 -3.50933 0
    endloop
  endfacet
  facet normal 0 0 -1
    outer loop
      vertex 27.1203 -6.96332 0
      vertex 27.1203 6.96332 0
      vertex 27.7792 3.50933 0
    endloop
  endfacet
  facet normal 0 0 -1
    outer loop
      vertex 26.0337 -10.3075 0
      vertex 27.1203 6.96332 0
      vertex 27.1203 -6.96332 0
    endloop
  endfacet
  facet normal 0 0 -1
    outer loop
      vertex 26.0337 -10.3075 0
      vertex 26.0337 10.3075 0
      vertex 27.1203 6.96332 0
    endloop
  endfacet
  facet normal 0 0 -1
    outer loop
      vertex 24.5366 -13.4891 0
      vertex 26.0337 10.3075 0
      vertex 26.0337 -10.3075 0
    endloop
  endfacet
  facet normal 0 0 -1
    outer loop
      vertex 24.5366 -13.4891 0
      vertex 24.5366 13.4891 0
      vertex 26.0337 10.3075 0
    endloop
  endfacet
  facet normal 0 0 -1
    outer loop
      vertex 22.6525 -16.458 0
      vertex 24.5366 13.4891 0
      vertex 24.5366 -13.4891 0
    endloop
  endfacet
  facet normal 0 0 -1
    outer loop
      vertex 22.6525 -16.458 0
      vertex 22.6525 16.458 0
      vertex 24.5366 13.4891 0
    endloop
  endfacet
  facet normal 0 0 -1
    outer loop
      vertex 20.4111 -19.1673 0
      vertex 22.6525 16.458 0
      vertex 22.6525 -16.458 0
    endloop
  endfacet
  facet normal 0 0 -1
    outer loop
      vertex 20.4111 -19.1673 0
      vertex 20.4111 19.1673 0
      vertex 22.6525 16.458 0
    endloop
  endfacet
  facet normal 0 0 -1
    outer loop
      vertex 17.8479 -21.5744 0
      vertex 20.4111 19.1673 0
      vertex 20.4111 -19.1673 0
    endloop
  endfacet
  facet normal 0 0 -1
    outer loop
      vertex 17.8479 -21.5744 0
      vertex 17.8479 21.5744 0
      vertex 20.4111 19.1673 0
    endloop
  endfacet
  facet normal 0 0 -1
    outer loop
      vertex 15.0031 -23.6412 0
      vertex 17.8479 21.5744 0
      vertex 17.8479 -21.5744 0
    endloop
  endfacet
  facet normal 0 0 -1
    outer loop
      vertex 15.0031 -23.6412 0
      vertex 15.0031 23.6412 0
      vertex 17.8479 21.5744 0
    endloop
  endfacet
  facet normal 0 0 -1
    outer loop
      vertex 11.9218 -25.3352 0
      vertex 15.0031 23.6412 0
      vertex 15.0031 -23.6412 0
    endloop
  endfacet
  facet normal 0 0 -1
    outer loop
      vertex 11.9218 -25.3352 0
      vertex 11.9218 25.3352 0
      vertex 15.0031 23.6412 0
    endloop
  endfacet
  facet normal 0 0 -1
    outer loop
      vertex 8.65248 -26.6296 0
      vertex 11.9218 25.3352 0
      vertex 11.9218 -25.3352 0
    endloop
  endfacet
  facet normal 0 0 -1
    outer loop
      vertex 8.65248 -26.6296 0
      vertex 8.65248 26.6296 0
      vertex 11.9218 25.3352 0
    endloop
  endfacet
  facet normal 0 0 -1
    outer loop
      vertex 5.24668 -27.504 0
      vertex 8.65248 26.6296 0
      vertex 8.65248 -26.6296 0
    endloop
  endfacet
  facet normal 0 0 -1
    outer loop
      vertex 5.24668 -27.504 0
      vertex 5.24668 27.504 0
      vertex 8.65248 26.6296 0
    endloop
  endfacet
  facet normal 0 0 -1
    outer loop
      vertex 1.75813 -27.9447 0
      vertex 5.24668 27.504 0
      vertex 5.24668 -27.504 0
    endloop
  endfacet
  facet normal 0 0 -1
    outer loop
      vertex 1.75813 -27.9447 0
      vertex 1.75813 27.9447 0
      vertex 5.24668 27.504 0
    endloop
  endfacet
  facet normal 0 0 -1
    outer loop
      vertex -1.75813 -27.9447 0
      vertex 1.75813 27.9447 0
      vertex 1.75813 -27.9447 0
    endloop
  endfacet
  facet normal 0 0 -1
    outer loop
      vertex -1.75813 -27.9447 0
      vertex -1.75813 27.9447 0
      vertex 1.75813 27.9447 0
    endloop
  endfacet
  facet normal 0 0 -1
    outer loop
      vertex -5.24668 -27.504 0
      vertex -1.75813 27.9447 0
      vertex -1.75813 -27.9447 0
    endloop
  endfacet
  facet normal 0 0 -1
    outer loop
      vertex -5.24668 -27.504 0
      vertex -5.24668 27.504 0
      vertex -1.75813 27.9447 0
    endloop
  endfacet
  facet normal 0 0 -1
    outer loop
      vertex -8.65248 -26.6296 0
      vertex -5.24668 27.504 0
      vertex -5.24668 -27.504 0
    endloop
  endfacet
  facet normal 0 0 -1
    outer loop
      vertex -8.65248 -26.6296 0
      vertex -8.65248 26.6296 0
      vertex -5.24668 27.504 0
    endloop
  endfacet
  facet normal 0 0 -1
    outer loop
      vertex -11.9218 -25.3352 0
      vertex -8.65248 26.6296 0
      vertex -8.65248 -26.6296 0
    endloop
  endfacet
  facet normal 0 0 -1
    outer loop
      vertex -11.9218 -25.3352 0
      vertex -11.9218 25.3352 0
      vertex -8.65248 26.6296 0
    endloop
  endfacet
  facet normal 0 0 -1
    outer loop
      vertex -15.0031 -23.6412 0
      vertex -11.9218 25.3352 0
      vertex -11.9218 -25.3352 0
    endloop
  endfacet
  facet normal 0 0 -1
    outer loop
      vertex -15.0031 -23.6412 0
      vertex -15.0031 23.6412 0
      vertex -11.9218 25.3352 0
    endloop
  endfacet
  facet normal 0 0 -1
    outer loop
      vertex -17.8479 -21.5744 0
      vertex -15.0031 23.6412 0
      vertex -15.0031 -23.6412 0
    endloop
  endfacet
  facet normal 0 0 -1
    outer loop
      vertex -17.8479 -21.5744 0
      vertex -17.8479 21.5744 0
      vertex -15.0031 23.6412 0
    endloop
  endfacet
  facet normal 0 0 -1
    outer loop
      vertex -20.4111 -19.1673 0
      vertex -17.8479 21.5744 0
      vertex -17.8479 -21.5744 0
    endloop
  endfacet
  facet normal 0 0 -1
    outer loop
      vertex -20.4111 -19.1673 0
      vertex -20.4111 19.1673 0
      vertex -17.8479 21.5744 0
    endloop
  endfacet
  facet normal 0 0 -1
    outer loop
      vertex -22.6525 -16.458 0
      vertex -20.4111 19.1673 0
      vertex -20.4111 -19.1673 0
    endloop
  endfacet
  facet normal 0 0 -1
    outer loop
      vertex -22.6525 -16.458 0
      vertex -22.6525 16.458 0
      vertex -20.4111 19.1673 0
    endloop
  endfacet
  facet normal 0 0 -1
    outer loop
      vertex -24.5366 -13.4891 0
      vertex -22.6525 16.458 0
      vertex -22.6525 -16.458 0
    endloop
  endfacet
  facet normal 0 0 -1
    outer loop
      vertex -24.5366 -13.4891 0
      vertex -24.5366 13.4891 0
      vertex -22.6525 16.458 0
    endloop
  endfacet
  facet normal 0 0 -1
    outer loop
      vertex -26.0337 -10.3075 0
      vertex -24.5366 13.4891 0
      vertex -24.5366 -13.4891 0
    endloop
  endfacet
  facet normal 0 0 -1
    outer loop
      vertex -26.0337 -10.3075 0
      vertex -26.0337 10.3075 0
      vertex -24.5366 13.4891 0
    endloop
  endfacet
  facet normal 0 0 -1
    outer loop
      vertex -27.1203 -6.96332 0
      vertex -26.0337 10.3075 0
      vertex -26.0337 -10.3075 0
    endloop
  endfacet
  facet normal 0 0 -1
    outer loop
      vertex -27.1203 -6.96332 0
      vertex -27.1203 6.96332 0
      vertex -26.0337 10.3075 0
    endloop
  endfacet
  facet normal 0 0 -1
    outer loop
      vertex -27.7792 -3.50933 0
      vertex -27.1203 6.96332 0
      vertex -27.1203 -6.96332 0
    endloop
  endfacet
  facet normal 0 0 -1
    outer loop
      vertex -27.7792 -3.50933 0
      vertex -27.7792 3.50933 0
      vertex -27.1203 6.96332 0
    endloop
  endfacet
  facet normal 0 -0 -1
    outer loop
      vertex -27.7792 3.50933 0
      vertex -27.7792 -3.50933 0
      vertex -28 0 0
    endloop
  endfacet
  facet normal -0.99035 -0.0623077 -0.123794
    outer loop
      vertex -27.7792 -3.50933 0
      vertex -42.6609 -5.38933 120
      vertex -28 0 0
    endloop
  endfacet
  facet normal 0.124369 0.984483 -0.123794
    outer loop
      vertex 5.24668 27.504 0
      vertex 1.75813 27.9447 0
      vertex 2.69999 42.9151 120
    endloop
  endfacet
  facet normal 0.12437 0.984483 -0.123794
    outer loop
      vertex 5.24668 27.504 0
      vertex 2.69999 42.9151 120
      vertex 8.0574 42.2383 120
    endloop
  endfacet
  facet normal 0.764586 0.632521 -0.123794
    outer loop
      vertex 22.6525 16.458 0
      vertex 20.4111 19.1673 0
      vertex 31.3456 29.4355 120
    endloop
  endfacet
  facet normal 0.764586 0.632521 -0.123794
    outer loop
      vertex 34.7877 25.2748 120
      vertex 22.6525 16.458 0
      vertex 31.3456 29.4355 120
    endloop
  endfacet
  facet normal 0.897867 0.422504 -0.123794
    outer loop
      vertex 26.0337 10.3075 0
      vertex 24.5366 13.4891 0
      vertex 39.9804 15.8294 120
    endloop
  endfacet
  facet normal 0.943741 0.30664 -0.123794
    outer loop
      vertex 27.1203 6.96332 0
      vertex 26.0337 10.3075 0
      vertex 39.9804 15.8294 120
    endloop
  endfacet
  facet normal 0.974731 0.18594 -0.123794
    outer loop
      vertex 42.6609 5.38933 120
      vertex 27.7792 3.50933 0
      vertex 41.6491 10.6937 120
    endloop
  endfacet
  facet normal 0.974731 0.18594 -0.123794
    outer loop
      vertex 27.7792 3.50933 0
      vertex 27.1203 6.96332 0
      vertex 41.6491 10.6937 120
    endloop
  endfacet
  facet normal -0.899467 0.423257 0.108689
    outer loop
      vertex 24.5366 -13.4891 6
      vertex 37.6458 -14.905 120
      vertex 26.0337 -10.3075 6
    endloop
  endfacet
  facet normal -0.899458 0.423275 0.108688
    outer loop
      vertex 37.6458 -14.905 120
      vertex 24.5366 -13.4891 6
      vertex 37.6444 -14.9078 120
    endloop
  endfacet
  facet normal -0.992114 -0.0624182 0.108689
    outer loop
      vertex 40.489 0 120
      vertex 40.17 5.07155 120
      vertex 28 0 6
    endloop
  endfacet
  facet normal -0.992093 -0.0627556 0.108691
    outer loop
      vertex 27.7792 3.50933 6
      vertex 40.17 5.07155 120
      vertex 40.1698 5.07462 120
    endloop
  endfacet
  facet normal -0.992114 -0.0624187 0.108689
    outer loop
      vertex 40.17 5.07155 120
      vertex 27.7792 3.50933 6
      vertex 28 0 6
    endloop
  endfacet
  facet normal -0.945422 0.307186 0.108689
    outer loop
      vertex 37.6458 -14.905 120
      vertex 39.2161 -10.0721 120
      vertex 26.0337 -10.3075 6
    endloop
  endfacet
  facet normal 0.976331 0.186993 0.108684
    outer loop
      vertex -40.1692 -5.07765 120
      vertex -27.7792 -3.50933 6
      vertex -40.1698 -5.07462 120
    endloop
  endfacet
  facet normal 0.976468 0.186271 0.108689
    outer loop
      vertex -27.7792 -3.50933 6
      vertex -40.1692 -5.07765 120
      vertex -27.1203 -6.96332 6
    endloop
  endfacet
  facet normal -0.365944 0.924268 0.108689
    outer loop
      vertex 12.5147 -38.5062 120
      vertex 17.2394 -36.6356 120
      vertex 11.9218 -25.3352 6
    endloop
  endfacet
  facet normal -0.945422 0.307186 0.108689
    outer loop
      vertex 26.0337 -10.3075 6
      vertex 39.217 -10.0692 120
      vertex 27.1203 -6.96332 6
    endloop
  endfacet
  facet normal -0.945286 0.30761 0.108673
    outer loop
      vertex 39.217 -10.0692 120
      vertex 26.0337 -10.3075 6
      vertex 39.2161 -10.0721 120
    endloop
  endfacet
  facet normal -0.765949 0.633648 0.108689
    outer loop
      vertex 29.5152 -27.7167 120
      vertex 32.7544 -23.8012 120
      vertex 20.4111 -19.1673 6
    endloop
  endfacet
  facet normal -0.12459 0.986237 0.108689
    outer loop
      vertex 1.75813 -27.9447 6
      vertex 2.54539 -40.4088 120
      vertex 5.24668 -27.504 6
    endloop
  endfacet
  facet normal -0.124284 0.986276 0.108691
    outer loop
      vertex 2.54539 -40.4088 120
      vertex 1.75813 -27.9447 6
      vertex 2.54233 -40.4091 120
    endloop
  endfacet
  facet normal 0.247217 0.962845 0.108689
    outer loop
      vertex -8.65248 -26.6296 6
      vertex -12.5088 -38.5081 120
      vertex -5.24668 -27.504 6
    endloop
  endfacet
  facet normal 0.247318 0.962819 0.10869
    outer loop
      vertex -12.5088 -38.5081 120
      vertex -8.65248 -26.6296 6
      vertex -12.5118 -38.5074 120
    endloop
  endfacet
  facet normal 0.83922 -0.532819 0.10869
    outer loop
      vertex -32.758 23.7963 120
      vertex -22.6525 16.458 6
      vertex -32.7563 23.7989 120
    endloop
  endfacet
  facet normal 0.839326 -0.532652 0.108689
    outer loop
      vertex -22.6525 16.458 6
      vertex -32.758 23.7963 120
      vertex -24.5366 13.4891 6
    endloop
  endfacet
  facet normal -0.584303 -0.804224 0.108689
    outer loop
      vertex 25.8087 31.1973 120
      vertex 21.6976 34.1842 120
      vertex 17.8479 21.5744 6
    endloop
  endfacet
  facet normal -0.992114 0.0624182 0.108689
    outer loop
      vertex 40.17 -5.07155 120
      vertex 40.489 0 120
      vertex 28 0 6
    endloop
  endfacet
  facet normal -0.976331 0.186993 0.108684
    outer loop
      vertex 27.7792 -3.50933 6
      vertex 40.1692 -5.07765 120
      vertex 40.1698 -5.07462 120
    endloop
  endfacet
  facet normal -0.976468 0.186271 0.108689
    outer loop
      vertex 40.1692 -5.07765 120
      vertex 27.7792 -3.50933 6
      vertex 27.1203 -6.96332 6
    endloop
  endfacet
  facet normal -0.976468 0.186271 0.108689
    outer loop
      vertex 39.217 -10.0692 120
      vertex 40.1692 -5.07765 120
      vertex 27.1203 -6.96332 6
    endloop
  endfacet
  facet normal -0.839326 0.532652 0.108689
    outer loop
      vertex 32.758 -23.7963 120
      vertex 35.4808 -19.5057 120
      vertex 24.5366 -13.4891 6
    endloop
  endfacet
  facet normal -0.899467 0.423257 0.108689
    outer loop
      vertex 35.4808 -19.5057 120
      vertex 37.6444 -14.9078 120
      vertex 24.5366 -13.4891 6
    endloop
  endfacet
  facet normal -0.478899 0.871115 0.108689
    outer loop
      vertex 17.2394 -36.6356 120
      vertex 21.6924 -34.1875 120
      vertex 11.9218 -25.3352 6
    endloop
  endfacet
  facet normal 0.976468 0.186271 0.108689
    outer loop
      vertex -39.217 -10.0692 120
      vertex -27.1203 -6.96332 6
      vertex -40.1692 -5.07765 120
    endloop
  endfacet
  facet normal 0.247318 -0.962819 0.10869
    outer loop
      vertex -8.65248 26.6296 6
      vertex -12.5088 38.5081 120
      vertex -12.5118 38.5074 120
    endloop
  endfacet
  facet normal 0.247217 -0.962845 0.108689
    outer loop
      vertex -12.5088 38.5081 120
      vertex -8.65248 26.6296 6
      vertex -5.24668 27.504 6
    endloop
  endfacet
  facet normal 0.976468 -0.186271 0.108689
    outer loop
      vertex -27.1203 6.96332 6
      vertex -39.217 10.0692 120
      vertex -40.1692 5.07765 120
    endloop
  endfacet
  facet normal -0.976333 -0.186993 0.108662
    outer loop
      vertex 27.1203 6.96332 6
      vertex 40.1698 5.07462 120
      vertex 40.1692 5.07765 120
    endloop
  endfacet
  facet normal -0.976468 -0.186271 0.108689
    outer loop
      vertex 40.1698 5.07462 120
      vertex 27.1203 6.96332 6
      vertex 27.7792 3.50933 6
    endloop
  endfacet
  facet normal -0.992114 0.0624187 0.108689
    outer loop
      vertex 27.7792 -3.50933 6
      vertex 40.17 -5.07155 120
      vertex 28 0 6
    endloop
  endfacet
  facet normal -0.992093 0.0627556 0.108691
    outer loop
      vertex 40.17 -5.07155 120
      vertex 27.7792 -3.50933 6
      vertex 40.1698 -5.07462 120
    endloop
  endfacet
  facet normal -0.765949 0.633648 0.108689
    outer loop
      vertex 20.4111 -19.1673 6
      vertex 32.7563 -23.7989 120
      vertex 22.6525 -16.458 6
    endloop
  endfacet
  facet normal -0.765935 0.633665 0.108688
    outer loop
      vertex 32.7563 -23.7989 120
      vertex 20.4111 -19.1673 6
      vertex 32.7544 -23.8012 120
    endloop
  endfacet
  facet normal -0.247217 0.962845 0.108689
    outer loop
      vertex 7.58689 -39.7719 120
      vertex 12.5088 -38.5081 120
      vertex 5.24668 -27.504 6
    endloop
  endfacet
  facet normal -0.124591 0.986237 0.108689
    outer loop
      vertex 7.58689 -39.7719 120
      vertex 5.24668 -27.504 6
      vertex 2.54539 -40.4088 120
    endloop
  endfacet
  facet normal -0.478946 0.87109 0.108689
    outer loop
      vertex 15.0031 -23.6412 6
      vertex 21.6924 -34.1875 120
      vertex 21.6951 -34.186 120
    endloop
  endfacet
  facet normal -0.4789 0.871115 0.108689
    outer loop
      vertex 21.6924 -34.1875 120
      vertex 15.0031 -23.6412 6
      vertex 11.9218 -25.3352 6
    endloop
  endfacet
  facet normal -0.680492 0.72465 0.108689
    outer loop
      vertex 25.8109 -31.1952 120
      vertex 29.5152 -27.7167 120
      vertex 20.4111 -19.1673 6
    endloop
  endfacet
  facet normal 0.945286 0.30761 0.108673
    outer loop
      vertex -26.0337 -10.3075 6
      vertex -39.217 -10.0692 120
      vertex -39.2161 -10.0721 120
    endloop
  endfacet
  facet normal 0.945422 0.307186 0.108689
    outer loop
      vertex -39.217 -10.0692 120
      vertex -26.0337 -10.3075 6
      vertex -27.1203 -6.96332 6
    endloop
  endfacet
  facet normal 0.765949 0.633648 0.108689
    outer loop
      vertex -32.7563 -23.7989 120
      vertex -20.4111 -19.1673 6
      vertex -22.6525 -16.458 6
    endloop
  endfacet
  facet normal 0.765935 0.633665 0.108688
    outer loop
      vertex -20.4111 -19.1673 6
      vertex -32.7563 -23.7989 120
      vertex -32.7544 -23.8012 120
    endloop
  endfacet
  facet normal 0.365943 0.924268 0.108689
    outer loop
      vertex -11.9218 -25.3352 6
      vertex -12.5118 -38.5074 120
      vertex -8.65248 -26.6296 6
    endloop
  endfacet
  facet normal 0.365474 0.924452 0.108708
    outer loop
      vertex -12.5118 -38.5074 120
      vertex -11.9218 -25.3352 6
      vertex -12.5147 -38.5062 120
    endloop
  endfacet
  facet normal 0.4789 0.871115 0.108689
    outer loop
      vertex -15.0031 -23.6412 6
      vertex -21.6924 -34.1875 120
      vertex -11.9218 -25.3352 6
    endloop
  endfacet
  facet normal 0.478946 0.87109 0.108689
    outer loop
      vertex -21.6924 -34.1875 120
      vertex -15.0031 -23.6412 6
      vertex -21.6951 -34.186 120
    endloop
  endfacet
  facet normal 0.365944 -0.924268 0.108689
    outer loop
      vertex -11.9218 25.3352 6
      vertex -12.5147 38.5062 120
      vertex -17.2394 36.6356 120
    endloop
  endfacet
  facet normal 0 0 1
    outer loop
      vertex 27.7792 3.50933 6
      vertex 27.7792 -3.50933 6
      vertex 28 0 6
    endloop
  endfacet
  facet normal 0 0 1
    outer loop
      vertex 27.1203 6.96332 6
      vertex 27.7792 -3.50933 6
      vertex 27.7792 3.50933 6
    endloop
  endfacet
  facet normal 0 0 1
    outer loop
      vertex 27.1203 6.96332 6
      vertex 27.1203 -6.96332 6
      vertex 27.7792 -3.50933 6
    endloop
  endfacet
  facet normal 0 0 1
    outer loop
      vertex 26.0337 10.3075 6
      vertex 27.1203 -6.96332 6
      vertex 27.1203 6.96332 6
    endloop
  endfacet
  facet normal 0 0 1
    outer loop
      vertex 26.0337 10.3075 6
      vertex 26.0337 -10.3075 6
      vertex 27.1203 -6.96332 6
    endloop
  endfacet
  facet normal 0 0 1
    outer loop
      vertex 24.5366 13.4891 6
      vertex 26.0337 -10.3075 6
      vertex 26.0337 10.3075 6
    endloop
  endfacet
  facet normal 0 0 1
    outer loop
      vertex 24.5366 13.4891 6
      vertex 24.5366 -13.4891 6
      vertex 26.0337 -10.3075 6
    endloop
  endfacet
  facet normal 0 0 1
    outer loop
      vertex 22.6525 16.458 6
      vertex 24.5366 -13.4891 6
      vertex 24.5366 13.4891 6
    endloop
  endfacet
  facet normal 0 0 1
    outer loop
      vertex 22.6525 16.458 6
      vertex 22.6525 -16.458 6
      vertex 24.5366 -13.4891 6
    endloop
  endfacet
  facet normal 0 0 1
    outer loop
      vertex 20.4111 19.1673 6
      vertex 22.6525 -16.458 6
      vertex 22.6525 16.458 6
    endloop
  endfacet
  facet normal 0 0 1
    outer loop
      vertex 20.4111 19.1673 6
      vertex 20.4111 -19.1673 6
      vertex 22.6525 -16.458 6
    endloop
  endfacet
  facet normal 0 0 1
    outer loop
      vertex 17.8479 21.5744 6
      vertex 20.4111 -19.1673 6
      vertex 20.4111 19.1673 6
    endloop
  endfacet
  facet normal 0 0 1
    outer loop
      vertex 17.8479 21.5744 6
      vertex 17.8479 -21.5744 6
      vertex 20.4111 -19.1673 6
    endloop
  endfacet
  facet normal 0 0 1
    outer loop
      vertex 15.0031 23.6412 6
      vertex 17.8479 -21.5744 6
      vertex 17.8479 21.5744 6
    endloop
  endfacet
  facet normal 0 0 1
    outer loop
      vertex 15.0031 23.6412 6
      vertex 15.0031 -23.6412 6
      vertex 17.8479 -21.5744 6
    endloop
  endfacet
  facet normal 0 0 1
    outer loop
      vertex 11.9218 25.3352 6
      vertex 15.0031 -23.6412 6
      vertex 15.0031 23.6412 6
    endloop
  endfacet
  facet normal 0 0 1
    outer loop
      vertex 11.9218 25.3352 6
      vertex 11.9218 -25.3352 6
      vertex 15.0031 -23.6412 6
    endloop
  endfacet
  facet normal 0 0 1
    outer loop
      vertex 8.65248 26.6296 6
      vertex 11.9218 -25.3352 6
      vertex 11.9218 25.3352 6
    endloop
  endfacet
  facet normal 0 0 1
    outer loop
      vertex 8.65248 26.6296 6
      vertex 8.65248 -26.6296 6
      vertex 11.9218 -25.3352 6
    endloop
  endfacet
  facet normal 0 0 1
    outer loop
      vertex 5.24668 27.504 6
      vertex 8.65248 -26.6296 6
      vertex 8.65248 26.6296 6
    endloop
  endfacet
  facet normal 0 0 1
    outer loop
      vertex 5.24668 27.504 6
      vertex 5.24668 -27.504 6
      vertex 8.65248 -26.6296 6
    endloop
  endfacet
  facet normal 0 0 1
    outer loop
      vertex 1.75813 27.9447 6
      vertex 5.24668 -27.504 6
      vertex 5.24668 27.504 6
    endloop
  endfacet
  facet normal 0 0 1
    outer loop
      vertex 1.75813 27.9447 6
      vertex 1.75813 -27.9447 6
      vertex 5.24668 -27.504 6
    endloop
  endfacet
  facet normal -0 0 1
    outer loop
      vertex -1.75813 27.9447 6
      vertex 1.75813 -27.9447 6
      vertex 1.75813 27.9447 6
    endloop
  endfacet
  facet normal 0 0 1
    outer loop
      vertex -1.75813 27.9447 6
      vertex -1.75813 -27.9447 6
      vertex 1.75813 -27.9447 6
    endloop
  endfacet
  facet normal -0 0 1
    outer loop
      vertex -5.24668 27.504 6
      vertex -1.75813 -27.9447 6
      vertex -1.75813 27.9447 6
    endloop
  endfacet
  facet normal 0 0 1
    outer loop
      vertex -5.24668 27.504 6
      vertex -5.24668 -27.504 6
      vertex -1.75813 -27.9447 6
    endloop
  endfacet
  facet normal -0 0 1
    outer loop
      vertex -8.65248 26.6296 6
      vertex -5.24668 -27.504 6
      vertex -5.24668 27.504 6
    endloop
  endfacet
  facet normal 0 0 1
    outer loop
      vertex -8.65248 26.6296 6
      vertex -8.65248 -26.6296 6
      vertex -5.24668 -27.504 6
    endloop
  endfacet
  facet normal -0 0 1
    outer loop
      vertex -11.9218 25.3352 6
      vertex -8.65248 -26.6296 6
      vertex -8.65248 26.6296 6
    endloop
  endfacet
  facet normal 0 0 1
    outer loop
      vertex -11.9218 25.3352 6
      vertex -11.9218 -25.3352 6
      vertex -8.65248 -26.6296 6
    endloop
  endfacet
  facet normal -0 0 1
    outer loop
      vertex -15.0031 23.6412 6
      vertex -11.9218 -25.3352 6
      vertex -11.9218 25.3352 6
    endloop
  endfacet
  facet normal 0 0 1
    outer loop
      vertex -15.0031 23.6412 6
      vertex -15.0031 -23.6412 6
      vertex -11.9218 -25.3352 6
    endloop
  endfacet
  facet normal -0 0 1
    outer loop
      vertex -17.8479 21.5744 6
      vertex -15.0031 -23.6412 6
      vertex -15.0031 23.6412 6
    endloop
  endfacet
  facet normal 0 0 1
    outer loop
      vertex -17.8479 21.5744 6
      vertex -17.8479 -21.5744 6
      vertex -15.0031 -23.6412 6
    endloop
  endfacet
  facet normal -0 0 1
    outer loop
      vertex -20.4111 19.1673 6
      vertex -17.8479 -21.5744 6
      vertex -17.8479 21.5744 6
    endloop
  endfacet
  facet normal 0 0 1
    outer loop
      vertex -20.4111 19.1673 6
      vertex -20.4111 -19.1673 6
      vertex -17.8479 -21.5744 6
    endloop
  endfacet
  facet normal -0 0 1
    outer loop
      vertex -22.6525 16.458 6
      vertex -20.4111 -19.1673 6
      vertex -20.4111 19.1673 6
    endloop
  endfacet
  facet normal 0 0 1
    outer loop
      vertex -22.6525 16.458 6
      vertex -22.6525 -16.458 6
      vertex -20.4111 -19.1673 6
    endloop
  endfacet
  facet normal -0 0 1
    outer loop
      vertex -24.5366 13.4891 6
      vertex -22.6525 -16.458 6
      vertex -22.6525 16.458 6
    endloop
  endfacet
  facet normal 0 0 1
    outer loop
      vertex -24.5366 13.4891 6
      vertex -24.5366 -13.4891 6
      vertex -22.6525 -16.458 6
    endloop
  endfacet
  facet normal -0 0 1
    outer loop
      vertex -26.0337 10.3075 6
      vertex -24.5366 -13.4891 6
      vertex -24.5366 13.4891 6
    endloop
  endfacet
  facet normal 0 0 1
    outer loop
      vertex -26.0337 10.3075 6
      vertex -26.0337 -10.3075 6
      vertex -24.5366 -13.4891 6
    endloop
  endfacet
  facet normal -0 0 1
    outer loop
      vertex -27.1203 6.96332 6
      vertex -26.0337 -10.3075 6
      vertex -26.0337 10.3075 6
    endloop
  endfacet
  facet normal 0 0 1
    outer loop
      vertex -27.1203 6.96332 6
      vertex -27.1203 -6.96332 6
      vertex -26.0337 -10.3075 6
    endloop
  endfacet
  facet normal -0 0 1
    outer loop
      vertex -27.7792 3.50933 6
      vertex -27.1203 -6.96332 6
      vertex -27.1203 6.96332 6
    endloop
  endfacet
  facet normal 0 0 1
    outer loop
      vertex -27.7792 3.50933 6
      vertex -27.7792 -3.50933 6
      vertex -27.1203 -6.96332 6
    endloop
  endfacet
  facet normal 0 -0 1
    outer loop
      vertex -27.7792 -3.50933 6
      vertex -27.7792 3.50933 6
      vertex -28 0 6
    endloop
  endfacet
  facet normal 0.899467 -0.423257 0.108689
    outer loop
      vertex -24.5366 13.4891 6
      vertex -35.4808 19.5057 120
      vertex -37.6444 14.9078 120
    endloop
  endfacet
  facet normal -0.976468 -0.186271 0.108689
    outer loop
      vertex 40.1692 5.07765 120
      vertex 39.217 10.0692 120
      vertex 27.1203 6.96332 6
    endloop
  endfacet
  facet normal -0.839326 0.532652 0.108689
    outer loop
      vertex 22.6525 -16.458 6
      vertex 32.758 -23.7963 120
      vertex 24.5366 -13.4891 6
    endloop
  endfacet
  facet normal -0.83922 0.532819 0.10869
    outer loop
      vertex 32.758 -23.7963 120
      vertex 22.6525 -16.458 6
      vertex 32.7563 -23.7989 120
    endloop
  endfacet
  facet normal -0.247318 0.962819 0.10869
    outer loop
      vertex 8.65248 -26.6296 6
      vertex 12.5088 -38.5081 120
      vertex 12.5118 -38.5074 120
    endloop
  endfacet
  facet normal -0.247217 0.962845 0.108689
    outer loop
      vertex 12.5088 -38.5081 120
      vertex 8.65248 -26.6296 6
      vertex 5.24668 -27.504 6
    endloop
  endfacet
  facet normal -0.680421 0.724716 0.108693
    outer loop
      vertex 20.4111 -19.1673 6
      vertex 25.8087 -31.1973 120
      vertex 25.8109 -31.1952 120
    endloop
  endfacet
  facet normal -0.680492 0.72465 0.108689
    outer loop
      vertex 25.8087 -31.1973 120
      vertex 20.4111 -19.1673 6
      vertex 17.8479 -21.5744 6
    endloop
  endfacet
  facet normal -0.584303 0.804224 0.108689
    outer loop
      vertex 21.6976 -34.1842 120
      vertex 25.8087 -31.1973 120
      vertex 17.8479 -21.5744 6
    endloop
  endfacet
  facet normal -0.584175 0.804317 0.108695
    outer loop
      vertex 17.8479 -21.5744 6
      vertex 21.6951 -34.186 120
      vertex 21.6976 -34.1842 120
    endloop
  endfacet
  facet normal -0.584303 0.804224 0.108689
    outer loop
      vertex 21.6951 -34.186 120
      vertex 17.8479 -21.5744 6
      vertex 15.0031 -23.6412 6
    endloop
  endfacet
  facet normal 0.899467 0.423257 0.108689
    outer loop
      vertex -35.4808 -19.5057 120
      vertex -24.5366 -13.4891 6
      vertex -37.6444 -14.9078 120
    endloop
  endfacet
  facet normal 0.945422 0.307186 0.108689
    outer loop
      vertex -37.6458 -14.905 120
      vertex -26.0337 -10.3075 6
      vertex -39.2161 -10.0721 120
    endloop
  endfacet
  facet normal 0.680492 0.72465 0.108689
    outer loop
      vertex -25.8109 -31.1952 120
      vertex -20.4111 -19.1673 6
      vertex -29.5152 -27.7167 120
    endloop
  endfacet
  facet normal 0.680492 0.72465 0.108689
    outer loop
      vertex -20.4111 -19.1673 6
      vertex -25.8087 -31.1973 120
      vertex -17.8479 -21.5744 6
    endloop
  endfacet
  facet normal 0.680421 0.724716 0.108693
    outer loop
      vertex -25.8087 -31.1973 120
      vertex -20.4111 -19.1673 6
      vertex -25.8109 -31.1952 120
    endloop
  endfacet
  facet normal 0 0.994076 0.108689
    outer loop
      vertex 1.75813 -27.9447 6
      vertex -2.54233 -40.4091 120
      vertex 2.54233 -40.4091 120
    endloop
  endfacet
  facet normal 0 0.994076 0.108689
    outer loop
      vertex -2.54233 -40.4091 120
      vertex 1.75813 -27.9447 6
      vertex -1.75813 -27.9447 6
    endloop
  endfacet
  facet normal 0.365944 0.924268 0.108689
    outer loop
      vertex -12.5147 -38.5062 120
      vertex -11.9218 -25.3352 6
      vertex -17.2394 -36.6356 120
    endloop
  endfacet
  facet normal 0.478899 0.871115 0.108689
    outer loop
      vertex -17.2394 -36.6356 120
      vertex -11.9218 -25.3352 6
      vertex -21.6924 -34.1875 120
    endloop
  endfacet
  facet normal 0.584303 0.804224 0.108689
    outer loop
      vertex -21.6976 -34.1842 120
      vertex -17.8479 -21.5744 6
      vertex -25.8087 -31.1973 120
    endloop
  endfacet
  facet normal 0.584303 0.804224 0.108689
    outer loop
      vertex -17.8479 -21.5744 6
      vertex -21.6951 -34.186 120
      vertex -15.0031 -23.6412 6
    endloop
  endfacet
  facet normal 0.584175 0.804317 0.108695
    outer loop
      vertex -21.6951 -34.186 120
      vertex -17.8479 -21.5744 6
      vertex -21.6976 -34.1842 120
    endloop
  endfacet
  facet normal 0.124591 -0.986237 0.108689
    outer loop
      vertex -5.24668 27.504 6
      vertex -2.54539 40.4088 120
      vertex -7.58689 39.7719 120
    endloop
  endfacet
  facet normal 0.247217 -0.962845 0.108689
    outer loop
      vertex -5.24668 27.504 6
      vertex -7.58689 39.7719 120
      vertex -12.5088 38.5081 120
    endloop
  endfacet
  facet normal 0.365474 -0.924452 0.108708
    outer loop
      vertex -11.9218 25.3352 6
      vertex -12.5118 38.5074 120
      vertex -12.5147 38.5062 120
    endloop
  endfacet
  facet normal 0.365943 -0.924268 0.108689
    outer loop
      vertex -12.5118 38.5074 120
      vertex -11.9218 25.3352 6
      vertex -8.65248 26.6296 6
    endloop
  endfacet
  facet normal 0.680492 -0.72465 0.108689
    outer loop
      vertex -20.4111 19.1673 6
      vertex -25.8109 31.1952 120
      vertex -29.5152 27.7167 120
    endloop
  endfacet
  facet normal 0.680421 -0.724716 0.108693
    outer loop
      vertex -20.4111 19.1673 6
      vertex -25.8087 31.1973 120
      vertex -25.8109 31.1952 120
    endloop
  endfacet
  facet normal 0.680492 -0.72465 0.108689
    outer loop
      vertex -25.8087 31.1973 120
      vertex -20.4111 19.1673 6
      vertex -17.8479 21.5744 6
    endloop
  endfacet
  facet normal 0.839326 -0.532652 0.108689
    outer loop
      vertex -24.5366 13.4891 6
      vertex -32.758 23.7963 120
      vertex -35.4808 19.5057 120
    endloop
  endfacet
  facet normal 0.992114 0.0624187 0.108689
    outer loop
      vertex -40.17 -5.07155 120
      vertex -27.7792 -3.50933 6
      vertex -28 0 6
    endloop
  endfacet
  facet normal 0.992093 0.0627556 0.108691
    outer loop
      vertex -27.7792 -3.50933 6
      vertex -40.17 -5.07155 120
      vertex -40.1698 -5.07462 120
    endloop
  endfacet
  facet normal -0.945286 -0.30761 0.108673
    outer loop
      vertex 26.0337 10.3075 6
      vertex 39.217 10.0692 120
      vertex 39.2161 10.0721 120
    endloop
  endfacet
  facet normal -0.945422 -0.307186 0.108689
    outer loop
      vertex 39.217 10.0692 120
      vertex 26.0337 10.3075 6
      vertex 27.1203 6.96332 6
    endloop
  endfacet
  facet normal -0.680492 -0.72465 0.108689
    outer loop
      vertex 29.5152 27.7167 120
      vertex 25.8109 31.1952 120
      vertex 20.4111 19.1673 6
    endloop
  endfacet
  facet normal -0.247217 -0.962845 0.108689
    outer loop
      vertex 8.65248 26.6296 6
      vertex 12.5088 38.5081 120
      vertex 5.24668 27.504 6
    endloop
  endfacet
  facet normal -0.247318 -0.962819 0.10869
    outer loop
      vertex 12.5088 38.5081 120
      vertex 8.65248 26.6296 6
      vertex 12.5118 38.5074 120
    endloop
  endfacet
  facet normal 0.12459 -0.986237 0.108689
    outer loop
      vertex -1.75813 27.9447 6
      vertex -2.54539 40.4088 120
      vertex -5.24668 27.504 6
    endloop
  endfacet
  facet normal 0.124284 -0.986276 0.108691
    outer loop
      vertex -2.54539 40.4088 120
      vertex -1.75813 27.9447 6
      vertex -2.54233 40.4091 120
    endloop
  endfacet
  facet normal 0 -0.994076 0.108689
    outer loop
      vertex -1.75813 27.9447 6
      vertex 2.54233 40.4091 120
      vertex -2.54233 40.4091 120
    endloop
  endfacet
  facet normal 0 -0.994076 0.108689
    outer loop
      vertex 2.54233 40.4091 120
      vertex -1.75813 27.9447 6
      vertex 1.75813 27.9447 6
    endloop
  endfacet
  facet normal -0.365474 0.924452 0.108708
    outer loop
      vertex 11.9218 -25.3352 6
      vertex 12.5118 -38.5074 120
      vertex 12.5147 -38.5062 120
    endloop
  endfacet
  facet normal -0.365943 0.924268 0.108689
    outer loop
      vertex 12.5118 -38.5074 120
      vertex 11.9218 -25.3352 6
      vertex 8.65248 -26.6296 6
    endloop
  endfacet
  facet normal 0.899467 0.423257 0.108689
    outer loop
      vertex -37.6458 -14.905 120
      vertex -24.5366 -13.4891 6
      vertex -26.0337 -10.3075 6
    endloop
  endfacet
  facet normal 0.899458 0.423275 0.108688
    outer loop
      vertex -24.5366 -13.4891 6
      vertex -37.6458 -14.905 120
      vertex -37.6444 -14.9078 120
    endloop
  endfacet
  facet normal 0.765949 0.633648 0.108689
    outer loop
      vertex -29.5152 -27.7167 120
      vertex -20.4111 -19.1673 6
      vertex -32.7544 -23.8012 120
    endloop
  endfacet
  facet normal 0.124284 0.986276 0.108691
    outer loop
      vertex -1.75813 -27.9447 6
      vertex -2.54539 -40.4088 120
      vertex -2.54233 -40.4091 120
    endloop
  endfacet
  facet normal 0.12459 0.986237 0.108689
    outer loop
      vertex -2.54539 -40.4088 120
      vertex -1.75813 -27.9447 6
      vertex -5.24668 -27.504 6
    endloop
  endfacet
  facet normal 0.765949 -0.633648 0.108689
    outer loop
      vertex -20.4111 19.1673 6
      vertex -29.5152 27.7167 120
      vertex -32.7544 23.8012 120
    endloop
  endfacet
  facet normal 0.478899 -0.871115 0.108689
    outer loop
      vertex -11.9218 25.3352 6
      vertex -17.2394 36.6356 120
      vertex -21.6924 34.1875 120
    endloop
  endfacet
  facet normal 0.976333 -0.186993 0.108662
    outer loop
      vertex -40.1698 5.07462 120
      vertex -27.1203 6.96332 6
      vertex -40.1692 5.07765 120
    endloop
  endfacet
  facet normal 0.976468 -0.186271 0.108689
    outer loop
      vertex -27.1203 6.96332 6
      vertex -40.1698 5.07462 120
      vertex -27.7792 3.50933 6
    endloop
  endfacet
  facet normal 0.945422 -0.307186 0.108689
    outer loop
      vertex -26.0337 10.3075 6
      vertex -37.6458 14.905 120
      vertex -39.2161 10.0721 120
    endloop
  endfacet
  facet normal 0.899458 -0.423275 0.108688
    outer loop
      vertex -37.6458 14.905 120
      vertex -24.5366 13.4891 6
      vertex -37.6444 14.9078 120
    endloop
  endfacet
  facet normal 0.899467 -0.423257 0.108689
    outer loop
      vertex -24.5366 13.4891 6
      vertex -37.6458 14.905 120
      vertex -26.0337 10.3075 6
    endloop
  endfacet
  facet normal 0.992114 0.0624182 0.108689
    outer loop
      vertex -40.17 -5.07155 120
      vertex -28 0 6
      vertex -40.489 0 120
    endloop
  endfacet
  facet normal 0.992114 -0.0624182 0.108689
    outer loop
      vertex -28 0 6
      vertex -40.17 5.07155 120
      vertex -40.489 0 120
    endloop
  endfacet
  facet normal 0.992093 -0.0627556 0.108691
    outer loop
      vertex -40.17 5.07155 120
      vertex -27.7792 3.50933 6
      vertex -40.1698 5.07462 120
    endloop
  endfacet
  facet normal 0.992114 -0.0624187 0.108689
    outer loop
      vertex -27.7792 3.50933 6
      vertex -40.17 5.07155 120
      vertex -28 0 6
    endloop
  endfacet
  facet normal -0.899467 -0.423257 0.108689
    outer loop
      vertex 37.6444 14.9078 120
      vertex 35.4808 19.5057 120
      vertex 24.5366 13.4891 6
    endloop
  endfacet
  facet normal -0.945422 -0.307186 0.108689
    outer loop
      vertex 39.2161 10.0721 120
      vertex 37.6458 14.905 120
      vertex 26.0337 10.3075 6
    endloop
  endfacet
  facet normal -0.765949 -0.633648 0.108689
    outer loop
      vertex 32.7544 23.8012 120
      vertex 29.5152 27.7167 120
      vertex 20.4111 19.1673 6
    endloop
  endfacet
  facet normal -0.765935 -0.633665 0.108688
    outer loop
      vertex 20.4111 19.1673 6
      vertex 32.7563 23.7989 120
      vertex 32.7544 23.8012 120
    endloop
  endfacet
  facet normal -0.765949 -0.633648 0.108689
    outer loop
      vertex 32.7563 23.7989 120
      vertex 20.4111 19.1673 6
      vertex 22.6525 16.458 6
    endloop
  endfacet
  facet normal -0.478899 -0.871115 0.108689
    outer loop
      vertex 21.6924 34.1875 120
      vertex 17.2394 36.6356 120
      vertex 11.9218 25.3352 6
    endloop
  endfacet
  facet normal -0.247217 -0.962845 0.108689
    outer loop
      vertex 12.5088 38.5081 120
      vertex 7.58689 39.7719 120
      vertex 5.24668 27.504 6
    endloop
  endfacet
  facet normal -0.124591 -0.986237 0.108689
    outer loop
      vertex 5.24668 27.504 6
      vertex 7.58689 39.7719 120
      vertex 2.54539 40.4088 120
    endloop
  endfacet
  facet normal -0.124284 -0.986276 0.108691
    outer loop
      vertex 1.75813 27.9447 6
      vertex 2.54539 40.4088 120
      vertex 2.54233 40.4091 120
    endloop
  endfacet
  facet normal -0.12459 -0.986237 0.108689
    outer loop
      vertex 2.54539 40.4088 120
      vertex 1.75813 27.9447 6
      vertex 5.24668 27.504 6
    endloop
  endfacet
  facet normal -0.365944 -0.924268 0.108689
    outer loop
      vertex 17.2394 36.6356 120
      vertex 12.5147 38.5062 120
      vertex 11.9218 25.3352 6
    endloop
  endfacet
  facet normal -0.365943 -0.924268 0.108689
    outer loop
      vertex 11.9218 25.3352 6
      vertex 12.5118 38.5074 120
      vertex 8.65248 26.6296 6
    endloop
  endfacet
  facet normal -0.365474 -0.924452 0.108708
    outer loop
      vertex 12.5118 38.5074 120
      vertex 11.9218 25.3352 6
      vertex 12.5147 38.5062 120
    endloop
  endfacet
  facet normal 0.839326 0.532652 0.108689
    outer loop
      vertex -32.758 -23.7963 120
      vertex -22.6525 -16.458 6
      vertex -24.5366 -13.4891 6
    endloop
  endfacet
  facet normal 0.83922 0.532819 0.10869
    outer loop
      vertex -22.6525 -16.458 6
      vertex -32.758 -23.7963 120
      vertex -32.7563 -23.7989 120
    endloop
  endfacet
  facet normal 0.839326 0.532652 0.108689
    outer loop
      vertex -32.758 -23.7963 120
      vertex -24.5366 -13.4891 6
      vertex -35.4808 -19.5057 120
    endloop
  endfacet
  facet normal 0.124591 0.986237 0.108689
    outer loop
      vertex -2.54539 -40.4088 120
      vertex -5.24668 -27.504 6
      vertex -7.58689 -39.7719 120
    endloop
  endfacet
  facet normal 0.247217 0.962845 0.108689
    outer loop
      vertex -7.58689 -39.7719 120
      vertex -5.24668 -27.504 6
      vertex -12.5088 -38.5081 120
    endloop
  endfacet
  facet normal 0.584175 -0.804317 0.108695
    outer loop
      vertex -17.8479 21.5744 6
      vertex -21.6951 34.186 120
      vertex -21.6976 34.1842 120
    endloop
  endfacet
  facet normal 0.584303 -0.804224 0.108689
    outer loop
      vertex -21.6951 34.186 120
      vertex -17.8479 21.5744 6
      vertex -15.0031 23.6412 6
    endloop
  endfacet
  facet normal 0.584303 -0.804224 0.108689
    outer loop
      vertex -17.8479 21.5744 6
      vertex -21.6976 34.1842 120
      vertex -25.8087 31.1973 120
    endloop
  endfacet
  facet normal 0.945286 -0.30761 0.108673
    outer loop
      vertex -39.217 10.0692 120
      vertex -26.0337 10.3075 6
      vertex -39.2161 10.0721 120
    endloop
  endfacet
  facet normal 0.945422 -0.307186 0.108689
    outer loop
      vertex -26.0337 10.3075 6
      vertex -39.217 10.0692 120
      vertex -27.1203 6.96332 6
    endloop
  endfacet
  facet normal -0.899458 -0.423275 0.108688
    outer loop
      vertex 24.5366 13.4891 6
      vertex 37.6458 14.905 120
      vertex 37.6444 14.9078 120
    endloop
  endfacet
  facet normal -0.899467 -0.423257 0.108689
    outer loop
      vertex 37.6458 14.905 120
      vertex 24.5366 13.4891 6
      vertex 26.0337 10.3075 6
    endloop
  endfacet
  facet normal -0.680492 -0.72465 0.108689
    outer loop
      vertex 20.4111 19.1673 6
      vertex 25.8087 31.1973 120
      vertex 17.8479 21.5744 6
    endloop
  endfacet
  facet normal -0.680421 -0.724716 0.108693
    outer loop
      vertex 25.8087 31.1973 120
      vertex 20.4111 19.1673 6
      vertex 25.8109 31.1952 120
    endloop
  endfacet
  facet normal -0.4789 -0.871115 0.108689
    outer loop
      vertex 15.0031 23.6412 6
      vertex 21.6924 34.1875 120
      vertex 11.9218 25.3352 6
    endloop
  endfacet
  facet normal -0.478946 -0.87109 0.108689
    outer loop
      vertex 21.6924 34.1875 120
      vertex 15.0031 23.6412 6
      vertex 21.6951 34.186 120
    endloop
  endfacet
  facet normal -0.584303 -0.804224 0.108689
    outer loop
      vertex 17.8479 21.5744 6
      vertex 21.6951 34.186 120
      vertex 15.0031 23.6412 6
    endloop
  endfacet
  facet normal -0.584175 -0.804317 0.108695
    outer loop
      vertex 21.6951 34.186 120
      vertex 17.8479 21.5744 6
      vertex 21.6976 34.1842 120
    endloop
  endfacet
  facet normal 0.765935 -0.633665 0.108688
    outer loop
      vertex -32.7563 23.7989 120
      vertex -20.4111 19.1673 6
      vertex -32.7544 23.8012 120
    endloop
  endfacet
  facet normal 0.765949 -0.633648 0.108689
    outer loop
      vertex -20.4111 19.1673 6
      vertex -32.7563 23.7989 120
      vertex -22.6525 16.458 6
    endloop
  endfacet
  facet normal 0.478946 -0.87109 0.108689
    outer loop
      vertex -15.0031 23.6412 6
      vertex -21.6924 34.1875 120
      vertex -21.6951 34.186 120
    endloop
  endfacet
  facet normal 0.4789 -0.871115 0.108689
    outer loop
      vertex -21.6924 34.1875 120
      vertex -15.0031 23.6412 6
      vertex -11.9218 25.3352 6
    endloop
  endfacet
  facet normal -0.83922 -0.532819 0.10869
    outer loop
      vertex 22.6525 16.458 6
      vertex 32.758 23.7963 120
      vertex 32.7563 23.7989 120
    endloop
  endfacet
  facet normal -0.839326 -0.532652 0.108689
    outer loop
      vertex 32.758 23.7963 120
      vertex 22.6525 16.458 6
      vertex 24.5366 13.4891 6
    endloop
  endfacet
  facet normal -0.839326 -0.532652 0.108689
    outer loop
      vertex 35.4808 19.5057 120
      vertex 32.758 23.7963 120
      vertex 24.5366 13.4891 6
    endloop
  endfacet
endsolid OpenSCAD_Model
